<svg xmlns="http://www.w3.org/2000/svg" width="40" height="40" viewBox="0 0 40 40">
    <g fill="none" fill-rule="evenodd">
        <circle cx="20" cy="20" r="20" fill="#F00" fill-rule="nonzero"/>
        <path fill="#FFF" d="M18.427 21.91V17.6l3.965 2.156-3.965 2.154zm8.813-5.793c-.183-.826-.836-1.436-1.621-1.527-1.86-.215-3.743-.216-5.617-.215-1.874 0-3.757 0-5.617.215-.785.091-1.438.7-1.621 1.527-.261 1.178-.264 2.462-.264 3.675 0 1.212 0 2.497.26 3.674.184.826.837 1.436 1.622 1.527 1.86.215 3.743.216 5.617.215 1.874.001 3.757 0 5.617-.215.785-.09 1.438-.7 1.621-1.527.261-1.177.263-2.462.263-3.674 0-1.213.001-2.497-.26-3.675z"/>
    </g>
</svg>
