<svg xmlns="http://www.w3.org/2000/svg" width="40" height="40" viewBox="0 0 40 40">
    <g fill="none" fill-rule="evenodd">
        <circle cx="20" cy="20" r="20" fill="#090303" fill-rule="nonzero"/>
        <g fill="#FFF">
            <path d="M19.791 22.188a2.401 2.401 0 1 1 0-4.803 2.401 2.401 0 0 1 0 4.803m0-6.1a3.7 3.7 0 1 0 0 7.398 3.7 3.7 0 0 0 0-7.399"/>
            <path d="M19.791 12.583c-1.956 0-2.202.008-2.97.043-.767.035-1.29.157-1.749.335-.473.184-.875.43-1.276.83-.4.401-.647.803-.83 1.277-.179.458-.3.982-.336 1.748-.035.769-.043 1.014-.043 2.97 0 1.957.008 2.203.043 2.971.035.767.157 1.29.335 1.749.184.473.43.875.831 1.276.4.4.803.647 1.276.83.458.179.982.3 1.749.336.768.035 1.014.043 2.97.043 1.957 0 2.202-.008 2.97-.043.767-.035 1.291-.157 1.75-.335.473-.184.875-.43 1.275-.831.4-.4.647-.803.831-1.276.178-.459.3-.982.335-1.749.035-.768.043-1.014.043-2.97 0-1.957-.008-2.202-.043-2.97-.035-.767-.157-1.291-.335-1.75a3.53 3.53 0 0 0-.83-1.275c-.401-.4-.803-.647-1.277-.831-.458-.178-.982-.3-1.748-.335-.769-.035-1.014-.043-2.97-.043m0 1.298c1.923 0 2.15.007 2.91.042.703.032 1.084.149 1.338.248.336.13.576.286.828.539.253.252.409.492.54.828.098.254.215.635.247 1.338.035.76.042.987.042 2.91 0 1.924-.007 2.152-.042 2.912-.032.702-.149 1.084-.248 1.337-.13.337-.286.577-.539.829a2.232 2.232 0 0 1-.828.539c-.254.098-.635.216-1.338.248-.76.034-.987.042-2.91.042-1.924 0-2.152-.008-2.912-.042-.702-.032-1.084-.15-1.338-.248a2.232 2.232 0 0 1-.828-.54 2.234 2.234 0 0 1-.539-.828c-.098-.253-.216-.635-.248-1.337-.034-.76-.042-.988-.042-2.911 0-1.924.008-2.152.042-2.911.032-.703.15-1.084.248-1.338.13-.336.287-.576.54-.828.251-.253.491-.409.827-.54.254-.098.636-.215 1.338-.247.76-.035.988-.042 2.911-.042"/>
            <path d="M24.501 15.941a.864.864 0 1 1-1.729 0 .864.864 0 0 1 1.73 0"/>
        </g>
    </g>
</svg>
