<svg xmlns="http://www.w3.org/2000/svg" width="633" height="143" viewBox="0 0 633 143">
    <path fill="#D7D7D7" fill-rule="evenodd" d="M0 110c1.08.12 2.22.18 3.42.18h3.42c3.12 0 5.79-.78 8.01-2.34 2.22-1.56 3.33-4.8 3.33-9.72V2h62.64v108H90.9v32.4H70.74V128H20.16v14.4H0V110zm37.98-13.32c0 5.28-.54 9.72-1.62 13.32h24.66V20H37.98v76.68zm76.415 2.34c0 4.56.93 7.77 2.79 9.63 1.86 1.86 4.35 2.79 7.47 2.79s5.61-.93 7.47-2.79c1.86-1.86 2.79-5.07 2.79-9.63V30.98c0-4.56-.93-7.77-2.79-9.63-1.86-1.86-4.35-2.79-7.47-2.79s-5.61.93-7.47 2.79c-1.86 1.86-2.79 5.07-2.79 9.63v68.04zm-19.8-66.78c0-10.2 2.58-18.03 7.74-23.49 5.16-5.46 12.6-8.19 22.32-8.19s17.16 2.73 22.32 8.19c5.16 5.46 7.74 13.29 7.74 23.49v65.52c0 10.2-2.58 18.03-7.74 23.49-5.16 5.46-12.6 8.19-22.32 8.19s-17.16-2.73-22.32-8.19c-5.16-5.46-7.74-13.29-7.74-23.49V32.24zM233.385 2h17.1l-49.68 126h-17.1l49.68-126zm67.689 126h-19.8V2h62.46v126h-20.16V20h-22.5v108zm72.454-28.98c0 4.56.93 7.77 2.79 9.63 1.86 1.86 4.35 2.79 7.47 2.79s5.61-.93 7.47-2.79c1.86-1.86 2.79-5.07 2.79-9.63V30.98c0-4.56-.93-7.77-2.79-9.63-1.86-1.86-4.35-2.79-7.47-2.79s-5.61.93-7.47 2.79c-1.86 1.86-2.79 5.07-2.79 9.63v68.04zm-19.8-66.78c0-10.2 2.58-18.03 7.74-23.49 5.16-5.46 12.6-8.19 22.32-8.19s17.16 2.73 22.32 8.19c5.16 5.46 7.74 13.29 7.74 23.49v65.52c0 10.2-2.58 18.03-7.74 23.49-5.16 5.46-12.6 8.19-22.32 8.19s-17.16-2.73-22.32-8.19c-5.16-5.46-7.74-13.29-7.74-23.49V32.24zm127.355 48.78v16.74c0 10.2-2.49 18.03-7.47 23.49-4.98 5.46-12.33 8.19-22.05 8.19s-17.07-2.73-22.05-8.19c-4.98-5.46-7.47-13.29-7.47-23.49V32.24c0-10.2 2.49-18.03 7.47-23.49 4.98-5.46 12.33-8.19 22.05-8.19s17.07 2.73 22.05 8.19c4.98 5.46 7.47 13.29 7.47 23.49v12.24h-18.72v-13.5c0-4.56-.93-7.77-2.79-9.63-1.86-1.86-4.35-2.79-7.47-2.79s-5.61.93-7.47 2.79c-1.86 1.86-2.79 5.07-2.79 9.63v68.04c0 4.56.93 7.74 2.79 9.54 1.86 1.8 4.35 2.7 7.47 2.7s5.61-.9 7.47-2.7c1.86-1.8 2.79-4.98 2.79-9.54v-18h18.72zM546.698 20h-23.04v76.68c0 6.36-.78 11.58-2.34 15.66-1.56 4.08-3.66 7.29-6.3 9.63a22.827 22.827 0 0 1-9.09 4.95c-3.42.96-6.99 1.44-10.71 1.44h-4.86c-1.44 0-3-.12-4.68-.36v-18c1.08.12 2.22.18 3.42.18h3.42c3.12 0 5.79-.78 8.01-2.34 2.22-1.56 3.33-4.8 3.33-9.72V2h62.64v126h-19.8V20zm51.395 35.1h27.18v18h-27.18V110h34.2v18h-54V2h54v18h-34.2v35.1z" opacity=".505"/>
</svg>
