<svg xmlns="http://www.w3.org/2000/svg" xmlns:xlink="http://www.w3.org/1999/xlink" width="710" height="106" viewBox="0 0 710 106">
    <defs>
        <path id="a" d="M0 106h717.89V.094H0z"/>
    </defs>
    <g fill="none" fill-rule="evenodd" opacity=".098">
        <path fill="#000" d="M37.726 0l-2.505 24.38h-9.579L28.148 0H14.885l-2.506 24.38H5.011L3.832 36.192H11.2L8.4 63.903H1.18L0 75.715h7.221L4.127 106H17.39l3.094-30.285h9.58L26.967 106h13.263l3.096-30.285h7.515l1.179-11.812h-7.516l2.8-27.71h7.516L56 24.38h-7.516L50.99 0H37.726zM24.464 36.192h9.578l-2.8 27.711h-9.578l2.8-27.71z"/>
        <g>
            <path fill="#000" d="M81.76 15.224v32.527h6.522c3.133 0 5.586-.805 7.356-2.42 1.767-1.612 2.653-4.539 2.653-8.775v-10.44c0-3.831-.681-6.604-2.046-8.32-1.366-1.714-3.515-2.572-6.446-2.572H81.76zM99.96 106a55.183 55.183 0 0 0-.606-1.968c-.204-.605-.38-1.36-.531-2.268-.152-.907-.254-2.066-.304-3.48a149.84 149.84 0 0 1-.076-5.295V76.347c0-4.942-.86-8.422-2.578-10.439-1.72-2.017-4.5-3.028-8.341-3.028h-5.763V106H65.079V.094h25.175c8.694 0 14.988 2.02 18.882 6.052 3.89 4.036 5.839 10.137 5.839 18.307v8.32c0 10.894-3.64 18.056-10.92 21.484 4.247 1.717 7.151 4.516 8.72 8.397 1.567 3.884 2.351 8.601 2.351 14.145v16.342c0 2.622.1 4.917.303 6.882.202 1.968.707 3.96 1.517 5.977H99.96zM144.517 72.414h16.076l-8.037-53.56-8.04 53.56zM182.584 106h-16.835l-2.881-19.215h-20.474L139.513 106h-15.319L141.181.094h24.416L182.584 106zM212.02 63.788l-5.156 9.684V106h-16.682V.094h16.682v46.145L229.006.094h16.38l-23.205 47.204L245.386 106h-17.138zM273.108 72.414h16.077l-8.038-53.56-8.039 53.56zM311.175 106H294.34l-2.88-19.215h-20.475L268.105 106h-15.32L269.773.094h24.417L311.175 106zM354.261 75.287L365.635.094h23.204V106h-15.773V30.05L361.54 106h-15.771l-12.437-74.89V106h-14.56L318.774.094h23.204zM416.91 72.414h16.076l-8.037-53.56-8.039 53.56zM454.977 106h-16.833l-2.882-19.214h-20.474L411.905 106H396.59L413.575.094h24.416L454.977 106z"/>
            <mask id="b" fill="#fff">
                <use xlink:href="#a"/>
            </mask>
            <path fill="#000" d="M545.502 72.414h16.075l-8.037-53.56-8.038 53.56zM583.568 106h-16.833l-2.882-19.214H543.38L540.497 106H525.18L542.166.094h24.417L583.568 106zM484.414 63.788l-5.155 9.684V106h-16.685V.094h16.685v46.145L501.399.094h16.38l-23.204 47.204L517.778 106h-17.136zM607.852 47.146h21.535v15.13h-21.535V106h-16.684V.094h44.134v15.13h-27.45zM642.199 106h16.684V.094h-16.684zM666.328.094h51.562v15.13h-17.439V106h-16.684V15.224h-17.44z" mask="url(#b)"/>
        </g>
    </g>
</svg>
