<svg xmlns="http://www.w3.org/2000/svg" width="20" height="22" viewBox="0 0 20 22">
    <g fill="#000" fill-rule="evenodd">
        <path fill-rule="nonzero" d="M.165.824v19.762c0 .421.33.751.752.751h16.79c.421 0 .752-.33.752-.75v-3.719h.642c.422 0 .752-.33.752-.75 0-.422-.33-.752-.752-.752h-.642V6.172h.642c.422 0 .752-.33.752-.75 0-.422-.33-.752-.752-.752h-.642V.824c0-.421-.33-.75-.753-.75H.9a.751.751 0 0 0-.734.75zm16.79.751V4.67h-.405a.743.743 0 0 0-.752.751c0 .421.33.751.752.751h.404v9.194h-.404a.743.743 0 0 0-.752.751c0 .421.33.751.752.751h.404v2.985H15.01V1.575h1.945zm-3.45 0v18.26H1.65V1.575h11.854z"/>
        <path d="M10.055 16.117V5.311c0-.42-.33-.75-.752-.75a.743.743 0 0 0-.753.75v10.806c0 .421.33.751.753.751.422 0 .752-.33.752-.75zM6.422 10.714V5.311c0-.42-.33-.75-.752-.75a.743.743 0 0 0-.753.75v5.403c0 .422.33.751.753.751.422 0 .752-.33.752-.75z"/>
    </g>
</svg>
