<svg xmlns="http://www.w3.org/2000/svg" width="18" height="18" viewBox="0 0 18 18">
    <path fill="#3A3A3A" fill-rule="nonzero" d="M5.4 14.4c-.99 0-1.791.81-1.791 1.8S4.41 18 5.4 18c.99 0 1.8-.81 1.8-1.8s-.81-1.8-1.8-1.8zM0 0v1.8h1.8l3.24 6.831-1.215 2.205a1.74 1.74 0 0 0-.225.864c0 .99.81 1.8 1.8 1.8h10.8v-1.8H5.778a.223.223 0 0 1-.225-.225l.027-.108.81-1.467h6.705c.675 0 1.269-.369 1.575-.927l3.222-5.841A.903.903 0 0 0 17.1 1.8H3.789L2.943 0H0zm14.4 14.4c-.99 0-1.791.81-1.791 1.8S13.41 18 14.4 18c.99 0 1.8-.81 1.8-1.8s-.81-1.8-1.8-1.8z"/>
</svg>
