<svg xmlns="http://www.w3.org/2000/svg" width="32" height="32" viewBox="0 0 32 32">
    <g fill="none" fill-rule="nonzero">
        <circle cx="16" cy="16" r="16" fill="#D7D7D7"/>
        <path fill="#FFF" d="M12.617 20.846a1.46 1.46 0 0 0-1.455 1.463 1.46 1.46 0 0 0 1.455 1.462c.805 0 1.463-.658 1.463-1.462 0-.805-.658-1.463-1.463-1.463zM8.23 9.143v1.463H9.69l2.634 5.551-.988 1.792a1.414 1.414 0 0 0-.183.702c0 .805.659 1.463 1.463 1.463h8.777v-1.463h-8.47a.181.181 0 0 1-.183-.182l.022-.088.659-1.192h5.449c.548 0 1.031-.3 1.28-.754l2.618-4.747a.734.734 0 0 0-.644-1.083H11.309l-.688-1.462H8.23zM19.93 20.846a1.46 1.46 0 0 0-1.455 1.463 1.46 1.46 0 0 0 1.455 1.462c.805 0 1.463-.658 1.463-1.462 0-.805-.658-1.463-1.463-1.463z"/>
    </g>
</svg>
