<svg xmlns="http://www.w3.org/2000/svg" width="42" height="30" viewBox="0 0 42 30">
    <g fill="none" fill-rule="evenodd">
        <path fill="#56B46F" d="M0 6h42v24H0z"/>
        <path fill="#74BE86" d="M39 6H1.5V3z"/>
        <path fill="#4D8157" d="M30.75 18A9.75 9.75 0 0 1 21 27.75 9.75 9.75 0 0 1 11.25 18 9.75 9.75 0 0 1 21 8.25 9.75 9.75 0 0 1 30.75 18"/>
        <path fill="#EAEAD7" d="M15.82 26.25c-2.742-1.726-4.57-4.77-4.57-8.25 0-3.48 1.829-6.524 4.57-8.25H8.231a4.125 4.125 0 0 1-4.481 4.481v7.538a4.125 4.125 0 0 1 4.481 4.481h7.59zM37.875 14.25a4.125 4.125 0 0 1-4.106-4.5h-7.59c2.743 1.726 4.571 4.77 4.571 8.25 0 3.48-1.828 6.524-4.57 8.25h7.589a4.125 4.125 0 0 1 4.481-4.481V14.23a4.13 4.13 0 0 1-.375.019M4.125 12a1.877 1.877 0 0 1-1.875-1.875c0-1.034.84-1.875 1.875-1.875C5.159 8.25 6 9.09 6 10.125 6 11.159 5.16 12 4.125 12M37.875 12A1.877 1.877 0 0 1 36 10.125c0-1.034.84-1.875 1.875-1.875 1.034 0 1.875.84 1.875 1.875 0 1.034-.84 1.875-1.875 1.875M4.125 27.75a1.877 1.877 0 0 1-1.875-1.875c0-1.034.84-1.875 1.875-1.875C5.159 24 6 24.84 6 25.875c0 1.034-.84 1.875-1.875 1.875M37.875 27.75A1.877 1.877 0 0 1 36 25.875c0-1.034.84-1.875 1.875-1.875 1.034 0 1.875.84 1.875 1.875 0 1.034-.84 1.875-1.875 1.875"/>
        <path fill="#83C38E" d="M3.75 0v3.18L39 6h2.25z"/>
        <path fill="#EAEAD7" d="M25.176 20.269c.533-.165.924-.657.924-1.242v-.653c0-.5-.288-.932-.704-1.151-.288-2.455-1.91-3.45-4.52-3.45-.123 0-.244.005-.363.015-.887.07-1.784-.096-2.521-.593-.307-.207-.565-.426-.747-.657-.083-.105-.248-.039-.233.095.026.228.065.495.123.786.215 1.084.086.925-.333 1.948a6.769 6.769 0 0 0-.45 1.858c-.413.22-.7.65-.7 1.15v.652c0 .585.393 1.077.925 1.242.353 1.321 1.078 2.378 2.34 2.922v.748a.502.502 0 0 1-.28.45l-2.52 1.242a2.106 2.106 0 0 0-.559.46A9.708 9.708 0 0 0 21 27.75c1.94 0 3.744-.574 5.263-1.551a2.137 2.137 0 0 0-.695-.552L23.11 24.39a.5.5 0 0 1-.274-.446v-.753c1.262-.544 1.988-1.6 2.341-2.922"/>
    </g>
</svg>
