<svg xmlns="http://www.w3.org/2000/svg" width="46" height="40" viewBox="0 0 46 40">
    <g fill="none" fill-rule="evenodd">
        <g fill="#FFD2D8" fill-rule="nonzero" transform="translate(5)">
            <ellipse cx="25" cy="15" rx="16" ry="15"/>
            <ellipse cx="13.5" cy="27.5" rx="13.5" ry="12.5"/>
        </g>
        <g fill="#000">
            <path d="M15.065 15.746H25.86v3.572H15.065zM15.065 9.578h15.421v3.572h-15.42z"/>
            <path fill-rule="nonzero" d="M33.95 25.95c3.955-2.46 6.033-6.441 6.033-11.602C39.983 5.374 33.55.017 22.776.017 12 .017 5.569 5.374 5.569 14.348c0 .612.03 1.207.09 1.787-1.612.87-2.904 2.028-3.846 3.454C.62 21.39.017 23.579.017 26.094c0 4.157 1.638 7.389 4.756 9.432-.353 1.043-.725 1.648-.754 1.695l-1.83 2.761h3.318l.102.001c.931 0 3.503-.203 5.713-2.234.868.102 1.799.151 2.818.151 3.761 0 7.005-.826 9.38-2.39 2.163-1.426 3.624-3.459 4.304-5.955 2.494 1.675 5.042 1.791 5.704 1.791h.03l3.232.007-1.716-2.735c-.007-.012-.61-1.003-1.123-2.668zm-12.395 6.577c-1.79 1.179-4.354 1.802-7.415 1.802-1.196 0-2.232-.077-3.166-.236l-.994-.169-.658.765a4.921 4.921 0 0 1-.805.749l.09-.386.303-1.368-1.257-.62c-2.735-1.349-4.064-3.629-4.064-6.97 0-2.837.958-4.912 2.919-6.296a12.132 12.132 0 0 0 4.32 5.617c2.939 2.115 7.07 3.233 11.948 3.233.561 0 1.095-.012 1.606-.034-.445 1.668-1.378 2.958-2.827 3.913zm9.526-9.064l-1.256.62.303 1.367c.125.566.268 1.092.417 1.575a6.808 6.808 0 0 1-2.085-1.641l-.658-.765-.994.17c-1.14.193-2.46.287-4.032.287-4.125 0-7.535-.885-9.862-2.56-2.504-1.802-3.774-4.55-3.774-8.168 0-9.362 8.543-10.76 13.636-10.76 5.092 0 13.635 1.398 13.635 10.76 0 4.303-1.793 7.37-5.33 9.115z"/>
        </g>
    </g>
</svg>
