<svg xmlns="http://www.w3.org/2000/svg" width="48" height="40" viewBox="0 0 48 40">
    <g fill="none" fill-rule="evenodd">
        <path fill="#BEEAFC" fill-rule="nonzero" d="M31 40H11C4.925 40 0 35.075 0 29s4.925-11 11-11c0-6.075 4.925-11 11-11s11 4.925 11 11l-.001.181C38.119 19.121 42 23.607 42 29c0 6.075-4.925 11-11 11z"/>
        <path fill="#000" d="M45.5 26.875c0 5.646-4.421 10.3-10.065 10.596a1.126 1.126 0 0 0-.216.029H18c-4.136 0-7.5-3.364-7.5-7.5a7.51 7.51 0 0 1 6.04-7.355 1.248 1.248 0 0 0 .909-1.716 8.697 8.697 0 0 1-.699-3.429c0-4.825 3.925-8.75 8.75-8.75a8.737 8.737 0 0 1 8.465 6.576c.14.54.621.924 1.18.939a10.655 10.655 0 0 1 4.449 1.094 10.541 10.541 0 0 1 5.906 9.516M36.75 6.5c2.62 0 4.751 2.13 4.751 4.75a4.741 4.741 0 0 1-1.562 3.515 13.19 13.19 0 0 0-3.818-.946 11.222 11.222 0 0 0-3.452-4.983A4.76 4.76 0 0 1 36.75 6.5m7.26 9.87l-1.182-1.185A7.209 7.209 0 0 0 43.88 12.5h2.87a1.25 1.25 0 1 0 0-2.5h-2.865a7.182 7.182 0 0 0-1.206-2.91l1.331-1.329a1.251 1.251 0 0 0-1.766-1.77L40.91 5.322A7.155 7.155 0 0 0 38 4.117V1.25a1.25 1.25 0 1 0-2.5 0v2.869a7.23 7.23 0 0 0-2.679 1.061l-1.185-1.189a1.25 1.25 0 0 0-1.77 1.765l1.11 1.113c-.143.189-.265.396-.39.599A11.2 11.2 0 0 0 25.5 6.25c-6.203 0-11.25 5.047-11.25 11.25 0 1.047.143 2.075.425 3.07A10.022 10.022 0 0 0 8 30c0 5.514 4.486 10 10 10h17.5c.12 0 .236-.019.346-.051C42.684 39.447 48 33.758 48 26.875c0-3.585-1.414-6.809-3.715-9.168a1.246 1.246 0 0 0-.275-1.337m-4.135 10.505A5.632 5.632 0 0 1 34.25 32.5a1.25 1.25 0 1 0 0 2.5c4.48 0 8.125-3.645 8.125-8.125a1.25 1.25 0 1 0-2.5 0M25.5 21.25a3.755 3.755 0 0 1-3.75-3.75 1.25 1.25 0 0 0-2.5 0 6.257 6.257 0 0 0 6.25 6.25 1.25 1.25 0 0 0 0-2.5" opacity=".847"/>
    </g>
</svg>
