<svg xmlns="http://www.w3.org/2000/svg" width="46" height="40" viewBox="0 0 46 40">
    <g fill="none" fill-rule="evenodd">
        <path fill="#BEEAFC" fill-rule="nonzero" d="M11.387 1.493h16.766l8.974 12.537-17.711 25.293L0 16.895z"/>
        <path fill="#000" d="M33.286 13.545l2.161-9.265 6.738 9.265h-8.9zM28.8 32.772l3.92-16.802h9.344L28.8 32.772zm-2.415-.317L22.538 15.97h7.692l-3.845 16.485zM10.705 15.97h9.343l3.92 16.802L10.704 15.97zM17.32 4.28l2.161 9.265h-8.898l6.737-9.265zm16.02-1.644l-2.545 10.91h-8.824l-2.545-10.91h13.915zm12.42 11.923a.036.036 0 0 0-.002-.012c-.048-.257-.15-.494-.331-.667L35.85.712a1.196 1.196 0 0 0-.245-.244c-.02-.017-.044-.03-.067-.044a1.197 1.197 0 0 0-.391-.18h-.003c-.002-.002-.006 0-.01 0a1.203 1.203 0 0 0-.264-.032H17.9c-.092 0-.18.012-.266.032-.004 0-.006-.002-.01 0h-.002a1.22 1.22 0 0 0-.392.18c-.023.015-.045.027-.066.044-.091.071-.176.149-.244.244L7.223 14.045c-.023.029-.032.063-.05.092-.02.033-.045.058-.062.09-.008.02-.01.04-.018.06a.913.913 0 0 0-.053.166c-.013.052-.028.102-.035.154-.006.058-.005.115-.005.172.001.054.002.106.01.158.008.056.025.11.04.164.017.053.032.106.054.157.009.017.01.034.018.05.02.037.048.067.072.1.02.033.034.07.057.101l18.182 23.03c.019.025.05.033.07.056.048.055.094.113.153.158.03.022.069.034.1.054.011.008.023.012.032.017.042.024.079.049.121.067.048.022.097.039.15.053.018.006.03.02.05.024.09.02.18.03.27.03l.004.002h.002a1.274 1.274 0 0 0 .274-.032c.02-.004.034-.018.051-.024a.972.972 0 0 0 .148-.053c.044-.018.081-.043.121-.067a.21.21 0 0 0 .033-.017c.033-.02.07-.032.1-.054.059-.045.104-.103.153-.158.02-.023.051-.031.07-.056l18.083-22.904a1.2 1.2 0 0 0 .384-.877c0-.072-.029-.131-.04-.2z"/>
    </g>
</svg>
