<svg xmlns="http://www.w3.org/2000/svg" width="26" height="40" viewBox="0 0 26 40">
    <g fill="none" fill-rule="evenodd">
        <path fill="#FFD2D8" fill-rule="nonzero" d="M3.964 39c-4.471-6.095-5.16-11.77-2.066-17.026 4.64-7.883 6.082-8.966 6.763-13.306C9.115 5.775 8.43 2.886 6.606 0c2.576.908 4.62 2.01 6.135 3.308 4.037 3.458 8.815 9.917 8.206 20.365-.228 3.915-2.718 9.024-7.469 15.327.54-2.208.031-4.324-1.53-6.347-1.56-2.023-1.81-4.71-.749-8.063-2.433.893-4.199 2.327-5.296 4.301C4.806 30.866 4.16 34.235 3.964 39z"/>
        <path fill="#000" d="M17.889 35.525a6.304 6.304 0 0 0-1.393-3.454c-2.356-2.917-.511-5.812-.435-5.929a1.274 1.274 0 0 0-.044-1.478 1.212 1.212 0 0 0-1.393-.4c-.256.098-6.27 2.498-6.304 9.61-1.537-3.718-1.385-8.61 2.742-13.711 4.968-6.14 4.174-12.353 2.915-16.096 3.748 2.45 9.58 7.87 9.58 17.887 0 6.262-3.171 10.896-5.668 13.57M11.773.08a1.203 1.203 0 0 0-1.393.4 1.274 1.274 0 0 0-.043 1.48c.056.083 5.506 8.375-1.157 16.609-7.395 9.138-3.426 17.546.086 21.073.235.235.544.358.855.358h.014c.702-.02 1.232-.557 1.232-1.25 0-.233-.063-.452-.17-.639-.223-.783-.433-2.962-.433-4.181 0-2.558 1.02-4.319 2.11-5.474-.084 1.603.318 3.449 1.74 5.209.96 1.19 1.117 2.762.463 4.671a1.268 1.268 0 0 0 .437 1.427c.44.324 1.035.315 1.461-.025C19.093 38.065 26 31.836 26 21.954 26 5.749 11.915.135 11.773.08"/>
    </g>
</svg>
