<svg xmlns="http://www.w3.org/2000/svg" width="24" height="24" viewBox="0 0 24 24">
    <g fill="#FFF" fill-rule="evenodd">
        <path d="M11.666 15.5a3.842 3.842 0 1 1 0-7.684 3.842 3.842 0 0 1 0 7.685m0-9.761a5.92 5.92 0 1 0 0 11.838 5.92 5.92 0 0 0 0-11.838"/>
        <path d="M11.666.132c-3.13 0-3.523.013-4.752.07-1.227.055-2.065.25-2.798.535a5.65 5.65 0 0 0-2.042 1.33 5.65 5.65 0 0 0-1.33 2.041C.46 4.842.265 5.68.21 6.906c-.056 1.23-.07 1.622-.07 4.753 0 3.13.014 3.523.07 4.752.056 1.227.25 2.065.536 2.798a5.65 5.65 0 0 0 1.329 2.042 5.65 5.65 0 0 0 2.042 1.33c.733.284 1.57.48 2.798.535 1.229.056 1.621.07 4.752.07 3.13 0 3.523-.014 4.753-.07 1.226-.056 2.064-.25 2.798-.536a5.65 5.65 0 0 0 2.041-1.33 5.65 5.65 0 0 0 1.33-2.04c.285-.734.48-1.572.535-2.799.056-1.23.07-1.622.07-4.752s-.014-3.523-.07-4.753c-.056-1.227-.25-2.064-.536-2.798a5.65 5.65 0 0 0-1.329-2.041 5.65 5.65 0 0 0-2.041-1.33c-.734-.285-1.572-.48-2.798-.536-1.23-.056-1.622-.069-4.753-.069m0 2.077c3.078 0 3.442.012 4.658.067 1.124.052 1.734.24 2.14.397.538.21.922.459 1.325.862.404.404.654.788.863 1.326.158.406.345 1.016.397 2.14.055 1.215.067 1.58.067 4.658 0 3.078-.012 3.442-.067 4.657-.052 1.124-.24 1.735-.397 2.14-.21.539-.46.923-.863 1.326a3.571 3.571 0 0 1-1.325.862c-.406.158-1.016.346-2.14.397-1.215.056-1.58.068-4.658.068-3.078 0-3.442-.012-4.658-.068-1.124-.05-1.734-.239-2.14-.397a3.571 3.571 0 0 1-1.325-.862 3.574 3.574 0 0 1-.863-1.325c-.158-.406-.345-1.017-.397-2.14-.055-1.216-.067-1.58-.067-4.658 0-3.078.012-3.443.067-4.658.052-1.124.24-1.734.397-2.14.21-.538.46-.922.863-1.326a3.573 3.573 0 0 1 1.325-.862c.406-.158 1.016-.345 2.14-.397 1.216-.055 1.58-.067 4.658-.067"/>
        <path d="M19.202 5.506a1.383 1.383 0 1 1-2.766 0 1.383 1.383 0 0 1 2.766 0"/>
    </g>
</svg>
