<svg xmlns="http://www.w3.org/2000/svg" width="24" height="17" viewBox="0 0 24 17">
    <path fill="#FFF" fill-rule="evenodd" d="M9.483 11.825V5.062l6.345 3.381-6.345 3.382zm14.102-9.09C23.29 1.436 22.247.48 20.99.337 18.014 0 15.002-.002 12.004 0c-3-.001-6.012 0-8.988.338C1.76.48.716 1.438.422 2.734.004 4.582 0 6.598 0 8.5c0 1.902 0 3.918.417 5.766.294 1.297 1.338 2.253 2.594 2.396C5.987 17 9 17.002 11.998 17c3 .002 6.011 0 8.987-.338 1.257-.143 2.3-1.1 2.595-2.396.417-1.848.42-3.864.42-5.766 0-1.902.002-3.918-.415-5.766z"/>
</svg>
