<svg xmlns="http://www.w3.org/2000/svg" width="19" height="24" viewBox="0 0 19 24">
    <path fill="#FFF" fill-rule="evenodd" d="M12.546 17.982c-.248.453-.641.797-1.18 1.032-.612.266-1.214.49-1.805.511-.592.021-1.658.111-3.2.111h-.47v-6.148h1.246c1.056 0 1.898.02 2.526.035.629.016 1.122.1 1.481.238.592.213 1.035.53 1.33.946.296.416.444.994.444 1.73 0 .575-.124 1.091-.372 1.545zM5.891 4.364h.565c1.056 0 1.85.022 2.384.038a3.73 3.73 0 0 1 1.386.287c.411.182.715.478.91.883.196.406.293.802.293 1.186 0 .523-.09.982-.269 1.377-.18.394-.507.704-.982.928-.433.203-.852.36-1.259.38-.406.022-1.117.078-2.13.078h-.898V4.364zm11.78 8.323c-.877-.954-2.157-1.587-3.532-1.896v-.128c.982-.426 1.839-1.093 2.415-2 .575-.906.878-1.94.878-3.103 0-1.002-.2-1.888-.617-2.655-.418-.768-1.045-1.382-1.89-1.84a7.525 7.525 0 0 0-2.507-.853C11.525.08 10.215 0 8.484 0H0v24h9.592c1.637 0 2.986-.227 4.047-.526 1.06-.298 2.035-.838 2.922-1.542.75-.587 1.346-1.347 1.79-2.243.443-.896.649-1.946.649-3.13 0-1.62-.454-2.918-1.33-3.872z"/>
</svg>
