<svg xmlns="http://www.w3.org/2000/svg" width="39" height="24" viewBox="0 0 39 24">
    <g fill="#BD350D" fill-rule="evenodd">
        <path d="M31.371 5.522v4.16h-4.16v2.967h4.16v4.161h2.967v-4.16h4.16V9.682h-4.16v-4.16zM12.805 9.525v4.758h6.374c-.197 1-.597 1.917-1.307 2.69-2.555 2.79-7.318 2.761-10.044-.045C5.1 14.12 5.13 9.596 7.894 6.826c2.629-2.634 6.863-2.747 9.423-.243l-.005.006 3.474-3.475c-4.653-4.233-11.831-4.168-16.363.303C-.264 8.042-.315 15.6 4.31 20.287c4.625 4.687 12.643 4.734 16.977.077 2.616-2.81 3.369-6.842 2.745-10.839H12.805z"/>
    </g>
</svg>
