<svg xmlns="http://www.w3.org/2000/svg" width="54" height="40" viewBox="0 0 54 40">
    <g fill="none" fill-rule="evenodd">
        <path fill="#FFD2D8" fill-rule="nonzero" d="M50.715 23.598c-2.963 4.34-8.81 9.808-17.54 16.402-13.129-9.626-19.85-17.578-20.163-23.856a9.057 9.057 0 0 1-.007-.772A13.102 13.102 0 0 1 13 15c0-7.18 5.883-13 13.141-13 2.727 0 5.26.822 7.359 2.228A13.18 13.18 0 0 1 40.859 2C48.117 2 54 7.82 54 15c0 3.297-1.24 6.307-3.285 8.598z"/>
        <path fill="#000" d="M48 11.452V0H36.554v4.245h3.962L23.174 21.56l-6.436-6.44-8.31 8.316C5.34 19.89 3.73 16.605 3.73 13.8c0-5.783 3.758-9.821 9.138-9.821 1.4 0 2.624.21 3.683.544 4.337 1.797 7.382 7.41 7.382 7.41s2.736-5.333 7.068-7.348a11.291 11.291 0 0 1 1.823-.445V.374c-3.521.431-5.999 1.918-7.534 3.198-.48.4-.962.867-1.403 1.36a13.267 13.267 0 0 0-1.439-1.395c-1.81-1.5-4.943-3.288-9.58-3.288-3.527 0-6.762 1.308-9.108 3.685C1.3 6.427 0 9.839 0 13.802c0 4.753 3.019 9.982 8.973 15.543 5.399 5.042 11.315 8.58 12.447 9.238.471.274 1.52.88 1.52.88l.932.537.932-.538 1.519-.88c1.131-.658 7.048-4.196 12.447-9.237 5.383-5.027 8.363-9.783 8.886-14.161h-3.77c-.579 3.345-3.196 7.263-7.661 11.433-5.107 4.768-10.706 8.117-11.777 8.74l-.577.334-.577-.334c-1.07-.623-6.67-3.972-11.776-8.74l-.139-.132 5.359-5.361 6.432 6.436L43.757 7.006v4.446H48z"/>
    </g>
</svg>
