<svg xmlns="http://www.w3.org/2000/svg" width="46" height="39" viewBox="0 0 46 39">
    <g fill="none" fill-rule="evenodd">
        <path fill="#FFD2D8" fill-rule="nonzero" d="M36.559 19.667C34.949 25.657 28.929 32.102 18.5 39 6.137 30.842-.03 22.808 0 14.897c0-.156.003-.308.008-.458A12.035 12.035 0 0 1 0 14C0 7.373 5.453 2 12.18 2c2.527 0 4.874.758 6.82 2.057A12.25 12.25 0 0 1 25.82 2C32.548 2 38 7.373 38 14c0 2.05-.522 3.98-1.441 5.667z"/>
        <path fill="#000" d="M34.18 4.81a1.168 1.168 0 1 0 0 2.336 4.677 4.677 0 0 1 4.674 4.673 1.168 1.168 0 1 0 2.336 0 7.016 7.016 0 0 0-7.01-7.009M27 35.595C16.599 30.412 10.405 21.6 10.405 11.926c0-5.25 4.254-9.52 9.483-9.52a9.41 9.41 0 0 1 5.336 1.672 11.86 11.86 0 0 0-2.965 7.848c0 .657.53 1.19 1.185 1.19s1.185-.533 1.185-1.19a9.507 9.507 0 0 1 3.774-7.585c.043-.03.087-.065.13-.097a9.018 9.018 0 0 1 .745-.494c.191-.116.387-.223.585-.324l.208-.101c.19-.09.382-.176.578-.252.086-.036.175-.066.263-.098a8.99 8.99 0 0 1 .557-.186 7.86 7.86 0 0 1 .339-.088c.168-.042.339-.086.51-.121.156-.029.315-.05.474-.071.135-.02.27-.043.406-.058.301-.028.606-.046.914-.046 5.229 0 9.483 4.271 9.483 9.521 0 9.674-6.192 18.486-16.595 23.669M34.125 0c-.367 0-.731.023-1.095.056-.133.012-.265.03-.397.048a11.097 11.097 0 0 0-1.683.34c-.171.048-.342.094-.511.149-.152.05-.3.11-.451.166-.397.148-.784.314-1.158.502-.075.038-.152.07-.226.11-.198.104-.39.22-.58.335-.106.063-.212.125-.315.193a11.55 11.55 0 0 0-.543.374c-.054.04-.111.075-.166.115A11.834 11.834 0 0 0 19.875 0C13.327 0 8 5.326 8 11.875c0 10.748 6.911 20.47 18.487 26.007a1.183 1.183 0 0 0 1.026 0C39.089 32.345 46 22.623 46 11.875 46 5.325 40.673 0 34.125 0"/>
    </g>
</svg>
