<svg xmlns="http://www.w3.org/2000/svg" width="32" height="32" viewBox="0 0 32 32">
    <defs>
        <linearGradient id="a" x1="14.648%" x2="85.352%" y1="85.361%" y2="14.648%">
            <stop offset="0%" stop-color="#FFC107"/>
            <stop offset="50.7%" stop-color="#F44336"/>
            <stop offset="99%" stop-color="#9C27B0"/>
        </linearGradient>
    </defs>
    <g fill="none" fill-rule="evenodd">
        <circle cx="16" cy="16" r="16" fill="url(#a)"/>
        <g fill="#FFF">
            <path d="M15.833 17.75a1.921 1.921 0 1 1 0-3.842 1.921 1.921 0 0 1 0 3.842m0-4.88a2.96 2.96 0 1 0 0 5.919 2.96 2.96 0 0 0 0-5.92"/>
            <path d="M15.833 10.066c-1.565 0-1.762.007-2.376.035-.614.028-1.033.125-1.4.268-.378.147-.7.344-1.02.664-.32.32-.517.642-.665 1.021-.142.367-.24.786-.268 1.4-.028.614-.034.81-.034 2.375 0 1.566.006 1.762.034 2.377.028.613.126 1.032.268 1.399.148.379.345.7.665 1.02.32.32.642.518 1.02.665.367.143.786.24 1.4.268.614.028.81.035 2.376.035 1.565 0 1.762-.007 2.376-.035.614-.028 1.033-.125 1.4-.268.378-.147.7-.344 1.02-.665.32-.32.517-.641.665-1.02.142-.367.24-.786.268-1.4.028-.614.034-.81.034-2.376 0-1.565-.006-1.761-.034-2.376-.028-.613-.126-1.032-.268-1.399a2.825 2.825 0 0 0-.665-1.02 2.825 2.825 0 0 0-1.02-.665c-.367-.143-.786-.24-1.4-.268-.614-.028-.81-.035-2.376-.035m0 1.038c1.539 0 1.721.006 2.329.034.562.026.867.12 1.07.198.27.105.461.23.663.432.201.201.326.393.43.662.08.203.174.509.2 1.07.027.608.033.79.033 2.33 0 1.538-.006 1.72-.034 2.328-.025.562-.12.867-.198 1.07-.105.27-.23.461-.431.663a1.786 1.786 0 0 1-.663.431c-.203.08-.508.173-1.07.199-.608.027-.79.033-2.329.033-1.539 0-1.721-.006-2.329-.033-.562-.026-.867-.12-1.07-.199a1.786 1.786 0 0 1-.663-.43 1.787 1.787 0 0 1-.43-.664c-.08-.203-.174-.508-.2-1.07-.027-.607-.033-.79-.033-2.329 0-1.538.006-1.72.034-2.329.025-.561.12-.867.198-1.07.105-.269.23-.46.431-.662.202-.202.394-.327.663-.432.203-.078.508-.172 1.07-.198.608-.028.79-.034 2.329-.034"/>
            <path d="M19.601 12.753a.692.692 0 1 1-1.383 0 .692.692 0 0 1 1.383 0"/>
        </g>
    </g>
</svg>
