<svg xmlns="http://www.w3.org/2000/svg" width="258" height="50" viewBox="0 0 258 50">
    <path fill="#FFF" fill-rule="evenodd" d="M258 12.95v3.684h-4.064v21.817h-3.885V16.634h-4.028V12.95H258zm-21.886 25.5h3.956v-25.5h-3.956v25.5zm-12.298-15.133h4.491V27h-4.491v11.45h-3.886v-25.5h10.124v3.683h-6.238v6.683zm-18.571 5.995l1.39-10.655h.249l1.32 10.655h-2.96zm-.999-16.362l-4.135 25.5h3.815l.82-5.526h3.92l.785 5.527h3.992l-4.135-25.5h-5.062zm-13.438 8.705l4.813 16.796h-4.028l-3.28-12.823-1.426 2.89v9.933h-3.885v-25.5h3.885v10.763c.214-.758.393-1.337.535-1.662l3.85-9.102h3.85l-4.314 8.705zm-22.492 7.657l1.39-10.655h.25l1.319 10.655h-2.959zm-.998-16.362l-4.135 25.5h3.814l.82-5.526h3.921l.784 5.527h3.993l-4.135-25.5h-5.062zm-22.67 8.56c-.357-2.058-.535-3.286-.607-3.611.179 1.914.25 3.395.25 4.442v16.11h-3.6v-25.5h5.168l2.531 14.122c.214 1.156.321 2.456.321 3.829 0-1.3.143-2.565.357-3.793l2.424-14.159h5.24v25.5h-3.636V22.342c0-.722.07-2.203.285-4.442-.285 1.733-.464 2.925-.606 3.612l-3.173 16.94h-1.925l-3.03-16.94zm-18.643 7.802l1.39-10.655h.25l1.318 10.655h-2.958zm4.206 9.139h3.992l-4.135-25.5h-5.061l-4.135 25.5h3.814l.82-5.527h3.921l.784 5.527zm-18.643-16.796l4.813 16.796h-4.028l-3.28-12.823-1.425 2.89v9.933h-3.886v-25.5h3.886v10.763c.213-.758.392-1.337.534-1.662l3.85-9.102h3.85l-4.314 8.705zm-21.101-2.998h.249l1.319 10.655h-2.959l1.39-10.655zm2.031 14.267l.785 5.527h3.992l-4.135-25.5h-5.062l-4.135 25.5h3.814l.82-5.527h3.921zM71.967 24.04h-1.533v-7.405h1.39c1.889 0 2.53.831 2.53 3.54 0 2.818-.498 3.865-2.387 3.865zm3.885 2.564c1.818-1.3 2.46-3.25 2.46-6.284 0-5.238-1.854-7.369-6.06-7.369h-5.704v25.5h3.886V27.724h1.853l2.389 10.728h4.028l-2.852-11.848zM55.01 21.551c-.204-.677-.56-1.24-1.207-1.567-.256-.13-.287-.11-.287.175-.002 1.39-.002 2.778 0 4.167 0 .278.082.346.315.195.26-.169.506-.38.703-.62.306-.37.523-.857.554-1.3.03-.441-.023-.868-.078-1.05zm-30.66 1.804c-.02-.053-.097-.045-.107.012-.028.17-.127.663-.114.696.014.032.308-.002.404-.021.014-.003.024-.122.006-.177-.038-.12-.125-.348-.188-.51zm2.804-3.057c-.318.169-.63.351-.945.525-.125.068-.131.134-.022.226.25.21.5.424.746.64.094.082.135.039.156-.058l.254-1.162c.01-.207-.042-.25-.19-.171zm-1.142 1.09a.713.713 0 0 0-.296-.032c-.415.052-1.211.851-1.156 1.27.022.172.166.908.432 1.277.223.31.602.377.886.122.785-.706.896-1.447.914-1.5-.005-.418-.442-1.03-.78-1.137zm2.808 2.588c0-.193.01-.387-.003-.579a1.213 1.213 0 0 0-.862-1.102c-.366-.114-.64.008-.738.373-.176.655-.304 1.319-.219 2.005.047.376.238.555.61.514a7.83 7.83 0 0 0 .859-.16c.223-.05.345-.204.352-.438.006-.204.001-.408.001-.613zm-2.06-7.282a.46.46 0 0 0-.47.315 1.03 1.03 0 0 0 .564 1.357c.154.06.324.091.49.111.842.1 1.62-.169 2.391-.454.24-.088.361-.343.329-.61-.045-.368-.299-.612-.713-.645-.514-.04-2.243-.07-2.591-.074zm-11.879 3.34c-.27.002-.32.069-.32.4a725.09 725.09 0 0 0 0 3.382c0 .34.036.376.364.377.73.003 1.462-.008 2.192.007.226.004.311-.08.356-.291.267-1.271.78-2.44 1.458-3.538.058-.094.11-.192.194-.339-1.458 0-2.851-.002-4.244.003zm9.287-3.789c.047.361.141.415.494.375a91.57 91.57 0 0 1 1.97-.204c.414-.038.83-.044 1.242-.084.353-.035.467-.142.519-.47.151-.952.118-1.903-.033-2.85-.058-.366-.257-.537-.62-.546-.898-.024-1.793.012-2.68.177-.539.1-.734.279-.826.827-.086.514-.119 2.371-.066 2.775zM7.08 14.667c.174.003.233-.071.253-.233.03-.26.072-.518.12-.775.185-.99.78-1.59 1.74-1.807a5.2 5.2 0 0 1 1.033-.123c1.117-.025.858.107 1.616-.77a20.56 20.56 0 0 1 6.092-4.825c.353-.185.46-.396.422-.775-.084-.836-.139-1.676-.205-2.515-.033-.423-.034-.427-.414-.253-5.22 2.392-9.157 6.163-11.83 11.294-.124.239-.234.486-.373.779.559 0 1.052-.007 1.546.003zm41.16 13.42c0 .366.002.366.371.367h1.82c.134 0 .269-.01.404-.012.993-.02 1.562-.598 1.563-1.6.002-3.13.002-6.26-.002-9.389a3.02 3.02 0 0 0-.059-.575c-.127-.647-.58-1.055-1.23-1.12a3.91 3.91 0 0 0-.37-.012c-.719-.001-1.438-.001-2.156 0-.34 0-.34.001-.34.36v11.982zM7.404 16.172c0-.387-.046-.43-.428-.433-.707-.005-1.414-.013-2.12-.01-.167 0-.339.017-.499.062-.75.211-1.177.838-1.173 1.702.005 1.046.015 2.093.016 3.14.002 2.104-.003 4.208.002 6.313.002.867.601 1.499 1.445 1.518.797.018 1.594.015 2.391.016.285 0 .353-.074.366-.364.004-.09.001-.182.001-.273V22.11v-5.938zm12.912 3.308c.094-.11.19-.216.282-.328.271-.334.53-.678.813-1.002.483-.554 1.046-.991 1.77-1.186.562-.15.568-.17.504-.75l-.013-.1c-.216-1.508-.443-3.014-.644-4.524-.372-2.805-.724-5.613-1.096-8.419-.11-.824-.311-1.632-.67-2.384a1.722 1.722 0 0 0-.465-.607c-.335-.26-.72-.21-1.08-.019-.358.19-.56.497-.544.91.042 1.205.075 2.41.154 3.613.129 1.975.31 3.946.434 5.92.135 2.122.23 4.247.342 6.37.044.828.084 1.656.126 2.485l.087.02zM22.759.968c-.194.016-.237.107-.2.293.184.89.356 1.783.535 2.674.056.283.078.29.354.245.576-.094 1.15-.197 1.728-.27a19.59 19.59 0 0 1 5.073.034c1.73.233 3.412.67 5.031 1.335.183.076.264.05.361-.134.168-.32.346-.645.58-.915.577-.672 1.318-.917 2.184-.73.86.186 1.353.758 1.583 1.59.048.173.085.356.09.536.017.613.03 1.227.019 1.84-.007.353.072.618.37.852a20.113 20.113 0 0 1 3.136 3.086c.18.219.377.331.665.318.392-.017.786-.013 1.179.004 1.229.053 2.085.796 2.331 2.017.048.234.087.471.103.709.013.195.1.239.278.242.421.007 1.336.013 1.557 0-.087-.214-.24-.478-.345-.682-1.21-2.331-2.698-4.46-4.536-6.328-1.904-1.936-4.046-3.56-6.506-4.68C32.496.345 27.479.573 22.759.967zm18.857 28.715c0 .125-.002.25.006.376.048.788.52 1.302 1.296 1.34.806.04 1.616.055 2.423.037.807-.018 1.318-.46 1.46-1.202.034-.177.028-.362.028-.544 0-4.825-.003-9.65-.005-14.475 0-.353.015-.706-.004-1.058-.039-.718-.53-1.335-1.147-1.356a37.43 37.43 0 0 0-2.894.012c-.543.023-.915.368-1.058.904-.073.27-.1.56-.1.842-.008 2.526-.005 5.053-.005 7.58v7.544zM8.39 28.472c0 .523-.005 1.047.001 1.57.01.8.619 1.392 1.404 1.375.135-.003.27-.02.404-.017.572.011 1.144.016 1.716.044.9.045 1.538-.463 1.676-1.365.026-.167.04-.339.04-.509-.005-1.923-.017-3.846-.02-5.769-.003-3.061 0-6.123-.002-9.185 0-.215-.007-.433-.037-.646-.093-.667-.53-1.129-1.18-1.15a37.925 37.925 0 0 0-2.827.014c-.64.027-1.011.413-1.135 1.062a2.59 2.59 0 0 0-.038.475c-.003 2.583-.002 5.167-.002 7.75v6.351zm20.934-4.345c.016.062.107.066.122.004.387-1.588 1.947-6.206 2.284-7.301.055-.176.304-.15.22.123-.475 1.53-1.88 6.137-2.135 7.082-.01.027-.002.061-.002.094.044.007.077.016.11.016 3.471 0 6.943.002 10.414 0 .265 0 .269-.005.27-.294.002-.786 0-1.571 0-2.357 0-.41-.004-.82.002-1.23.003-.158 0-.22-.213-.22H31.69c.107-.32.206-.596.289-.876.053-.18.145-.248.336-.243.232.005 3.096.028 4.416.028.53 0 .53 0 .604-.515l.017-.101c.31-1.745.623-3.49.928-5.234.345-1.972.666-3.947.835-5.943.051-.602.042-1.206-.113-1.797-.167-.64-.597-.95-1.244-.893-.346.031-.604.217-.815.49-.407.527-.58 1.146-.708 1.786-.708 3.52-1.512 7.016-2.506 10.466-.05.173-.056.468-.268.44-.166-.022-.183-.303-.181-.503.004-.478-.003-.956.002-1.434.004-.408-.177-.69-.532-.874-.885-.46-1.82-.707-2.818-.682-.375.009-.506.09-.63.441-.126.353-.237.711-.346 1.07-.176.58-.244.656.418.693.855.047 1.153.64 1.054 1.408-.073.563-.401.995-.873 1.297-.436.279-.89.53-1.339.787-.213.121-.389.268-.452.521-.09.365-.18.73-.276 1.094-.04.155.04.317.188.375.157.06.315.117.472.177.573.218.925.619 1.024 1.242.033.209.091.635.15.863zm.96 6.172c-.023.17-.234.153-.228-.019a14.657 14.657 0 0 0-.029-1.245c-.053-.557-.263-.863-.632-1.285-.1-.113-.28-.257-.15-.384.117-.114.289.041.407.147.266.24.53.68.632 1.112.103.433.066 1.196 0 1.674zm-3.652 6.92c-.144-.042-.071-.29.079-.28h.003c1.67.484 2.816-2.284 3.204-5.154.015-.11.164-.064.171.046.04.57-.82 6.147-3.457 5.387zm3.524 6.365l.258 2.415-2.222-1.037-2.259 1.042.256-2.422-1.614-1.794 2.413-.523 1.17-2.06 1.194 2.048 2.436.532-1.632 1.799zM29.5 18.685c.08-.052.026-.178-.066-.154-.17.045-1.829.499-2.49.274-.716-.244-1.134-.772-1.055-1.52.031-.32-.062-.453-.492-.43-.426.022-1.137.25-1.708.368-.764.156-1.428.5-1.933 1.099-.934 1.108-1.833 2.247-2.49 3.555-1.196 2.378-1.359 4.806-.307 7.286.322.758.648 1.514.963 2.275.659 1.594 1.347 3.176 1.974 4.783.558 1.431.82 2.925.788 4.471-.021 1.07-.004 2.14-.004 3.21 0 .502-.003 1.003.001 1.504.001.168-.038.218-.216.155-.434-.152-.878-.275-1.316-.418a20.877 20.877 0 0 1-5.419-2.692c-2.334-1.62-4.234-3.661-5.774-6.044a20.751 20.751 0 0 1-2.586-5.827c-.072-.263-.153-.523-.231-.784-.051-.169-.15-.273-.339-.271-.302.002-.605-.011-.908-.006-.65.012-1.302.042-1.944-.113-.41-.099-.416-.097-.342.33.5 2.874 1.453 5.58 2.946 8.079 2.562 4.288 6.029 7.584 10.512 9.74 2.89 1.388 5.936 2.21 9.134 2.402 2.093.125 4.172-.02 6.231-.457 2.906-.616 5.643-1.662 8.153-3.277 4.047-2.604 7.094-6.119 9.172-10.49.931-1.959 1.536-4.025 1.87-6.172.037-.234.026-.23-.187-.204-.467.056-.934.119-1.403.138-.56.023-1.123-.007-1.684.006-.368.008-.366.025-.457.384-.953 3.77-2.709 7.09-5.4 9.885a20.824 20.824 0 0 1-6.856 4.736c-.7.3-1.419.558-2.185.857v-.438c0-1.817.002-3.635-.002-5.453 0-.414-.015-1.092-.032-1.505-.02-.49-.065-.492-.527-.424-.422.061-1.024.115-1.243.123a1.153 1.153 0 0 1-.436-.044.12.12 0 0 1-.04-.023c-.1-.085-.062-.25.058-.3a.244.244 0 0 1 .02-.007c.094-.03.213-.007.314-.014.39-.03.776-.038 1.155-.121.914-.201 1.563-.773 1.974-1.614a15.076 15.076 0 0 0 1.33-4.172c.318-1.918.59-3.844.718-5.787.024-.357.029-.358-.327-.358-2.337-.001-4.675 0-7.012-.002-.33 0-.647.048-.95.185a2.443 2.443 0 0 1-.382.134c-.4.105-.773.063-1.121-.19a.74.74 0 0 0-.401-.122c-.674-.012-1.349-.006-2.023-.006a.581.581 0 0 0-.575.543c-.069.918-.657 1.434-1.357 1.88-.253.124-.38-.071-.244-.17.862-.619 1.135-.99 1.215-1.638.086-.7.195-1.396.261-2.097.081-.856.354-1.609.964-2.232a6.87 6.87 0 0 1 2.051-1.468c.563-.258 1.134-.496 1.69-.77.197-.097.638-.374.97-.588zM.087 21.405c.204-.678.56-1.24 1.207-1.567.256-.13.287-.11.287.175.002 1.389.002 2.778 0 4.167 0 .278-.082.346-.315.195a3.11 3.11 0 0 1-.704-.62c-.305-.371-.522-.857-.553-1.3-.031-.441.023-.869.078-1.05z"/>
</svg>
