<svg xmlns="http://www.w3.org/2000/svg" width="35" height="35" viewBox="0 0 35 35">
    <g fill="none" fill-rule="nonzero">
        <circle cx="17.5" cy="17.5" r="17.5" fill="#E31377"/>
        <path fill="#FFF" d="M13.8 22.8c-.88 0-1.592.72-1.592 1.6 0 .88.712 1.6 1.592 1.6.88 0 1.6-.72 1.6-1.6 0-.88-.72-1.6-1.6-1.6zM9 10v1.6h1.6l2.88 6.072-1.08 1.96c-.128.224-.2.488-.2.768 0 .88.72 1.6 1.6 1.6h9.6v-1.6h-9.264a.198.198 0 0 1-.2-.2l.024-.096.72-1.304h5.96c.6 0 1.128-.328 1.4-.824l2.864-5.192A.802.802 0 0 0 24.2 11.6H12.368l-.752-1.6H9zm12.8 12.8c-.88 0-1.592.72-1.592 1.6 0 .88.712 1.6 1.592 1.6.88 0 1.6-.72 1.6-1.6 0-.88-.72-1.6-1.6-1.6z"/>
    </g>
</svg>
