<svg xmlns="http://www.w3.org/2000/svg" xmlns:xlink="http://www.w3.org/1999/xlink" width="768" height="390" viewBox="0 0 768 390">
    <defs>
        <path id="a" d="M0 0h768v390H0z"/>
        <path id="c" d="M46.423 40.124L.063 325.868l173.835 57.073V.569"/>
        <path id="d" d="M46.423 40.124L.063 325.868l173.835 57.073V.569"/>
        <path id="e" d="M46.423 40.124L.063 325.868l173.835 57.073V.569"/>
        <path id="f" d="M46.423 40.124L.063 325.868l173.835 57.073V.569"/>
        <path id="g" d="M46.423 40.124L.063 325.868l173.835 57.073V.569"/>
        <path id="h" d="M46.423 40.124L.063 325.868l173.835 57.073V.569"/>
        <path id="i" d="M46.423 40.124L.063 325.868l173.835 57.073V.569"/>
        <path id="j" d="M46.423 40.124L.063 325.868l173.835 57.073V.569"/>
        <path id="k" d="M46.423 40.124L.063 325.868l173.835 57.073V.569"/>
        <path id="l" d="M46.423 40.124L.063 325.868l173.835 57.073V.569"/>
        <path id="m" d="M46.423 40.124L.063 325.868l173.835 57.073V.569"/>
        <path id="n" d="M46.423 40.124L.063 325.868l173.835 57.073V.569"/>
        <path id="o" d="M46.423 40.124L.063 325.868l173.835 57.073V.569"/>
        <path id="p" d="M46.423 40.124L.063 325.868l173.835 57.073V.569"/>
        <path id="q" d="M46.423 40.124L.063 325.868l173.835 57.073V.569"/>
        <path id="r" d="M46.423 40.124L.063 325.868l173.835 57.073V.569"/>
        <path id="t" d="M46.423 40.124L.063 325.868l173.835 57.073V.569"/>
        <path id="v" d="M46.423 40.124L.063 325.868l173.835 57.073V.569"/>
        <path id="x" d="M46.423 40.124L.063 325.868l173.835 57.073V.569"/>
        <path id="z" d="M46.423 40.124L.063 325.868l173.835 57.073V.569"/>
        <path id="B" d="M46.423 40.124L.063 325.868l173.835 57.073V.569"/>
        <path id="D" d="M46.423 40.124L.063 325.868l173.835 57.073V.569"/>
        <path id="F" d="M46.423 40.124L.063 325.868l173.835 57.073V.569"/>
        <path id="H" d="M46.423 40.124L.063 325.868l173.835 57.073V.569"/>
        <path id="J" d="M46.423 40.124L.063 325.868l173.835 57.073V.569"/>
        <path id="L" d="M46.423 40.124L.063 325.868l173.835 57.073V.569"/>
        <path id="N" d="M46.423 40.124L.063 325.868l173.835 57.073V.569"/>
        <path id="P" d="M46.423 40.124L.063 325.868l173.835 57.073V.569"/>
        <path id="R" d="M46.423 40.124L.063 325.868l173.835 57.073V.569"/>
        <path id="T" d="M46.423 40.124L.063 325.868l173.835 57.073V.569"/>
        <path id="V" d="M46.423 40.124L.063 325.868l173.835 57.073V.569"/>
        <path id="X" d="M46.423 40.124L.063 325.868l173.835 57.073V.569"/>
        <path id="Z" d="M46.423 40.124L.063 325.868l173.835 57.073V.569"/>
        <path id="ab" d="M46.423 40.124L.063 325.868l173.835 57.073V.569"/>
        <path id="ad" d="M46.423 40.124L.063 325.868l173.835 57.073V.569"/>
        <path id="af" d="M46.423 40.124L.063 325.868l173.835 57.073V.569"/>
        <path id="ah" d="M46.423 40.124L.063 325.868l173.835 57.073V.569"/>
        <path id="aj" d="M46.423 40.124L.063 325.868l173.835 57.073V.569"/>
        <path id="al" d="M46.423 40.124L.063 325.868l173.835 57.073V.569"/>
        <path id="an" d="M46.423 40.124L.063 325.868l173.835 57.073V.569"/>
        <path id="ap" d="M46.423 40.124L.063 325.868l173.835 57.073V.569"/>
        <path id="ar" d="M46.423 40.124L.063 325.868l173.835 57.073V.569"/>
        <path id="at" d="M46.423 40.124L.063 325.868l173.835 57.073V.569"/>
        <path id="au" d="M46.423 40.124L.063 325.868l173.835 57.073V.569"/>
        <path id="aw" d="M46.423 40.124L.063 325.868l173.835 57.073V.569"/>
        <path id="ay" d="M46.423 40.124L.063 325.868l173.835 57.073V.569"/>
        <path id="aA" d="M46.423 40.124L.063 325.868l173.835 57.073V.569"/>
        <path id="aC" d="M46.423 40.124L.063 325.868l173.835 57.073V.569"/>
        <path id="aE" d="M46.423 40.124L.063 325.868l173.835 57.073V.569"/>
        <path id="aG" d="M46.423 40.124L.063 325.868l173.835 57.073V.569"/>
        <path id="aI" d="M46.423 40.124L.063 325.868l173.835 57.073V.569"/>
        <path id="aK" d="M46.423 40.124L.063 325.868l173.835 57.073V.569"/>
        <path id="aM" d="M46.423 40.124L.063 325.868l173.835 57.073V.569"/>
        <path id="aO" d="M46.423 40.124L.063 325.868l173.835 57.073V.569"/>
        <path id="aQ" d="M46.423 40.124L.063 325.868l173.835 57.073V.569"/>
        <path id="aS" d="M46.423 40.124L.063 325.868l173.835 57.073V.569"/>
        <path id="aU" d="M46.423 40.124L.063 325.868l173.835 57.073V.569"/>
        <path id="aW" d="M46.423 40.124L.063 325.868l173.835 57.073V.569"/>
        <path id="aY" d="M46.423 40.124L.063 325.868l173.835 57.073V.569"/>
        <path id="ba" d="M46.423 40.124L.063 325.868l173.835 57.073V.569"/>
        <path id="bc" d="M46.423 40.124L.063 325.868l173.835 57.073V.569"/>
        <path id="be" d="M46.423 40.124L.063 325.868l173.835 57.073V.569"/>
        <path id="bg" d="M46.423 40.124L.063 325.868l173.835 57.073V.569"/>
        <path id="bi" d="M46.423 40.124L.063 325.868l173.835 57.073V.569"/>
        <path id="bk" d="M46.423 40.124L.063 325.868l173.835 57.073V.569"/>
        <path id="bm" d="M46.423 40.124L.063 325.868l173.835 57.073V.569"/>
        <path id="bo" d="M46.423 40.124L.063 325.868l173.835 57.073V.569"/>
        <path id="bq" d="M46.423 40.124L.063 325.868l173.835 57.073V.569"/>
        <path id="bs" d="M46.423 40.124L.063 325.868l173.835 57.073V.569"/>
        <path id="bu" d="M46.423 40.124L.063 325.868l173.835 57.073V.569"/>
        <path id="bw" d="M46.423 40.124L.063 325.868l173.835 57.073V.569"/>
        <path id="bx" d="M46.423 40.124L.063 325.868l173.835 57.073V.569"/>
        <path id="bz" d="M46.423 40.124L.063 325.868l173.835 57.073V.569"/>
        <path id="bB" d="M46.423 40.124L.063 325.868l173.835 57.073V.569"/>
        <path id="bD" d="M46.423 40.124L.063 325.868l173.835 57.073V.569"/>
        <path id="bF" d="M46.423 40.124L.063 325.868l173.835 57.073V.569"/>
        <path id="bH" d="M46.423 40.124L.063 325.868l173.835 57.073V.569"/>
        <path id="bJ" d="M46.423 40.124L.063 325.868l173.835 57.073V.569"/>
        <path id="bL" d="M46.423 40.124L.063 325.868l173.835 57.073V.569"/>
        <path id="bN" d="M46.423 40.124L.063 325.868l173.835 57.073V.569"/>
        <path id="bP" d="M46.423 40.124L.063 325.868l173.835 57.073V.569"/>
        <path id="bR" d="M46.423 40.124L.063 325.868l173.835 57.073V.569"/>
        <path id="bT" d="M46.423 40.124L.063 325.868l173.835 57.073V.569"/>
        <path id="bV" d="M46.423 40.124L.063 325.868l173.835 57.073V.569"/>
        <path id="bX" d="M46.423 40.124L.063 325.868l173.835 57.073V.569"/>
        <path id="bZ" d="M46.423 40.124L.063 325.868l173.835 57.073V.569"/>
        <path id="cb" d="M46.423 40.124L.063 325.868l173.835 57.073V.569"/>
        <path id="cd" d="M46.423 40.124L.063 325.868l173.835 57.073V.569"/>
        <path id="cf" d="M46.423 40.124L.063 325.868l173.835 57.073V.569"/>
        <path id="ch" d="M46.423 40.124L.063 325.868l173.835 57.073V.569"/>
        <path id="cj" d="M46.423 40.124L.063 325.868l173.835 57.073V.569"/>
        <path id="cl" d="M46.423 40.124L.063 325.868l173.835 57.073V.569"/>
        <path id="cn" d="M46.423 40.124L.063 325.868l173.835 57.073V.569"/>
        <path id="cp" d="M46.423 40.124L.063 325.868l173.835 57.073V.569"/>
        <path id="cr" d="M46.423 40.124L.063 325.868l173.835 57.073V.569"/>
        <path id="ct" d="M46.423 40.124L.063 325.868l173.835 57.073V.569"/>
        <path id="cv" d="M46.423 40.124L.063 325.868l173.835 57.073V.569"/>
        <path id="cx" d="M46.423 40.124L.063 325.868l173.835 57.073V.569"/>
        <path id="cz" d="M46.423 40.124L.063 325.868l173.835 57.073V.569"/>
        <path id="cA" d="M46.423 40.124L.063 325.868l173.835 57.073V.569"/>
        <path id="cC" d="M46.423 40.124L.063 325.868l173.835 57.073V.569"/>
        <path id="cE" d="M46.423 40.124L.063 325.868l173.835 57.073V.569"/>
        <path id="cG" d="M46.423 40.124L.063 325.868l173.835 57.073V.569"/>
        <path id="cI" d="M46.423 40.124L.063 325.868l173.835 57.073V.569"/>
        <path id="cK" d="M46.423 40.124L.063 325.868l173.835 57.073V.569"/>
        <path id="cM" d="M46.423 40.124L.063 325.868l173.835 57.073V.569"/>
        <path id="cO" d="M46.423 40.124L.063 325.868l173.835 57.073V.569"/>
        <path id="cQ" d="M46.423 40.124L.063 325.868l173.835 57.073V.569"/>
        <path id="cS" d="M46.423 40.124L.063 325.868l173.835 57.073V.569"/>
        <path id="cU" d="M46.423 40.124L.063 325.868l173.835 57.073V.569"/>
        <path id="cW" d="M46.423 40.124L.063 325.868l173.835 57.073V.569"/>
        <path id="cY" d="M46.423 40.124L.063 325.868l173.835 57.073V.569"/>
        <path id="da" d="M46.423 40.124L.063 325.868l173.835 57.073V.569"/>
        <path id="dc" d="M46.423 40.124L.063 325.868l173.835 57.073V.569"/>
        <path id="de" d="M46.423 40.124L.063 325.868l173.835 57.073V.569"/>
        <path id="dg" d="M46.423 40.124L.063 325.868l173.835 57.073V.569"/>
        <path id="di" d="M46.423 40.124L.063 325.868l173.835 57.073V.569"/>
        <path id="dk" d="M46.423 40.124L.063 325.868l173.835 57.073V.569"/>
        <path id="dm" d="M46.423 40.124L.063 325.868l173.835 57.073V.569"/>
        <path id="do" d="M46.423 40.124L.063 325.868l173.835 57.073V.569"/>
        <path id="dq" d="M46.423 40.124L.063 325.868l173.835 57.073V.569"/>
        <path id="ds" d="M46.423 40.124L.063 325.868l173.835 57.073V.569"/>
        <path id="du" d="M46.423 40.124L.063 325.868l173.835 57.073V.569"/>
        <path id="dw" d="M46.423 40.124L.063 325.868l173.835 57.073V.569"/>
        <path id="dy" d="M46.423 40.124L.063 325.868l173.835 57.073V.569"/>
        <path id="dA" d="M46.423 40.124L.063 325.868l173.835 57.073V.569"/>
        <path id="dC" d="M46.423 40.124L.063 325.868l173.835 57.073V.569"/>
        <path id="dD" d="M46.423 40.124L.063 325.868l173.835 57.073V.569"/>
        <path id="dF" d="M46.423 40.124L.063 325.868l173.835 57.073V.569"/>
        <path id="dH" d="M46.423 40.124L.063 325.868l173.835 57.073V.569"/>
        <path id="dJ" d="M46.423 40.124L.063 325.868l173.835 57.073V.569"/>
        <path id="dL" d="M46.423 40.124L.063 325.868l173.835 57.073V.569"/>
        <path id="dN" d="M46.423 40.124L.063 325.868l173.835 57.073V.569"/>
        <path id="dP" d="M46.423 40.124L.063 325.868l173.835 57.073V.569"/>
        <path id="dR" d="M46.423 40.124L.063 325.868l173.835 57.073V.569"/>
        <path id="dT" d="M46.423 40.124L.063 325.868l173.835 57.073V.569"/>
        <path id="dV" d="M46.423 40.124L.063 325.868l173.835 57.073V.569"/>
        <path id="dX" d="M46.423 40.124L.063 325.868l173.835 57.073V.569"/>
        <path id="dZ" d="M46.423 40.124L.063 325.868l173.835 57.073V.569"/>
        <path id="eb" d="M46.423 40.124L.063 325.868l173.835 57.073V.569"/>
        <path id="ed" d="M46.423 40.124L.063 325.868l173.835 57.073V.569"/>
        <path id="ef" d="M46.423 40.124L.063 325.868l173.835 57.073V.569"/>
        <path id="eh" d="M46.423 40.124L.063 325.868l173.835 57.073V.569"/>
        <path id="ej" d="M46.423 40.124L.063 325.868l173.835 57.073V.569"/>
        <path id="el" d="M46.423 40.124L.063 325.868l173.835 57.073V.569"/>
        <path id="en" d="M46.423 40.124L.063 325.868l173.835 57.073V.569"/>
        <path id="ep" d="M46.423 40.124L.063 325.868l173.835 57.073V.569"/>
        <path id="er" d="M46.423 40.124L.063 325.868l173.835 57.073V.569"/>
        <path id="et" d="M46.423 40.124L.063 325.868l173.835 57.073V.569"/>
        <path id="ev" d="M46.423 40.124L.063 325.868l173.835 57.073V.569"/>
        <path id="ex" d="M46.423 40.124L.063 325.868l173.835 57.073V.569"/>
        <path id="ez" d="M46.423 40.124L.063 325.868l173.835 57.073V.569"/>
        <path id="eB" d="M46.423 40.124L.063 325.868l173.835 57.073V.569"/>
        <path id="eD" d="M46.423 40.124L.063 325.868l173.835 57.073V.569"/>
        <path id="eF" d="M46.423 40.124L.063 325.868l173.835 57.073V.569"/>
        <path id="eG" d="M46.423 40.124L.063 325.868l173.835 57.073V.569"/>
        <path id="eI" d="M46.423 40.124L.063 325.868l173.835 57.073V.569"/>
        <path id="eK" d="M46.423 40.124L.063 325.868l173.835 57.073V.569"/>
        <path id="eM" d="M46.423 40.124L.063 325.868l173.835 57.073V.569"/>
        <path id="eO" d="M46.423 40.124L.063 325.868l173.835 57.073V.569"/>
        <path id="eQ" d="M46.423 40.124L.063 325.868l173.835 57.073V.569"/>
        <path id="eS" d="M46.423 40.124L.063 325.868l173.835 57.073V.569"/>
        <path id="eU" d="M46.423 40.124L.063 325.868l173.835 57.073V.569"/>
        <path id="eW" d="M46.423 40.124L.063 325.868l173.835 57.073V.569"/>
        <path id="eY" d="M46.423 40.124L.063 325.868l173.835 57.073V.569"/>
        <path id="fa" d="M46.423 40.124L.063 325.868l173.835 57.073V.569"/>
        <path id="fc" d="M46.423 40.124L.063 325.868l173.835 57.073V.569"/>
        <path id="fe" d="M46.423 40.124L.063 325.868l173.835 57.073V.569"/>
        <path id="fg" d="M46.423 40.124L.063 325.868l173.835 57.073V.569"/>
        <path id="fi" d="M46.423 40.124L.063 325.868l173.835 57.073V.569"/>
        <path id="fk" d="M46.423 40.124L.063 325.868l173.835 57.073V.569"/>
        <path id="fm" d="M46.423 40.124L.063 325.868l173.835 57.073V.569"/>
        <path id="fo" d="M46.423 40.124L.063 325.868l173.835 57.073V.569"/>
        <path id="fq" d="M46.423 40.124L.063 325.868l173.835 57.073V.569"/>
        <path id="fs" d="M46.423 40.124L.063 325.868l173.835 57.073V.569"/>
        <path id="fu" d="M46.423 40.124L.063 325.868l173.835 57.073V.569"/>
        <path id="fw" d="M46.423 40.124L.063 325.868l173.835 57.073V.569"/>
        <path id="fy" d="M46.423 40.124L.063 325.868l173.835 57.073V.569"/>
        <path id="fA" d="M46.423 40.124L.063 325.868l173.835 57.073V.569"/>
        <path id="fC" d="M46.423 40.124L.063 325.868l173.835 57.073V.569"/>
        <path id="fE" d="M46.423 40.124L.063 325.868l173.835 57.073V.569"/>
        <path id="fG" d="M46.423 40.124L.063 325.868l173.835 57.073V.569"/>
        <path id="fI" d="M46.423 40.124L.063 325.868l173.835 57.073V.569"/>
        <path id="fJ" d="M46.423 40.124L.063 325.868l173.835 57.073V.569"/>
        <path id="fL" d="M46.423 40.124L.063 325.868l173.835 57.073V.569"/>
        <path id="fN" d="M46.423 40.124L.063 325.868l173.835 57.073V.569"/>
        <path id="fP" d="M46.423 40.124L.063 325.868l173.835 57.073V.569"/>
        <path id="fR" d="M46.423 40.124L.063 325.868l173.835 57.073V.569"/>
        <path id="fT" d="M46.423 40.124L.063 325.868l173.835 57.073V.569"/>
        <path id="fV" d="M46.423 40.124L.063 325.868l173.835 57.073V.569"/>
        <path id="fX" d="M46.423 40.124L.063 325.868l173.835 57.073V.569"/>
        <path id="fZ" d="M46.423 40.124L.063 325.868l173.835 57.073V.569"/>
        <path id="gb" d="M46.423 40.124L.063 325.868l173.835 57.073V.569"/>
        <path id="gd" d="M46.423 40.124L.063 325.868l173.835 57.073V.569"/>
        <path id="gf" d="M46.423 40.124L.063 325.868l173.835 57.073V.569"/>
        <path id="gh" d="M46.423 40.124L.063 325.868l173.835 57.073V.569"/>
        <path id="gj" d="M46.423 40.124L.063 325.868l173.835 57.073V.569"/>
        <path id="gl" d="M46.423 40.124L.063 325.868l173.835 57.073V.569"/>
        <path id="gn" d="M46.423 40.124L.063 325.868l173.835 57.073V.569"/>
        <path id="gp" d="M46.423 40.124L.063 325.868l173.835 57.073V.569"/>
        <path id="gr" d="M46.423 40.124L.063 325.868l173.835 57.073V.569"/>
        <path id="gt" d="M46.423 40.124L.063 325.868l173.835 57.073V.569"/>
        <path id="gv" d="M46.423 40.124L.063 325.868l173.835 57.073V.569"/>
        <path id="gx" d="M46.423 40.124L.063 325.868l173.835 57.073V.569"/>
        <path id="gz" d="M46.423 40.124L.063 325.868l173.835 57.073V.569"/>
        <path id="gB" d="M46.423 40.124L.063 325.868l173.835 57.073V.569"/>
        <path id="gD" d="M46.423 40.124L.063 325.868l173.835 57.073V.569"/>
        <path id="gF" d="M46.423 40.124L.063 325.868l173.835 57.073V.569"/>
        <path id="gH" d="M46.423 40.124L.063 325.868l173.835 57.073V.569"/>
        <path id="gJ" d="M46.423 40.124L.063 325.868l173.835 57.073V.569"/>
    </defs>
    <g fill="none" fill-rule="evenodd">
        <mask id="b" fill="#fff">
            <use xlink:href="#a"/>
        </mask>
        <use fill="#E1FA61" fill-rule="nonzero" xlink:href="#a"/>
        <circle cx="671" cy="410" r="107" fill-rule="nonzero" stroke="#FFF" stroke-width="22" mask="url(#b)"/>
        <g mask="url(#b)">
            <g transform="matrix(0 -1 -1 0 364.5 154.5)">
                <mask id="s" fill="#fff">
                    <use xlink:href="#r"/>
                </mask>
                <path fill="#FFF" d="M162.275 355.638c0 2.8-2.277 5.08-5.083 5.08a5.084 5.084 0 0 1-5.075-5.08c0-2.816 2.278-5.097 5.075-5.097a5.09 5.09 0 0 1 5.083 5.097" mask="url(#s)"/>
            </g>
            <g transform="matrix(0 -1 -1 0 364.5 154.5)">
                <mask id="u" fill="#fff">
                    <use xlink:href="#t"/>
                </mask>
                <path fill="#FFF" d="M162.275 327.675c0 2.799-2.277 5.08-5.083 5.08a5.085 5.085 0 0 1-5.075-5.08c0-2.817 2.278-5.097 5.075-5.097a5.09 5.09 0 0 1 5.083 5.097" mask="url(#u)"/>
            </g>
            <g transform="matrix(0 -1 -1 0 364.5 154.5)">
                <mask id="w" fill="#fff">
                    <use xlink:href="#v"/>
                </mask>
                <path fill="#FFF" d="M162.275 299.712c0 2.799-2.277 5.08-5.083 5.08a5.085 5.085 0 0 1-5.075-5.08c0-2.818 2.278-5.097 5.075-5.097a5.09 5.09 0 0 1 5.083 5.097" mask="url(#w)"/>
            </g>
            <g transform="matrix(0 -1 -1 0 364.5 154.5)">
                <mask id="y" fill="#fff">
                    <use xlink:href="#x"/>
                </mask>
                <path fill="#FFF" d="M162.275 271.731a5.09 5.09 0 0 1-5.083 5.096c-2.797 0-5.075-2.28-5.075-5.096 0-2.8 2.278-5.08 5.075-5.08a5.086 5.086 0 0 1 5.083 5.08" mask="url(#y)"/>
            </g>
            <g transform="matrix(0 -1 -1 0 364.5 154.5)">
                <mask id="A" fill="#fff">
                    <use xlink:href="#z"/>
                </mask>
                <path fill="#FFF" d="M162.275 243.768a5.09 5.09 0 0 1-5.083 5.096c-2.797 0-5.075-2.28-5.075-5.096 0-2.8 2.278-5.08 5.075-5.08a5.086 5.086 0 0 1 5.083 5.08" mask="url(#A)"/>
            </g>
            <g transform="matrix(0 -1 -1 0 364.5 154.5)">
                <mask id="C" fill="#fff">
                    <use xlink:href="#B"/>
                </mask>
                <path fill="#FFF" d="M162.275 215.805a5.09 5.09 0 0 1-5.083 5.096c-2.797 0-5.075-2.28-5.075-5.096 0-2.8 2.278-5.08 5.075-5.08a5.086 5.086 0 0 1 5.083 5.08" mask="url(#C)"/>
            </g>
            <g transform="matrix(0 -1 -1 0 364.5 154.5)">
                <mask id="E" fill="#fff">
                    <use xlink:href="#D"/>
                </mask>
                <path fill="#FFF" d="M162.275 187.842a5.09 5.09 0 0 1-5.083 5.095c-2.797 0-5.075-2.28-5.075-5.095 0-2.8 2.278-5.08 5.075-5.08a5.086 5.086 0 0 1 5.083 5.08" mask="url(#E)"/>
            </g>
            <g transform="matrix(0 -1 -1 0 364.5 154.5)">
                <mask id="G" fill="#fff">
                    <use xlink:href="#F"/>
                </mask>
                <path fill="#FFF" d="M162.275 159.877a5.09 5.09 0 0 1-5.083 5.098c-2.797 0-5.075-2.28-5.075-5.098 0-2.799 2.278-5.079 5.075-5.079a5.087 5.087 0 0 1 5.083 5.08" mask="url(#G)"/>
            </g>
            <g transform="matrix(0 -1 -1 0 364.5 154.5)">
                <mask id="I" fill="#fff">
                    <use xlink:href="#H"/>
                </mask>
                <path fill="#FFF" d="M162.275 131.914a5.075 5.075 0 0 1-5.083 5.08 5.073 5.073 0 0 1-5.075-5.08c0-2.799 2.278-5.08 5.075-5.08a5.087 5.087 0 0 1 5.083 5.08" mask="url(#I)"/>
            </g>
            <g transform="matrix(0 -1 -1 0 364.5 154.5)">
                <mask id="K" fill="#fff">
                    <use xlink:href="#J"/>
                </mask>
                <path fill="#FFF" d="M162.275 103.951a5.076 5.076 0 0 1-5.083 5.08 5.074 5.074 0 0 1-5.075-5.08 5.074 5.074 0 0 1 5.075-5.08 5.076 5.076 0 0 1 5.083 5.08" mask="url(#K)"/>
            </g>
            <g transform="matrix(0 -1 -1 0 364.5 154.5)">
                <mask id="M" fill="#fff">
                    <use xlink:href="#L"/>
                </mask>
                <path fill="#FFF" d="M162.275 75.988a5.076 5.076 0 0 1-5.083 5.08 5.074 5.074 0 0 1-5.075-5.08 5.074 5.074 0 0 1 5.075-5.08 5.076 5.076 0 0 1 5.083 5.08" mask="url(#M)"/>
            </g>
            <g transform="matrix(0 -1 -1 0 364.5 154.5)">
                <mask id="O" fill="#fff">
                    <use xlink:href="#N"/>
                </mask>
                <path fill="#FFF" d="M162.275 48.025a5.076 5.076 0 0 1-5.083 5.08 5.074 5.074 0 0 1-5.075-5.08 5.074 5.074 0 0 1 5.075-5.08 5.076 5.076 0 0 1 5.083 5.08" mask="url(#O)"/>
            </g>
            <g transform="matrix(0 -1 -1 0 364.5 154.5)">
                <mask id="Q" fill="#fff">
                    <use xlink:href="#P"/>
                </mask>
                <path fill="#FFF" d="M162.275 20.061a5.076 5.076 0 0 1-5.083 5.08 5.074 5.074 0 0 1-5.075-5.08 5.074 5.074 0 0 1 5.075-5.08 5.076 5.076 0 0 1 5.083 5.08" mask="url(#Q)"/>
            </g>
            <g transform="matrix(0 -1 -1 0 364.5 154.5)">
                <mask id="S" fill="#fff">
                    <use xlink:href="#R"/>
                </mask>
                <path fill="#FFF" d="M149.973 368.765c0 2.8-2.279 5.095-5.076 5.095-2.806 0-5.084-2.295-5.084-5.095s2.278-5.08 5.084-5.08a5.085 5.085 0 0 1 5.076 5.08" mask="url(#S)"/>
            </g>
            <g transform="matrix(0 -1 -1 0 364.5 154.5)">
                <mask id="U" fill="#fff">
                    <use xlink:href="#T"/>
                </mask>
                <path fill="#FFF" d="M149.973 340.801c0 2.8-2.279 5.096-5.076 5.096-2.806 0-5.084-2.296-5.084-5.096 0-2.8 2.278-5.08 5.084-5.08a5.085 5.085 0 0 1 5.076 5.08" mask="url(#U)"/>
            </g>
            <g transform="matrix(0 -1 -1 0 364.5 154.5)">
                <mask id="W" fill="#fff">
                    <use xlink:href="#V"/>
                </mask>
                <path fill="#FFF" d="M149.973 312.838c0 2.8-2.279 5.096-5.076 5.096-2.806 0-5.084-2.297-5.084-5.096 0-2.8 2.278-5.08 5.084-5.08a5.085 5.085 0 0 1 5.076 5.08" mask="url(#W)"/>
            </g>
            <g transform="matrix(0 -1 -1 0 364.5 154.5)">
                <mask id="Y" fill="#fff">
                    <use xlink:href="#X"/>
                </mask>
                <path fill="#FFF" d="M149.973 284.874c0 2.8-2.279 5.08-5.076 5.08a5.086 5.086 0 0 1-5.084-5.08c0-2.799 2.278-5.08 5.084-5.08a5.085 5.085 0 0 1 5.076 5.08" mask="url(#Y)"/>
            </g>
            <g transform="matrix(0 -1 -1 0 364.5 154.5)">
                <mask id="aa" fill="#fff">
                    <use xlink:href="#Z"/>
                </mask>
                <path fill="#FFF" d="M149.973 256.911c0 2.8-2.279 5.08-5.076 5.08a5.086 5.086 0 0 1-5.084-5.08 5.076 5.076 0 0 1 5.084-5.08 5.074 5.074 0 0 1 5.076 5.08" mask="url(#aa)"/>
            </g>
            <g transform="matrix(0 -1 -1 0 364.5 154.5)">
                <mask id="ac" fill="#fff">
                    <use xlink:href="#ab"/>
                </mask>
                <path fill="#FFF" d="M149.973 228.948c0 2.8-2.279 5.08-5.076 5.08a5.086 5.086 0 0 1-5.084-5.08 5.076 5.076 0 0 1 5.084-5.08 5.074 5.074 0 0 1 5.076 5.08" mask="url(#ac)"/>
            </g>
            <g transform="matrix(0 -1 -1 0 364.5 154.5)">
                <mask id="ae" fill="#fff">
                    <use xlink:href="#ad"/>
                </mask>
                <path fill="#FFF" d="M149.973 200.985c0 2.8-2.279 5.08-5.076 5.08a5.086 5.086 0 0 1-5.084-5.08 5.076 5.076 0 0 1 5.084-5.08 5.075 5.075 0 0 1 5.076 5.08" mask="url(#ae)"/>
            </g>
            <g transform="matrix(0 -1 -1 0 364.5 154.5)">
                <mask id="ag" fill="#fff">
                    <use xlink:href="#af"/>
                </mask>
                <path fill="#FFF" d="M149.973 173.021a5.074 5.074 0 0 1-5.076 5.08 5.076 5.076 0 0 1-5.084-5.08 5.076 5.076 0 0 1 5.084-5.08 5.075 5.075 0 0 1 5.076 5.08" mask="url(#ag)"/>
            </g>
            <g transform="matrix(0 -1 -1 0 364.5 154.5)">
                <mask id="ai" fill="#fff">
                    <use xlink:href="#ah"/>
                </mask>
                <path fill="#FFF" d="M149.973 145.058c0 2.8-2.279 5.08-5.076 5.08a5.086 5.086 0 0 1-5.084-5.08 5.076 5.076 0 0 1 5.084-5.08 5.074 5.074 0 0 1 5.076 5.08" mask="url(#ai)"/>
            </g>
            <g transform="matrix(0 -1 -1 0 364.5 154.5)">
                <mask id="ak" fill="#fff">
                    <use xlink:href="#aj"/>
                </mask>
                <path fill="#FFF" d="M149.973 117.095c0 2.799-2.279 5.08-5.076 5.08a5.087 5.087 0 0 1-5.084-5.08 5.09 5.09 0 0 1 5.084-5.097c2.797 0 5.076 2.28 5.076 5.097" mask="url(#ak)"/>
            </g>
            <g transform="matrix(0 -1 -1 0 364.5 154.5)">
                <mask id="am" fill="#fff">
                    <use xlink:href="#al"/>
                </mask>
                <path fill="#FFF" d="M149.973 89.132c0 2.799-2.279 5.08-5.076 5.08a5.087 5.087 0 0 1-5.084-5.08 5.09 5.09 0 0 1 5.084-5.097c2.797 0 5.076 2.28 5.076 5.097" mask="url(#am)"/>
            </g>
            <g transform="matrix(0 -1 -1 0 364.5 154.5)">
                <mask id="ao" fill="#fff">
                    <use xlink:href="#an"/>
                </mask>
                <path fill="#FFF" d="M149.973 61.168c0 2.8-2.279 5.08-5.076 5.08a5.086 5.086 0 0 1-5.084-5.08 5.09 5.09 0 0 1 5.084-5.096c2.797 0 5.076 2.28 5.076 5.096" mask="url(#ao)"/>
            </g>
            <g transform="matrix(0 -1 -1 0 364.5 154.5)">
                <mask id="aq" fill="#fff">
                    <use xlink:href="#ap"/>
                </mask>
                <path fill="#FFF" d="M149.973 33.205c0 2.8-2.279 5.079-5.076 5.079a5.086 5.086 0 0 1-5.084-5.08 5.09 5.09 0 0 1 5.084-5.095c2.797 0 5.076 2.28 5.076 5.096" mask="url(#aq)"/>
            </g>
            <g transform="matrix(0 -1 -1 0 364.5 154.5)">
                <mask id="as" fill="#fff">
                    <use xlink:href="#ar"/>
                </mask>
                <path fill="#FFF" d="M149.973 5.241c0 2.8-2.279 5.08-5.076 5.08a5.086 5.086 0 0 1-5.084-5.08 5.09 5.09 0 0 1 5.084-5.096c2.797 0 5.076 2.28 5.076 5.096" mask="url(#as)"/>
            </g>
            <g transform="matrix(0 -1 -1 0 364.5 154.5)">
                <mask id="av" fill="#fff">
                    <use xlink:href="#au"/>
                </mask>
                <path fill="#FFF" d="M137.67 355.638a5.08 5.08 0 0 1-10.16 0 5.086 5.086 0 0 1 5.084-5.097c2.805 0 5.075 2.28 5.075 5.097" mask="url(#av)"/>
            </g>
            <g transform="matrix(0 -1 -1 0 364.5 154.5)">
                <mask id="ax" fill="#fff">
                    <use xlink:href="#aw"/>
                </mask>
                <path fill="#FFF" d="M137.67 327.675a5.08 5.08 0 0 1-10.16 0 5.085 5.085 0 0 1 5.084-5.097c2.805 0 5.075 2.28 5.075 5.097" mask="url(#ax)"/>
            </g>
            <g transform="matrix(0 -1 -1 0 364.5 154.5)">
                <mask id="az" fill="#fff">
                    <use xlink:href="#ay"/>
                </mask>
                <path fill="#FFF" d="M137.67 299.712a5.08 5.08 0 0 1-10.16 0 5.085 5.085 0 0 1 5.084-5.097c2.805 0 5.075 2.28 5.075 5.097" mask="url(#az)"/>
            </g>
            <g transform="matrix(0 -1 -1 0 364.5 154.5)">
                <mask id="aB" fill="#fff">
                    <use xlink:href="#aA"/>
                </mask>
                <path fill="#FFF" d="M137.67 271.731c0 2.816-2.27 5.096-5.076 5.096a5.085 5.085 0 0 1-5.084-5.096 5.08 5.08 0 1 1 10.16 0" mask="url(#aB)"/>
            </g>
            <g transform="matrix(0 -1 -1 0 364.5 154.5)">
                <mask id="aD" fill="#fff">
                    <use xlink:href="#aC"/>
                </mask>
                <path fill="#FFF" d="M137.67 243.768c0 2.816-2.27 5.096-5.076 5.096a5.085 5.085 0 0 1-5.084-5.096 5.08 5.08 0 1 1 10.16 0" mask="url(#aD)"/>
            </g>
            <g transform="matrix(0 -1 -1 0 364.5 154.5)">
                <mask id="aF" fill="#fff">
                    <use xlink:href="#aE"/>
                </mask>
                <path fill="#FFF" d="M137.67 215.805c0 2.816-2.27 5.096-5.076 5.096a5.085 5.085 0 0 1-5.084-5.096 5.08 5.08 0 1 1 10.16 0" mask="url(#aF)"/>
            </g>
            <g transform="matrix(0 -1 -1 0 364.5 154.5)">
                <mask id="aH" fill="#fff">
                    <use xlink:href="#aG"/>
                </mask>
                <path fill="#FFF" d="M137.67 187.842c0 2.816-2.27 5.095-5.076 5.095a5.085 5.085 0 0 1-5.084-5.095 5.08 5.08 0 1 1 10.16 0" mask="url(#aH)"/>
            </g>
            <g transform="matrix(0 -1 -1 0 364.5 154.5)">
                <mask id="aJ" fill="#fff">
                    <use xlink:href="#aI"/>
                </mask>
                <path fill="#FFF" d="M137.67 159.877c0 2.817-2.27 5.098-5.076 5.098a5.085 5.085 0 0 1-5.084-5.098 5.08 5.08 0 0 1 10.16 0" mask="url(#aJ)"/>
            </g>
            <g transform="matrix(0 -1 -1 0 364.5 154.5)">
                <mask id="aL" fill="#fff">
                    <use xlink:href="#aK"/>
                </mask>
                <path fill="#FFF" d="M137.67 131.914c0 2.817-2.27 5.08-5.076 5.08a5.07 5.07 0 0 1-5.084-5.08 5.08 5.08 0 0 1 10.16 0" mask="url(#aL)"/>
            </g>
            <g transform="matrix(0 -1 -1 0 364.5 154.5)">
                <mask id="aN" fill="#fff">
                    <use xlink:href="#aM"/>
                </mask>
                <path fill="#FFF" d="M137.67 103.951c0 2.816-2.27 5.08-5.076 5.08a5.07 5.07 0 0 1-5.084-5.08 5.07 5.07 0 0 1 5.084-5.08 5.069 5.069 0 0 1 5.075 5.08" mask="url(#aN)"/>
            </g>
            <g transform="matrix(0 -1 -1 0 364.5 154.5)">
                <mask id="aP" fill="#fff">
                    <use xlink:href="#aO"/>
                </mask>
                <path fill="#FFF" d="M137.67 75.988c0 2.816-2.27 5.08-5.076 5.08a5.07 5.07 0 0 1-5.084-5.08 5.07 5.07 0 0 1 5.084-5.08 5.069 5.069 0 0 1 5.075 5.08" mask="url(#aP)"/>
            </g>
            <g transform="matrix(0 -1 -1 0 364.5 154.5)">
                <mask id="aR" fill="#fff">
                    <use xlink:href="#aQ"/>
                </mask>
                <path fill="#FFF" d="M137.67 48.025c0 2.816-2.27 5.08-5.076 5.08a5.07 5.07 0 0 1-5.084-5.08c0-2.816 2.27-5.08 5.084-5.08a5.07 5.07 0 0 1 5.075 5.08" mask="url(#aR)"/>
            </g>
            <g transform="matrix(0 -1 -1 0 364.5 154.5)">
                <mask id="aT" fill="#fff">
                    <use xlink:href="#aS"/>
                </mask>
                <path fill="#FFF" d="M137.67 20.061a5.07 5.07 0 0 1-5.076 5.08 5.071 5.071 0 0 1-5.084-5.08 5.07 5.07 0 0 1 5.084-5.08 5.069 5.069 0 0 1 5.075 5.08" mask="url(#aT)"/>
            </g>
            <g transform="matrix(0 -1 -1 0 364.5 154.5)">
                <mask id="aV" fill="#fff">
                    <use xlink:href="#aU"/>
                </mask>
                <path fill="#FFF" d="M125.365 368.765c0 2.8-2.268 5.095-5.075 5.095-2.81 0-5.087-2.295-5.087-5.095s2.278-5.08 5.087-5.08a5.079 5.079 0 0 1 5.075 5.08" mask="url(#aV)"/>
            </g>
            <g transform="matrix(0 -1 -1 0 364.5 154.5)">
                <mask id="aX" fill="#fff">
                    <use xlink:href="#aW"/>
                </mask>
                <path fill="#FFF" d="M125.365 340.801c0 2.8-2.268 5.096-5.075 5.096-2.81 0-5.087-2.296-5.087-5.096 0-2.8 2.278-5.08 5.087-5.08a5.079 5.079 0 0 1 5.075 5.08" mask="url(#aX)"/>
            </g>
            <g transform="matrix(0 -1 -1 0 364.5 154.5)">
                <mask id="aZ" fill="#fff">
                    <use xlink:href="#aY"/>
                </mask>
                <path fill="#FFF" d="M125.365 312.838c0 2.8-2.268 5.096-5.075 5.096-2.81 0-5.087-2.297-5.087-5.096 0-2.8 2.278-5.08 5.087-5.08a5.079 5.079 0 0 1 5.075 5.08" mask="url(#aZ)"/>
            </g>
            <g transform="matrix(0 -1 -1 0 364.5 154.5)">
                <mask id="bb" fill="#fff">
                    <use xlink:href="#ba"/>
                </mask>
                <path fill="#FFF" d="M125.365 284.874c0 2.8-2.268 5.08-5.075 5.08a5.087 5.087 0 0 1-5.087-5.08c0-2.799 2.278-5.08 5.087-5.08a5.079 5.079 0 0 1 5.075 5.08" mask="url(#bb)"/>
            </g>
            <g transform="matrix(0 -1 -1 0 364.5 154.5)">
                <mask id="bd" fill="#fff">
                    <use xlink:href="#bc"/>
                </mask>
                <path fill="#FFF" d="M125.365 256.911c0 2.8-2.268 5.08-5.075 5.08a5.087 5.087 0 0 1-5.087-5.08 5.077 5.077 0 0 1 5.087-5.08 5.068 5.068 0 0 1 5.075 5.08" mask="url(#bd)"/>
            </g>
            <g transform="matrix(0 -1 -1 0 364.5 154.5)">
                <mask id="bf" fill="#fff">
                    <use xlink:href="#be"/>
                </mask>
                <path fill="#FFF" d="M125.365 228.948c0 2.8-2.268 5.08-5.075 5.08a5.087 5.087 0 0 1-5.087-5.08 5.077 5.077 0 0 1 5.087-5.08 5.068 5.068 0 0 1 5.075 5.08" mask="url(#bf)"/>
            </g>
            <g transform="matrix(0 -1 -1 0 364.5 154.5)">
                <mask id="bh" fill="#fff">
                    <use xlink:href="#bg"/>
                </mask>
                <path fill="#FFF" d="M125.365 200.985c0 2.8-2.268 5.08-5.075 5.08a5.087 5.087 0 0 1-5.087-5.08 5.077 5.077 0 0 1 5.087-5.08 5.069 5.069 0 0 1 5.075 5.08" mask="url(#bh)"/>
            </g>
            <g transform="matrix(0 -1 -1 0 364.5 154.5)">
                <mask id="bj" fill="#fff">
                    <use xlink:href="#bi"/>
                </mask>
                <path fill="#FFF" d="M125.365 173.021a5.068 5.068 0 0 1-5.075 5.08 5.077 5.077 0 0 1-5.087-5.08 5.077 5.077 0 0 1 5.087-5.08 5.069 5.069 0 0 1 5.075 5.08" mask="url(#bj)"/>
            </g>
            <g transform="matrix(0 -1 -1 0 364.5 154.5)">
                <mask id="bl" fill="#fff">
                    <use xlink:href="#bk"/>
                </mask>
                <path fill="#FFF" d="M125.365 145.058c0 2.8-2.268 5.08-5.075 5.08a5.087 5.087 0 0 1-5.087-5.08 5.077 5.077 0 0 1 5.087-5.08 5.068 5.068 0 0 1 5.075 5.08" mask="url(#bl)"/>
            </g>
            <g transform="matrix(0 -1 -1 0 364.5 154.5)">
                <mask id="bn" fill="#fff">
                    <use xlink:href="#bm"/>
                </mask>
                <path fill="#FFF" d="M125.365 117.095c0 2.799-2.268 5.08-5.075 5.08a5.087 5.087 0 0 1 0-10.177c2.807 0 5.075 2.28 5.075 5.097" mask="url(#bn)"/>
            </g>
            <g transform="matrix(0 -1 -1 0 364.5 154.5)">
                <mask id="bp" fill="#fff">
                    <use xlink:href="#bo"/>
                </mask>
                <path fill="#FFF" d="M125.365 89.132c0 2.799-2.268 5.08-5.075 5.08a5.087 5.087 0 0 1 0-10.177c2.807 0 5.075 2.28 5.075 5.097" mask="url(#bp)"/>
            </g>
            <g transform="matrix(0 -1 -1 0 364.5 154.5)">
                <mask id="br" fill="#fff">
                    <use xlink:href="#bq"/>
                </mask>
                <path fill="#FFF" d="M125.365 61.168c0 2.8-2.268 5.08-5.075 5.08a5.087 5.087 0 1 1 0-10.176c2.807 0 5.075 2.28 5.075 5.096" mask="url(#br)"/>
            </g>
            <g transform="matrix(0 -1 -1 0 364.5 154.5)">
                <mask id="bt" fill="#fff">
                    <use xlink:href="#bs"/>
                </mask>
                <path fill="#FFF" d="M125.365 33.205c0 2.8-2.268 5.079-5.075 5.079a5.087 5.087 0 1 1 0-10.175c2.807 0 5.075 2.28 5.075 5.096" mask="url(#bt)"/>
            </g>
            <g transform="matrix(0 -1 -1 0 364.5 154.5)">
                <mask id="bv" fill="#fff">
                    <use xlink:href="#bu"/>
                </mask>
                <path fill="#FFF" d="M125.365 5.241c0 2.8-2.268 5.08-5.075 5.08a5.087 5.087 0 1 1 0-10.176c2.807 0 5.075 2.28 5.075 5.096" mask="url(#bv)"/>
            </g>
            <g transform="matrix(0 -1 -1 0 364.5 154.5)">
                <mask id="by" fill="#fff">
                    <use xlink:href="#bx"/>
                </mask>
                <path fill="#FFF" d="M113.059 355.638c0 2.8-2.262 5.08-5.076 5.08a5.085 5.085 0 0 1-5.075-5.08c0-2.816 2.278-5.097 5.075-5.097 2.814 0 5.076 2.28 5.076 5.097" mask="url(#by)"/>
            </g>
            <g transform="matrix(0 -1 -1 0 364.5 154.5)">
                <mask id="bA" fill="#fff">
                    <use xlink:href="#bz"/>
                </mask>
                <path fill="#FFF" d="M113.059 327.675c0 2.799-2.262 5.08-5.076 5.08a5.085 5.085 0 0 1-5.075-5.08c0-2.817 2.278-5.097 5.075-5.097 2.814 0 5.076 2.28 5.076 5.097" mask="url(#bA)"/>
            </g>
            <g transform="matrix(0 -1 -1 0 364.5 154.5)">
                <mask id="bC" fill="#fff">
                    <use xlink:href="#bB"/>
                </mask>
                <path fill="#FFF" d="M113.059 299.712c0 2.799-2.262 5.08-5.076 5.08a5.085 5.085 0 0 1-5.075-5.08c0-2.818 2.278-5.097 5.075-5.097 2.814 0 5.076 2.28 5.076 5.097" mask="url(#bC)"/>
            </g>
            <g transform="matrix(0 -1 -1 0 364.5 154.5)">
                <mask id="bE" fill="#fff">
                    <use xlink:href="#bD"/>
                </mask>
                <path fill="#FFF" d="M113.059 271.731c0 2.816-2.262 5.096-5.076 5.096-2.797 0-5.075-2.28-5.075-5.096 0-2.8 2.278-5.08 5.075-5.08a5.074 5.074 0 0 1 5.076 5.08" mask="url(#bE)"/>
            </g>
            <g transform="matrix(0 -1 -1 0 364.5 154.5)">
                <mask id="bG" fill="#fff">
                    <use xlink:href="#bF"/>
                </mask>
                <path fill="#FFF" d="M113.059 243.768c0 2.816-2.262 5.096-5.076 5.096-2.797 0-5.075-2.28-5.075-5.096 0-2.8 2.278-5.08 5.075-5.08a5.074 5.074 0 0 1 5.076 5.08" mask="url(#bG)"/>
            </g>
            <g transform="matrix(0 -1 -1 0 364.5 154.5)">
                <mask id="bI" fill="#fff">
                    <use xlink:href="#bH"/>
                </mask>
                <path fill="#FFF" d="M113.059 215.805c0 2.816-2.262 5.096-5.076 5.096-2.797 0-5.075-2.28-5.075-5.096 0-2.8 2.278-5.08 5.075-5.08a5.074 5.074 0 0 1 5.076 5.08" mask="url(#bI)"/>
            </g>
            <g transform="matrix(0 -1 -1 0 364.5 154.5)">
                <mask id="bK" fill="#fff">
                    <use xlink:href="#bJ"/>
                </mask>
                <path fill="#FFF" d="M113.059 187.842c0 2.816-2.262 5.095-5.076 5.095-2.797 0-5.075-2.28-5.075-5.095 0-2.8 2.278-5.08 5.075-5.08a5.074 5.074 0 0 1 5.076 5.08" mask="url(#bK)"/>
            </g>
            <g transform="matrix(0 -1 -1 0 364.5 154.5)">
                <mask id="bM" fill="#fff">
                    <use xlink:href="#bL"/>
                </mask>
                <path fill="#FFF" d="M113.059 159.877c0 2.817-2.262 5.098-5.076 5.098-2.797 0-5.075-2.28-5.075-5.098 0-2.799 2.278-5.079 5.075-5.079a5.074 5.074 0 0 1 5.076 5.08" mask="url(#bM)"/>
            </g>
            <g transform="matrix(0 -1 -1 0 364.5 154.5)">
                <mask id="bO" fill="#fff">
                    <use xlink:href="#bN"/>
                </mask>
                <path fill="#FFF" d="M113.059 131.914a5.063 5.063 0 0 1-5.076 5.08 5.074 5.074 0 0 1-5.075-5.08c0-2.799 2.278-5.08 5.075-5.08a5.074 5.074 0 0 1 5.076 5.08" mask="url(#bO)"/>
            </g>
            <g transform="matrix(0 -1 -1 0 364.5 154.5)">
                <mask id="bQ" fill="#fff">
                    <use xlink:href="#bP"/>
                </mask>
                <path fill="#FFF" d="M113.059 103.951a5.063 5.063 0 0 1-5.076 5.08 5.074 5.074 0 0 1-5.075-5.08 5.074 5.074 0 0 1 5.075-5.08 5.063 5.063 0 0 1 5.076 5.08" mask="url(#bQ)"/>
            </g>
            <g transform="matrix(0 -1 -1 0 364.5 154.5)">
                <mask id="bS" fill="#fff">
                    <use xlink:href="#bR"/>
                </mask>
                <path fill="#FFF" d="M113.059 75.988a5.063 5.063 0 0 1-5.076 5.08 5.074 5.074 0 0 1-5.075-5.08 5.074 5.074 0 0 1 5.075-5.08 5.063 5.063 0 0 1 5.076 5.08" mask="url(#bS)"/>
            </g>
            <g transform="matrix(0 -1 -1 0 364.5 154.5)">
                <mask id="bU" fill="#fff">
                    <use xlink:href="#bT"/>
                </mask>
                <path fill="#FFF" d="M113.059 48.025a5.063 5.063 0 0 1-5.076 5.08 5.074 5.074 0 0 1-5.075-5.08 5.075 5.075 0 0 1 5.075-5.08 5.064 5.064 0 0 1 5.076 5.08" mask="url(#bU)"/>
            </g>
            <g transform="matrix(0 -1 -1 0 364.5 154.5)">
                <mask id="bW" fill="#fff">
                    <use xlink:href="#bV"/>
                </mask>
                <path fill="#FFF" d="M113.059 20.061a5.064 5.064 0 0 1-5.076 5.08 5.075 5.075 0 0 1-5.075-5.08 5.074 5.074 0 0 1 5.075-5.08 5.063 5.063 0 0 1 5.076 5.08" mask="url(#bW)"/>
            </g>
            <g transform="matrix(0 -1 -1 0 364.5 154.5)">
                <mask id="bY" fill="#fff">
                    <use xlink:href="#bX"/>
                </mask>
                <path fill="#FFF" d="M100.764 368.765c0 2.8-2.279 5.095-5.076 5.095-2.797 0-5.075-2.295-5.075-5.095s2.278-5.08 5.075-5.08a5.085 5.085 0 0 1 5.076 5.08" mask="url(#bY)"/>
            </g>
            <g transform="matrix(0 -1 -1 0 364.5 154.5)">
                <mask id="ca" fill="#fff">
                    <use xlink:href="#bZ"/>
                </mask>
                <path fill="#FFF" d="M100.764 340.801c0 2.8-2.279 5.096-5.076 5.096-2.797 0-5.075-2.296-5.075-5.096 0-2.8 2.278-5.08 5.075-5.08a5.085 5.085 0 0 1 5.076 5.08" mask="url(#ca)"/>
            </g>
            <g transform="matrix(0 -1 -1 0 364.5 154.5)">
                <mask id="cc" fill="#fff">
                    <use xlink:href="#cb"/>
                </mask>
                <path fill="#FFF" d="M100.764 312.838c0 2.8-2.279 5.096-5.076 5.096-2.797 0-5.075-2.297-5.075-5.096 0-2.8 2.278-5.08 5.075-5.08a5.085 5.085 0 0 1 5.076 5.08" mask="url(#cc)"/>
            </g>
            <g transform="matrix(0 -1 -1 0 364.5 154.5)">
                <mask id="ce" fill="#fff">
                    <use xlink:href="#cd"/>
                </mask>
                <path fill="#FFF" d="M100.764 284.874c0 2.8-2.279 5.08-5.076 5.08a5.085 5.085 0 0 1-5.075-5.08c0-2.799 2.278-5.08 5.075-5.08a5.085 5.085 0 0 1 5.076 5.08" mask="url(#ce)"/>
            </g>
            <g transform="matrix(0 -1 -1 0 364.5 154.5)">
                <mask id="cg" fill="#fff">
                    <use xlink:href="#cf"/>
                </mask>
                <path fill="#FFF" d="M100.764 256.911c0 2.8-2.279 5.08-5.076 5.08a5.085 5.085 0 0 1-5.075-5.08 5.074 5.074 0 0 1 5.075-5.08 5.074 5.074 0 0 1 5.076 5.08" mask="url(#cg)"/>
            </g>
            <g transform="matrix(0 -1 -1 0 364.5 154.5)">
                <mask id="ci" fill="#fff">
                    <use xlink:href="#ch"/>
                </mask>
                <path fill="#FFF" d="M100.764 228.948c0 2.8-2.279 5.08-5.076 5.08a5.085 5.085 0 0 1-5.075-5.08 5.074 5.074 0 0 1 5.075-5.08 5.074 5.074 0 0 1 5.076 5.08" mask="url(#ci)"/>
            </g>
            <g transform="matrix(0 -1 -1 0 364.5 154.5)">
                <mask id="ck" fill="#fff">
                    <use xlink:href="#cj"/>
                </mask>
                <path fill="#FFF" d="M100.764 200.985c0 2.8-2.279 5.08-5.076 5.08a5.085 5.085 0 0 1-5.075-5.08 5.075 5.075 0 1 1 10.15 0" mask="url(#ck)"/>
            </g>
            <g transform="matrix(0 -1 -1 0 364.5 154.5)">
                <mask id="cm" fill="#fff">
                    <use xlink:href="#cl"/>
                </mask>
                <path fill="#FFF" d="M100.764 173.021a5.074 5.074 0 0 1-5.076 5.08 5.074 5.074 0 0 1-5.075-5.08 5.075 5.075 0 1 1 10.15 0" mask="url(#cm)"/>
            </g>
            <g transform="matrix(0 -1 -1 0 364.5 154.5)">
                <mask id="co" fill="#fff">
                    <use xlink:href="#cn"/>
                </mask>
                <path fill="#FFF" d="M100.764 145.058c0 2.8-2.279 5.08-5.076 5.08a5.085 5.085 0 0 1-5.075-5.08 5.074 5.074 0 0 1 5.075-5.08 5.074 5.074 0 0 1 5.076 5.08" mask="url(#co)"/>
            </g>
            <g transform="matrix(0 -1 -1 0 364.5 154.5)">
                <mask id="cq" fill="#fff">
                    <use xlink:href="#cp"/>
                </mask>
                <path fill="#FFF" d="M100.764 117.095c0 2.799-2.279 5.08-5.076 5.08a5.085 5.085 0 0 1-5.075-5.08c0-2.817 2.278-5.097 5.075-5.097s5.076 2.28 5.076 5.097" mask="url(#cq)"/>
            </g>
            <g transform="matrix(0 -1 -1 0 364.5 154.5)">
                <mask id="cs" fill="#fff">
                    <use xlink:href="#cr"/>
                </mask>
                <path fill="#FFF" d="M100.764 89.132c0 2.799-2.279 5.08-5.076 5.08a5.085 5.085 0 0 1-5.075-5.08c0-2.817 2.278-5.097 5.075-5.097s5.076 2.28 5.076 5.097" mask="url(#cs)"/>
            </g>
            <g transform="matrix(0 -1 -1 0 364.5 154.5)">
                <mask id="cu" fill="#fff">
                    <use xlink:href="#ct"/>
                </mask>
                <path fill="#FFF" d="M100.764 61.168c0 2.8-2.279 5.08-5.076 5.08a5.085 5.085 0 0 1-5.075-5.08c0-2.816 2.278-5.096 5.075-5.096s5.076 2.28 5.076 5.096" mask="url(#cu)"/>
            </g>
            <g transform="matrix(0 -1 -1 0 364.5 154.5)">
                <mask id="cw" fill="#fff">
                    <use xlink:href="#cv"/>
                </mask>
                <path fill="#FFF" d="M100.764 33.205c0 2.8-2.279 5.079-5.076 5.079a5.085 5.085 0 0 1-5.075-5.08c0-2.816 2.278-5.095 5.075-5.095s5.076 2.28 5.076 5.096" mask="url(#cw)"/>
            </g>
            <g transform="matrix(0 -1 -1 0 364.5 154.5)">
                <mask id="cy" fill="#fff">
                    <use xlink:href="#cx"/>
                </mask>
                <path fill="#FFF" d="M100.764 5.241c0 2.8-2.279 5.08-5.076 5.08a5.085 5.085 0 0 1-5.075-5.08c0-2.816 2.278-5.096 5.075-5.096s5.076 2.28 5.076 5.096" mask="url(#cy)"/>
            </g>
            <g transform="matrix(0 -1 -1 0 364.5 154.5)">
                <mask id="cB" fill="#fff">
                    <use xlink:href="#cA"/>
                </mask>
                <path fill="#FFF" d="M88.469 355.638c0 2.8-2.279 5.08-5.076 5.08a5.074 5.074 0 0 1-5.075-5.08c0-2.816 2.26-5.097 5.075-5.097 2.797 0 5.076 2.28 5.076 5.097" mask="url(#cB)"/>
            </g>
            <g transform="matrix(0 -1 -1 0 364.5 154.5)">
                <mask id="cD" fill="#fff">
                    <use xlink:href="#cC"/>
                </mask>
                <path fill="#FFF" d="M88.469 327.675c0 2.799-2.279 5.08-5.076 5.08a5.074 5.074 0 0 1-5.075-5.08c0-2.817 2.26-5.097 5.075-5.097 2.797 0 5.076 2.28 5.076 5.097" mask="url(#cD)"/>
            </g>
            <g transform="matrix(0 -1 -1 0 364.5 154.5)">
                <mask id="cF" fill="#fff">
                    <use xlink:href="#cE"/>
                </mask>
                <path fill="#FFF" d="M88.469 299.712c0 2.799-2.279 5.08-5.076 5.08a5.074 5.074 0 0 1-5.075-5.08c0-2.818 2.26-5.097 5.075-5.097 2.797 0 5.076 2.28 5.076 5.097" mask="url(#cF)"/>
            </g>
            <g transform="matrix(0 -1 -1 0 364.5 154.5)">
                <mask id="cH" fill="#fff">
                    <use xlink:href="#cG"/>
                </mask>
                <path fill="#FFF" d="M88.469 271.731c0 2.816-2.279 5.096-5.076 5.096a5.077 5.077 0 0 1-5.075-5.096c0-2.8 2.26-5.08 5.075-5.08a5.085 5.085 0 0 1 5.076 5.08" mask="url(#cH)"/>
            </g>
            <g transform="matrix(0 -1 -1 0 364.5 154.5)">
                <mask id="cJ" fill="#fff">
                    <use xlink:href="#cI"/>
                </mask>
                <path fill="#FFF" d="M88.469 243.768c0 2.816-2.279 5.096-5.076 5.096a5.077 5.077 0 0 1-5.075-5.096c0-2.8 2.26-5.08 5.075-5.08a5.085 5.085 0 0 1 5.076 5.08" mask="url(#cJ)"/>
            </g>
            <g transform="matrix(0 -1 -1 0 364.5 154.5)">
                <mask id="cL" fill="#fff">
                    <use xlink:href="#cK"/>
                </mask>
                <path fill="#FFF" d="M88.469 215.805c0 2.816-2.279 5.096-5.076 5.096a5.077 5.077 0 0 1-5.075-5.096c0-2.8 2.26-5.08 5.075-5.08a5.085 5.085 0 0 1 5.076 5.08" mask="url(#cL)"/>
            </g>
            <g transform="matrix(0 -1 -1 0 364.5 154.5)">
                <mask id="cN" fill="#fff">
                    <use xlink:href="#cM"/>
                </mask>
                <path fill="#FFF" d="M88.469 187.842c0 2.816-2.279 5.095-5.076 5.095a5.077 5.077 0 0 1-5.075-5.095c0-2.8 2.26-5.08 5.075-5.08a5.085 5.085 0 0 1 5.076 5.08" mask="url(#cN)"/>
            </g>
            <g transform="matrix(0 -1 -1 0 364.5 154.5)">
                <mask id="cP" fill="#fff">
                    <use xlink:href="#cO"/>
                </mask>
                <path fill="#FFF" d="M88.469 159.877c0 2.817-2.279 5.098-5.076 5.098-2.815 0-5.075-2.28-5.075-5.098 0-2.799 2.26-5.079 5.075-5.079a5.085 5.085 0 0 1 5.076 5.08" mask="url(#cP)"/>
            </g>
            <g transform="matrix(0 -1 -1 0 364.5 154.5)">
                <mask id="cR" fill="#fff">
                    <use xlink:href="#cQ"/>
                </mask>
                <path fill="#FFF" d="M88.469 131.914a5.074 5.074 0 0 1-5.076 5.08 5.063 5.063 0 0 1-5.075-5.08c0-2.799 2.26-5.08 5.075-5.08a5.085 5.085 0 0 1 5.076 5.08" mask="url(#cR)"/>
            </g>
            <g transform="matrix(0 -1 -1 0 364.5 154.5)">
                <mask id="cT" fill="#fff">
                    <use xlink:href="#cS"/>
                </mask>
                <path fill="#FFF" d="M88.469 103.951a5.074 5.074 0 0 1-5.076 5.08 5.063 5.063 0 0 1-5.075-5.08c0-2.816 2.26-5.08 5.075-5.08a5.074 5.074 0 0 1 5.076 5.08" mask="url(#cT)"/>
            </g>
            <g transform="matrix(0 -1 -1 0 364.5 154.5)">
                <mask id="cV" fill="#fff">
                    <use xlink:href="#cU"/>
                </mask>
                <path fill="#FFF" d="M88.469 75.988a5.074 5.074 0 0 1-5.076 5.08 5.063 5.063 0 0 1-5.075-5.08c0-2.816 2.26-5.08 5.075-5.08a5.074 5.074 0 0 1 5.076 5.08" mask="url(#cV)"/>
            </g>
            <g transform="matrix(0 -1 -1 0 364.5 154.5)">
                <mask id="cX" fill="#fff">
                    <use xlink:href="#cW"/>
                </mask>
                <path fill="#FFF" d="M88.469 48.025a5.074 5.074 0 0 1-5.076 5.08 5.063 5.063 0 0 1-5.075-5.08c0-2.816 2.26-5.08 5.075-5.08a5.075 5.075 0 0 1 5.076 5.08" mask="url(#cX)"/>
            </g>
            <g transform="matrix(0 -1 -1 0 364.5 154.5)">
                <mask id="cZ" fill="#fff">
                    <use xlink:href="#cY"/>
                </mask>
                <path fill="#FFF" d="M88.469 20.061a5.075 5.075 0 0 1-5.076 5.08 5.064 5.064 0 0 1-5.075-5.08c0-2.816 2.26-5.08 5.075-5.08a5.074 5.074 0 0 1 5.076 5.08" mask="url(#cZ)"/>
            </g>
            <g transform="matrix(0 -1 -1 0 364.5 154.5)">
                <mask id="db" fill="#fff">
                    <use xlink:href="#da"/>
                </mask>
                <path fill="#FFF" d="M76.174 368.765c0 2.8-2.279 5.095-5.093 5.095-2.798 0-5.075-2.295-5.075-5.095a5.084 5.084 0 0 1 10.168 0" mask="url(#db)"/>
            </g>
            <g transform="matrix(0 -1 -1 0 364.5 154.5)">
                <mask id="dd" fill="#fff">
                    <use xlink:href="#dc"/>
                </mask>
                <path fill="#FFF" d="M76.174 340.801c0 2.8-2.279 5.096-5.093 5.096-2.798 0-5.075-2.296-5.075-5.096a5.084 5.084 0 0 1 10.168 0" mask="url(#dd)"/>
            </g>
            <g transform="matrix(0 -1 -1 0 364.5 154.5)">
                <mask id="df" fill="#fff">
                    <use xlink:href="#de"/>
                </mask>
                <path fill="#FFF" d="M76.174 312.838c0 2.8-2.279 5.096-5.093 5.096-2.798 0-5.075-2.297-5.075-5.096a5.084 5.084 0 0 1 10.168 0" mask="url(#df)"/>
            </g>
            <g transform="matrix(0 -1 -1 0 364.5 154.5)">
                <mask id="dh" fill="#fff">
                    <use xlink:href="#dg"/>
                </mask>
                <path fill="#FFF" d="M76.174 284.874a5.084 5.084 0 1 1-10.168 0c0-2.799 2.277-5.08 5.075-5.08 2.814 0 5.093 2.281 5.093 5.08" mask="url(#dh)"/>
            </g>
            <g transform="matrix(0 -1 -1 0 364.5 154.5)">
                <mask id="dj" fill="#fff">
                    <use xlink:href="#di"/>
                </mask>
                <path fill="#FFF" d="M76.174 256.911a5.084 5.084 0 1 1-10.168 0 5.074 5.074 0 0 1 5.075-5.08 5.079 5.079 0 0 1 5.093 5.08" mask="url(#dj)"/>
            </g>
            <g transform="matrix(0 -1 -1 0 364.5 154.5)">
                <mask id="dl" fill="#fff">
                    <use xlink:href="#dk"/>
                </mask>
                <path fill="#FFF" d="M76.174 228.948a5.084 5.084 0 1 1-10.168 0 5.074 5.074 0 0 1 5.075-5.08 5.079 5.079 0 0 1 5.093 5.08" mask="url(#dl)"/>
            </g>
            <g transform="matrix(0 -1 -1 0 364.5 154.5)">
                <mask id="dn" fill="#fff">
                    <use xlink:href="#dm"/>
                </mask>
                <path fill="#FFF" d="M76.174 200.985a5.084 5.084 0 1 1-10.168 0 5.074 5.074 0 0 1 5.075-5.08 5.079 5.079 0 0 1 5.093 5.08" mask="url(#dn)"/>
            </g>
            <g transform="matrix(0 -1 -1 0 364.5 154.5)">
                <mask id="dp" fill="#fff">
                    <use xlink:href="#do"/>
                </mask>
                <path fill="#FFF" d="M76.174 173.021a5.079 5.079 0 0 1-5.093 5.08 5.074 5.074 0 0 1-5.075-5.08 5.074 5.074 0 0 1 5.075-5.08 5.079 5.079 0 0 1 5.093 5.08" mask="url(#dp)"/>
            </g>
            <g transform="matrix(0 -1 -1 0 364.5 154.5)">
                <mask id="dr" fill="#fff">
                    <use xlink:href="#dq"/>
                </mask>
                <path fill="#FFF" d="M76.174 145.058a5.084 5.084 0 0 1-10.168 0 5.074 5.074 0 0 1 5.075-5.08 5.079 5.079 0 0 1 5.093 5.08" mask="url(#dr)"/>
            </g>
            <g transform="matrix(0 -1 -1 0 364.5 154.5)">
                <mask id="dt" fill="#fff">
                    <use xlink:href="#ds"/>
                </mask>
                <path fill="#FFF" d="M76.174 117.095c0 2.799-2.279 5.08-5.093 5.08a5.084 5.084 0 0 1-5.075-5.08c0-2.817 2.277-5.097 5.075-5.097a5.093 5.093 0 0 1 5.093 5.097" mask="url(#dt)"/>
            </g>
            <g transform="matrix(0 -1 -1 0 364.5 154.5)">
                <mask id="dv" fill="#fff">
                    <use xlink:href="#du"/>
                </mask>
                <path fill="#FFF" d="M76.174 89.132c0 2.799-2.279 5.08-5.093 5.08a5.084 5.084 0 0 1-5.075-5.08c0-2.817 2.277-5.097 5.075-5.097a5.093 5.093 0 0 1 5.093 5.097" mask="url(#dv)"/>
            </g>
            <g transform="matrix(0 -1 -1 0 364.5 154.5)">
                <mask id="dx" fill="#fff">
                    <use xlink:href="#dw"/>
                </mask>
                <path fill="#FFF" d="M76.174 61.168a5.084 5.084 0 1 1-10.168 0c0-2.816 2.277-5.096 5.075-5.096a5.093 5.093 0 0 1 5.093 5.096" mask="url(#dx)"/>
            </g>
            <g transform="matrix(0 -1 -1 0 364.5 154.5)">
                <mask id="dz" fill="#fff">
                    <use xlink:href="#dy"/>
                </mask>
                <path fill="#FFF" d="M76.174 33.205a5.084 5.084 0 1 1-10.168 0c0-2.817 2.277-5.096 5.075-5.096a5.093 5.093 0 0 1 5.093 5.096" mask="url(#dz)"/>
            </g>
            <g transform="matrix(0 -1 -1 0 364.5 154.5)">
                <mask id="dB" fill="#fff">
                    <use xlink:href="#dA"/>
                </mask>
                <path fill="#FFF" d="M76.174 5.241a5.084 5.084 0 1 1-10.168 0c0-2.816 2.277-5.096 5.075-5.096a5.093 5.093 0 0 1 5.093 5.096" mask="url(#dB)"/>
            </g>
            <g transform="matrix(0 -1 -1 0 364.5 154.5)">
                <mask id="dE" fill="#fff">
                    <use xlink:href="#dD"/>
                </mask>
                <path fill="#FFF" d="M63.862 355.638c0 2.8-2.26 5.08-5.076 5.08a5.085 5.085 0 0 1-5.075-5.08c0-2.816 2.28-5.097 5.075-5.097 2.815 0 5.076 2.28 5.076 5.097" mask="url(#dE)"/>
            </g>
            <g transform="matrix(0 -1 -1 0 364.5 154.5)">
                <mask id="dG" fill="#fff">
                    <use xlink:href="#dF"/>
                </mask>
                <path fill="#FFF" d="M63.862 327.675c0 2.799-2.26 5.08-5.076 5.08a5.086 5.086 0 0 1-5.075-5.08c0-2.817 2.28-5.097 5.075-5.097 2.815 0 5.076 2.28 5.076 5.097" mask="url(#dG)"/>
            </g>
            <g transform="matrix(0 -1 -1 0 364.5 154.5)">
                <mask id="dI" fill="#fff">
                    <use xlink:href="#dH"/>
                </mask>
                <path fill="#FFF" d="M63.862 299.712c0 2.799-2.26 5.08-5.076 5.08a5.086 5.086 0 0 1-5.075-5.08c0-2.818 2.28-5.097 5.075-5.097 2.815 0 5.076 2.28 5.076 5.097" mask="url(#dI)"/>
            </g>
            <g transform="matrix(0 -1 -1 0 364.5 154.5)">
                <mask id="dK" fill="#fff">
                    <use xlink:href="#dJ"/>
                </mask>
                <path fill="#FFF" d="M63.862 271.731a5.077 5.077 0 0 1-5.076 5.096c-2.796 0-5.075-2.28-5.075-5.096 0-2.8 2.28-5.08 5.075-5.08a5.074 5.074 0 0 1 5.076 5.08" mask="url(#dK)"/>
            </g>
            <g transform="matrix(0 -1 -1 0 364.5 154.5)">
                <mask id="dM" fill="#fff">
                    <use xlink:href="#dL"/>
                </mask>
                <path fill="#FFF" d="M63.862 243.768a5.077 5.077 0 0 1-5.076 5.096c-2.796 0-5.075-2.28-5.075-5.096 0-2.8 2.28-5.08 5.075-5.08a5.074 5.074 0 0 1 5.076 5.08" mask="url(#dM)"/>
            </g>
            <g transform="matrix(0 -1 -1 0 364.5 154.5)">
                <mask id="dO" fill="#fff">
                    <use xlink:href="#dN"/>
                </mask>
                <path fill="#FFF" d="M63.862 215.805a5.077 5.077 0 0 1-5.076 5.096c-2.796 0-5.075-2.28-5.075-5.096 0-2.8 2.28-5.08 5.075-5.08a5.074 5.074 0 0 1 5.076 5.08" mask="url(#dO)"/>
            </g>
            <g transform="matrix(0 -1 -1 0 364.5 154.5)">
                <mask id="dQ" fill="#fff">
                    <use xlink:href="#dP"/>
                </mask>
                <path fill="#FFF" d="M63.862 187.842a5.077 5.077 0 0 1-5.076 5.095c-2.796 0-5.075-2.28-5.075-5.095 0-2.8 2.28-5.08 5.075-5.08a5.074 5.074 0 0 1 5.076 5.08" mask="url(#dQ)"/>
            </g>
            <g transform="matrix(0 -1 -1 0 364.5 154.5)">
                <mask id="dS" fill="#fff">
                    <use xlink:href="#dR"/>
                </mask>
                <path fill="#FFF" d="M63.862 159.877c0 2.817-2.26 5.098-5.076 5.098-2.796 0-5.075-2.28-5.075-5.098 0-2.799 2.28-5.079 5.075-5.079a5.074 5.074 0 0 1 5.076 5.08" mask="url(#dS)"/>
            </g>
            <g transform="matrix(0 -1 -1 0 364.5 154.5)">
                <mask id="dU" fill="#fff">
                    <use xlink:href="#dT"/>
                </mask>
                <path fill="#FFF" d="M63.862 131.914c0 2.817-2.26 5.08-5.076 5.08a5.074 5.074 0 0 1-5.075-5.08c0-2.799 2.28-5.08 5.075-5.08a5.074 5.074 0 0 1 5.076 5.08" mask="url(#dU)"/>
            </g>
            <g transform="matrix(0 -1 -1 0 364.5 154.5)">
                <mask id="dW" fill="#fff">
                    <use xlink:href="#dV"/>
                </mask>
                <path fill="#FFF" d="M63.862 103.951c0 2.816-2.26 5.08-5.076 5.08a5.075 5.075 0 0 1-5.075-5.08 5.075 5.075 0 0 1 5.075-5.08 5.063 5.063 0 0 1 5.076 5.08" mask="url(#dW)"/>
            </g>
            <g transform="matrix(0 -1 -1 0 364.5 154.5)">
                <mask id="dY" fill="#fff">
                    <use xlink:href="#dX"/>
                </mask>
                <path fill="#FFF" d="M63.862 75.988c0 2.816-2.26 5.08-5.076 5.08a5.075 5.075 0 0 1-5.075-5.08 5.075 5.075 0 0 1 5.075-5.08 5.063 5.063 0 0 1 5.076 5.08" mask="url(#dY)"/>
            </g>
            <g transform="matrix(0 -1 -1 0 364.5 154.5)">
                <mask id="ea" fill="#fff">
                    <use xlink:href="#dZ"/>
                </mask>
                <path fill="#FFF" d="M63.862 48.025c0 2.816-2.26 5.08-5.076 5.08a5.075 5.075 0 0 1-5.075-5.08 5.075 5.075 0 0 1 5.075-5.08 5.064 5.064 0 0 1 5.076 5.08" mask="url(#ea)"/>
            </g>
            <g transform="matrix(0 -1 -1 0 364.5 154.5)">
                <mask id="ec" fill="#fff">
                    <use xlink:href="#eb"/>
                </mask>
                <path fill="#FFF" d="M63.862 20.061c0 2.817-2.26 5.08-5.076 5.08a5.075 5.075 0 0 1-5.075-5.08 5.075 5.075 0 0 1 5.075-5.08 5.063 5.063 0 0 1 5.076 5.08" mask="url(#ec)"/>
            </g>
            <g transform="matrix(0 -1 -1 0 364.5 154.5)">
                <mask id="ee" fill="#fff">
                    <use xlink:href="#ed"/>
                </mask>
                <path fill="#FFF" d="M51.567 368.765c0 2.8-2.278 5.095-5.076 5.095-2.814 0-5.091-2.295-5.091-5.095s2.277-5.08 5.091-5.08a5.085 5.085 0 0 1 5.076 5.08" mask="url(#ee)"/>
            </g>
            <g transform="matrix(0 -1 -1 0 364.5 154.5)">
                <mask id="eg" fill="#fff">
                    <use xlink:href="#ef"/>
                </mask>
                <path fill="#FFF" d="M51.567 340.801c0 2.8-2.278 5.096-5.076 5.096-2.814 0-5.091-2.296-5.091-5.096 0-2.8 2.277-5.08 5.091-5.08a5.085 5.085 0 0 1 5.076 5.08" mask="url(#eg)"/>
            </g>
            <g transform="matrix(0 -1 -1 0 364.5 154.5)">
                <mask id="ei" fill="#fff">
                    <use xlink:href="#eh"/>
                </mask>
                <path fill="#FFF" d="M51.567 312.838c0 2.8-2.278 5.096-5.076 5.096-2.814 0-5.091-2.297-5.091-5.096 0-2.8 2.277-5.08 5.091-5.08a5.085 5.085 0 0 1 5.076 5.08" mask="url(#ei)"/>
            </g>
            <g transform="matrix(0 -1 -1 0 364.5 154.5)">
                <mask id="ek" fill="#fff">
                    <use xlink:href="#ej"/>
                </mask>
                <path fill="#FFF" d="M51.567 284.874c0 2.8-2.278 5.08-5.076 5.08a5.088 5.088 0 0 1-5.091-5.08c0-2.799 2.277-5.08 5.091-5.08a5.085 5.085 0 0 1 5.076 5.08" mask="url(#ek)"/>
            </g>
            <g transform="matrix(0 -1 -1 0 364.5 154.5)">
                <mask id="em" fill="#fff">
                    <use xlink:href="#el"/>
                </mask>
                <path fill="#FFF" d="M51.567 256.911c0 2.8-2.278 5.08-5.076 5.08a5.088 5.088 0 0 1-5.091-5.08 5.077 5.077 0 0 1 5.091-5.08 5.074 5.074 0 0 1 5.076 5.08" mask="url(#em)"/>
            </g>
            <g transform="matrix(0 -1 -1 0 364.5 154.5)">
                <mask id="eo" fill="#fff">
                    <use xlink:href="#en"/>
                </mask>
                <path fill="#FFF" d="M51.567 228.948c0 2.8-2.278 5.08-5.076 5.08a5.088 5.088 0 0 1-5.091-5.08 5.077 5.077 0 0 1 5.091-5.08 5.074 5.074 0 0 1 5.076 5.08" mask="url(#eo)"/>
            </g>
            <g transform="matrix(0 -1 -1 0 364.5 154.5)">
                <mask id="eq" fill="#fff">
                    <use xlink:href="#ep"/>
                </mask>
                <path fill="#FFF" d="M51.567 200.985c0 2.8-2.278 5.08-5.076 5.08a5.088 5.088 0 0 1-5.091-5.08 5.078 5.078 0 0 1 5.091-5.08 5.075 5.075 0 0 1 5.076 5.08" mask="url(#eq)"/>
            </g>
            <g transform="matrix(0 -1 -1 0 364.5 154.5)">
                <mask id="es" fill="#fff">
                    <use xlink:href="#er"/>
                </mask>
                <path fill="#FFF" d="M51.567 173.021a5.074 5.074 0 0 1-5.076 5.08 5.077 5.077 0 0 1-5.091-5.08 5.078 5.078 0 0 1 5.091-5.08 5.075 5.075 0 0 1 5.076 5.08" mask="url(#es)"/>
            </g>
            <g transform="matrix(0 -1 -1 0 364.5 154.5)">
                <mask id="eu" fill="#fff">
                    <use xlink:href="#et"/>
                </mask>
                <path fill="#FFF" d="M51.567 145.058c0 2.8-2.278 5.08-5.076 5.08a5.088 5.088 0 0 1-5.091-5.08 5.077 5.077 0 0 1 5.091-5.08 5.074 5.074 0 0 1 5.076 5.08" mask="url(#eu)"/>
            </g>
            <g transform="matrix(0 -1 -1 0 364.5 154.5)">
                <mask id="ew" fill="#fff">
                    <use xlink:href="#ev"/>
                </mask>
                <path fill="#FFF" d="M51.567 117.095c0 2.799-2.278 5.08-5.076 5.08a5.088 5.088 0 1 1 0-10.177c2.798 0 5.076 2.28 5.076 5.097" mask="url(#ew)"/>
            </g>
            <g transform="matrix(0 -1 -1 0 364.5 154.5)">
                <mask id="ey" fill="#fff">
                    <use xlink:href="#ex"/>
                </mask>
                <path fill="#FFF" d="M51.567 89.132c0 2.799-2.278 5.08-5.076 5.08a5.088 5.088 0 1 1 0-10.177c2.798 0 5.076 2.28 5.076 5.097" mask="url(#ey)"/>
            </g>
            <g transform="matrix(0 -1 -1 0 364.5 154.5)">
                <mask id="eA" fill="#fff">
                    <use xlink:href="#ez"/>
                </mask>
                <path fill="#FFF" d="M51.567 61.168c0 2.8-2.278 5.08-5.076 5.08a5.088 5.088 0 1 1 0-10.176c2.798 0 5.076 2.28 5.076 5.096" mask="url(#eA)"/>
            </g>
            <g transform="matrix(0 -1 -1 0 364.5 154.5)">
                <mask id="eC" fill="#fff">
                    <use xlink:href="#eB"/>
                </mask>
                <path fill="#FFF" d="M51.567 33.205c0 2.8-2.278 5.079-5.076 5.079a5.088 5.088 0 1 1 0-10.175c2.798 0 5.076 2.28 5.076 5.096" mask="url(#eC)"/>
            </g>
            <g transform="matrix(0 -1 -1 0 364.5 154.5)">
                <mask id="eE" fill="#fff">
                    <use xlink:href="#eD"/>
                </mask>
                <path fill="#FFF" d="M51.567 5.241c0 2.8-2.278 5.08-5.076 5.08a5.088 5.088 0 1 1 0-10.176c2.798 0 5.076 2.28 5.076 5.096" mask="url(#eE)"/>
            </g>
            <g transform="matrix(0 -1 -1 0 364.5 154.5)">
                <mask id="eH" fill="#fff">
                    <use xlink:href="#eG"/>
                </mask>
                <path fill="#FFF" d="M39.272 355.638c0 2.8-2.278 5.08-5.092 5.08a5.085 5.085 0 0 1-5.075-5.08c0-2.816 2.277-5.097 5.075-5.097a5.093 5.093 0 0 1 5.092 5.097" mask="url(#eH)"/>
            </g>
            <g transform="matrix(0 -1 -1 0 364.5 154.5)">
                <mask id="eJ" fill="#fff">
                    <use xlink:href="#eI"/>
                </mask>
                <path fill="#FFF" d="M39.272 327.675c0 2.799-2.278 5.08-5.092 5.08a5.085 5.085 0 0 1-5.075-5.08c0-2.817 2.277-5.097 5.075-5.097a5.092 5.092 0 0 1 5.092 5.097" mask="url(#eJ)"/>
            </g>
            <g transform="matrix(0 -1 -1 0 364.5 154.5)">
                <mask id="eL" fill="#fff">
                    <use xlink:href="#eK"/>
                </mask>
                <path fill="#FFF" d="M39.272 299.712c0 2.799-2.278 5.08-5.092 5.08a5.085 5.085 0 0 1-5.075-5.08c0-2.818 2.277-5.097 5.075-5.097a5.092 5.092 0 0 1 5.092 5.097" mask="url(#eL)"/>
            </g>
            <g transform="matrix(0 -1 -1 0 364.5 154.5)">
                <mask id="eN" fill="#fff">
                    <use xlink:href="#eM"/>
                </mask>
                <path fill="#FFF" d="M39.272 271.731a5.091 5.091 0 0 1-5.092 5.096c-2.798 0-5.075-2.28-5.075-5.096 0-2.8 2.277-5.08 5.075-5.08a5.088 5.088 0 0 1 5.092 5.08" mask="url(#eN)"/>
            </g>
            <g transform="matrix(0 -1 -1 0 364.5 154.5)">
                <mask id="eP" fill="#fff">
                    <use xlink:href="#eO"/>
                </mask>
                <path fill="#FFF" d="M39.272 243.768a5.091 5.091 0 0 1-5.092 5.096c-2.798 0-5.075-2.28-5.075-5.096 0-2.8 2.277-5.08 5.075-5.08a5.088 5.088 0 0 1 5.092 5.08" mask="url(#eP)"/>
            </g>
            <g transform="matrix(0 -1 -1 0 364.5 154.5)">
                <mask id="eR" fill="#fff">
                    <use xlink:href="#eQ"/>
                </mask>
                <path fill="#FFF" d="M39.272 215.805a5.091 5.091 0 0 1-5.092 5.096c-2.798 0-5.075-2.28-5.075-5.096 0-2.8 2.277-5.08 5.075-5.08a5.088 5.088 0 0 1 5.092 5.08" mask="url(#eR)"/>
            </g>
            <g transform="matrix(0 -1 -1 0 364.5 154.5)">
                <mask id="eT" fill="#fff">
                    <use xlink:href="#eS"/>
                </mask>
                <path fill="#FFF" d="M39.272 187.842a5.091 5.091 0 0 1-5.092 5.095c-2.798 0-5.075-2.28-5.075-5.095 0-2.8 2.277-5.08 5.075-5.08a5.088 5.088 0 0 1 5.092 5.08" mask="url(#eT)"/>
            </g>
            <g transform="matrix(0 -1 -1 0 364.5 154.5)">
                <mask id="eV" fill="#fff">
                    <use xlink:href="#eU"/>
                </mask>
                <path fill="#FFF" d="M39.272 159.877a5.092 5.092 0 0 1-5.092 5.098c-2.798 0-5.075-2.28-5.075-5.098 0-2.799 2.277-5.079 5.075-5.079a5.088 5.088 0 0 1 5.092 5.08" mask="url(#eV)"/>
            </g>
            <g transform="matrix(0 -1 -1 0 364.5 154.5)">
                <mask id="eX" fill="#fff">
                    <use xlink:href="#eW"/>
                </mask>
                <path fill="#FFF" d="M39.272 131.914a5.077 5.077 0 0 1-5.092 5.08 5.074 5.074 0 0 1-5.075-5.08c0-2.799 2.277-5.08 5.075-5.08a5.088 5.088 0 0 1 5.092 5.08" mask="url(#eX)"/>
            </g>
            <g transform="matrix(0 -1 -1 0 364.5 154.5)">
                <mask id="eZ" fill="#fff">
                    <use xlink:href="#eY"/>
                </mask>
                <path fill="#FFF" d="M39.272 103.951a5.077 5.077 0 0 1-5.092 5.08 5.074 5.074 0 0 1-5.075-5.08 5.074 5.074 0 0 1 5.075-5.08 5.077 5.077 0 0 1 5.092 5.08" mask="url(#eZ)"/>
            </g>
            <g transform="matrix(0 -1 -1 0 364.5 154.5)">
                <mask id="fb" fill="#fff">
                    <use xlink:href="#fa"/>
                </mask>
                <path fill="#FFF" d="M39.272 75.988a5.077 5.077 0 0 1-5.092 5.08 5.074 5.074 0 0 1-5.075-5.08 5.074 5.074 0 0 1 5.075-5.08 5.077 5.077 0 0 1 5.092 5.08" mask="url(#fb)"/>
            </g>
            <g transform="matrix(0 -1 -1 0 364.5 154.5)">
                <mask id="fd" fill="#fff">
                    <use xlink:href="#fc"/>
                </mask>
                <path fill="#FFF" d="M39.272 48.025a5.077 5.077 0 0 1-5.092 5.08 5.074 5.074 0 0 1-5.075-5.08 5.075 5.075 0 0 1 5.075-5.08 5.078 5.078 0 0 1 5.092 5.08" mask="url(#fd)"/>
            </g>
            <g transform="matrix(0 -1 -1 0 364.5 154.5)">
                <mask id="ff" fill="#fff">
                    <use xlink:href="#fe"/>
                </mask>
                <path fill="#FFF" d="M39.272 20.061a5.078 5.078 0 0 1-5.092 5.08 5.075 5.075 0 0 1-5.075-5.08 5.074 5.074 0 0 1 5.075-5.08 5.077 5.077 0 0 1 5.092 5.08" mask="url(#ff)"/>
            </g>
            <g transform="matrix(0 -1 -1 0 364.5 154.5)">
                <mask id="fh" fill="#fff">
                    <use xlink:href="#fg"/>
                </mask>
                <path fill="#FFF" d="M26.961 368.765c0 2.8-2.262 5.095-5.076 5.095-2.814 0-5.076-2.295-5.076-5.095s2.262-5.08 5.076-5.08a5.074 5.074 0 0 1 5.076 5.08" mask="url(#fh)"/>
            </g>
            <g transform="matrix(0 -1 -1 0 364.5 154.5)">
                <mask id="fj" fill="#fff">
                    <use xlink:href="#fi"/>
                </mask>
                <path fill="#FFF" d="M26.961 340.801c0 2.8-2.262 5.096-5.076 5.096-2.814 0-5.076-2.296-5.076-5.096 0-2.8 2.262-5.08 5.076-5.08a5.074 5.074 0 0 1 5.076 5.08" mask="url(#fj)"/>
            </g>
            <g transform="matrix(0 -1 -1 0 364.5 154.5)">
                <mask id="fl" fill="#fff">
                    <use xlink:href="#fk"/>
                </mask>
                <path fill="#FFF" d="M26.961 312.838c0 2.8-2.262 5.096-5.076 5.096-2.814 0-5.076-2.297-5.076-5.096 0-2.8 2.262-5.08 5.076-5.08a5.074 5.074 0 0 1 5.076 5.08" mask="url(#fl)"/>
            </g>
            <g transform="matrix(0 -1 -1 0 364.5 154.5)">
                <mask id="fn" fill="#fff">
                    <use xlink:href="#fm"/>
                </mask>
                <path fill="#FFF" d="M26.961 284.874c0 2.8-2.262 5.08-5.076 5.08a5.074 5.074 0 0 1-5.076-5.08 5.075 5.075 0 1 1 10.152 0" mask="url(#fn)"/>
            </g>
            <g transform="matrix(0 -1 -1 0 364.5 154.5)">
                <mask id="fp" fill="#fff">
                    <use xlink:href="#fo"/>
                </mask>
                <path fill="#FFF" d="M26.961 256.911c0 2.8-2.262 5.08-5.076 5.08a5.074 5.074 0 0 1-5.076-5.08 5.064 5.064 0 0 1 5.076-5.08 5.064 5.064 0 0 1 5.076 5.08" mask="url(#fp)"/>
            </g>
            <g transform="matrix(0 -1 -1 0 364.5 154.5)">
                <mask id="fr" fill="#fff">
                    <use xlink:href="#fq"/>
                </mask>
                <path fill="#FFF" d="M26.961 228.948c0 2.8-2.262 5.08-5.076 5.08a5.074 5.074 0 0 1-5.076-5.08 5.064 5.064 0 0 1 5.076-5.08 5.064 5.064 0 0 1 5.076 5.08" mask="url(#fr)"/>
            </g>
            <g transform="matrix(0 -1 -1 0 364.5 154.5)">
                <mask id="ft" fill="#fff">
                    <use xlink:href="#fs"/>
                </mask>
                <path fill="#FFF" d="M26.961 200.985c0 2.8-2.262 5.08-5.076 5.08a5.074 5.074 0 0 1-5.076-5.08 5.065 5.065 0 0 1 5.076-5.08 5.065 5.065 0 0 1 5.076 5.08" mask="url(#ft)"/>
            </g>
            <g transform="matrix(0 -1 -1 0 364.5 154.5)">
                <mask id="fv" fill="#fff">
                    <use xlink:href="#fu"/>
                </mask>
                <path fill="#FFF" d="M26.961 173.021a5.064 5.064 0 0 1-5.076 5.08 5.064 5.064 0 0 1-5.076-5.08 5.065 5.065 0 0 1 5.076-5.08 5.065 5.065 0 0 1 5.076 5.08" mask="url(#fv)"/>
            </g>
            <g transform="matrix(0 -1 -1 0 364.5 154.5)">
                <mask id="fx" fill="#fff">
                    <use xlink:href="#fw"/>
                </mask>
                <path fill="#FFF" d="M26.961 145.058c0 2.8-2.262 5.08-5.076 5.08a5.075 5.075 0 0 1-5.076-5.08 5.064 5.064 0 0 1 5.076-5.08 5.064 5.064 0 0 1 5.076 5.08" mask="url(#fx)"/>
            </g>
            <g transform="matrix(0 -1 -1 0 364.5 154.5)">
                <mask id="fz" fill="#fff">
                    <use xlink:href="#fy"/>
                </mask>
                <path fill="#FFF" d="M26.961 117.095a5.075 5.075 0 1 1-10.152 0c0-2.817 2.262-5.097 5.076-5.097 2.814 0 5.076 2.28 5.076 5.097" mask="url(#fz)"/>
            </g>
            <g transform="matrix(0 -1 -1 0 364.5 154.5)">
                <mask id="fB" fill="#fff">
                    <use xlink:href="#fA"/>
                </mask>
                <path fill="#FFF" d="M26.961 89.132a5.075 5.075 0 1 1-10.152 0c0-2.817 2.262-5.097 5.076-5.097 2.814 0 5.076 2.28 5.076 5.097" mask="url(#fB)"/>
            </g>
            <g transform="matrix(0 -1 -1 0 364.5 154.5)">
                <mask id="fD" fill="#fff">
                    <use xlink:href="#fC"/>
                </mask>
                <path fill="#FFF" d="M26.961 61.168c0 2.8-2.262 5.08-5.076 5.08a5.074 5.074 0 0 1-5.076-5.08 5.078 5.078 0 0 1 5.076-5.096 5.078 5.078 0 0 1 5.076 5.096" mask="url(#fD)"/>
            </g>
            <g transform="matrix(0 -1 -1 0 364.5 154.5)">
                <mask id="fF" fill="#fff">
                    <use xlink:href="#fE"/>
                </mask>
                <path fill="#FFF" d="M26.961 33.205c0 2.8-2.262 5.079-5.076 5.079a5.074 5.074 0 0 1-5.076-5.08 5.078 5.078 0 0 1 5.076-5.095 5.078 5.078 0 0 1 5.076 5.096" mask="url(#fF)"/>
            </g>
            <g transform="matrix(0 -1 -1 0 364.5 154.5)">
                <mask id="fH" fill="#fff">
                    <use xlink:href="#fG"/>
                </mask>
                <path fill="#FFF" d="M26.961 5.241c0 2.8-2.262 5.08-5.076 5.08a5.074 5.074 0 0 1-5.076-5.08A5.078 5.078 0 0 1 21.885.145a5.078 5.078 0 0 1 5.076 5.096" mask="url(#fH)"/>
            </g>
            <g transform="matrix(0 -1 -1 0 364.5 154.5)">
                <mask id="fK" fill="#fff">
                    <use xlink:href="#fJ"/>
                </mask>
                <path fill="#FFF" d="M14.666 355.638c0 2.8-2.278 5.08-5.093 5.08a5.085 5.085 0 0 1-5.075-5.08c0-2.816 2.279-5.097 5.075-5.097a5.093 5.093 0 0 1 5.093 5.097" mask="url(#fK)"/>
            </g>
            <g transform="matrix(0 -1 -1 0 364.5 154.5)">
                <mask id="fM" fill="#fff">
                    <use xlink:href="#fL"/>
                </mask>
                <path fill="#FFF" d="M14.666 327.675c0 2.799-2.278 5.08-5.093 5.08a5.085 5.085 0 0 1-5.075-5.08c0-2.817 2.279-5.097 5.075-5.097a5.092 5.092 0 0 1 5.093 5.097" mask="url(#fM)"/>
            </g>
            <g transform="matrix(0 -1 -1 0 364.5 154.5)">
                <mask id="fO" fill="#fff">
                    <use xlink:href="#fN"/>
                </mask>
                <path fill="#FFF" d="M14.666 299.712c0 2.799-2.278 5.08-5.093 5.08a5.085 5.085 0 0 1-5.075-5.08c0-2.818 2.279-5.097 5.075-5.097a5.092 5.092 0 0 1 5.093 5.097" mask="url(#fO)"/>
            </g>
            <g transform="matrix(0 -1 -1 0 364.5 154.5)">
                <mask id="fQ" fill="#fff">
                    <use xlink:href="#fP"/>
                </mask>
                <path fill="#FFF" d="M14.666 271.731a5.092 5.092 0 0 1-5.093 5.096c-2.796 0-5.075-2.28-5.075-5.096 0-2.8 2.279-5.08 5.075-5.08a5.088 5.088 0 0 1 5.093 5.08" mask="url(#fQ)"/>
            </g>
            <g transform="matrix(0 -1 -1 0 364.5 154.5)">
                <mask id="fS" fill="#fff">
                    <use xlink:href="#fR"/>
                </mask>
                <path fill="#FFF" d="M14.666 243.768a5.092 5.092 0 0 1-5.093 5.096c-2.796 0-5.075-2.28-5.075-5.096 0-2.8 2.279-5.08 5.075-5.08a5.088 5.088 0 0 1 5.093 5.08" mask="url(#fS)"/>
            </g>
            <g transform="matrix(0 -1 -1 0 364.5 154.5)">
                <mask id="fU" fill="#fff">
                    <use xlink:href="#fT"/>
                </mask>
                <path fill="#FFF" d="M14.666 215.805a5.092 5.092 0 0 1-5.093 5.096c-2.796 0-5.075-2.28-5.075-5.096 0-2.8 2.279-5.08 5.075-5.08a5.088 5.088 0 0 1 5.093 5.08" mask="url(#fU)"/>
            </g>
            <g transform="matrix(0 -1 -1 0 364.5 154.5)">
                <mask id="fW" fill="#fff">
                    <use xlink:href="#fV"/>
                </mask>
                <path fill="#FFF" d="M14.666 187.842a5.092 5.092 0 0 1-5.093 5.095c-2.796 0-5.075-2.28-5.075-5.095 0-2.8 2.279-5.08 5.075-5.08a5.088 5.088 0 0 1 5.093 5.08" mask="url(#fW)"/>
            </g>
            <g transform="matrix(0 -1 -1 0 364.5 154.5)">
                <mask id="fY" fill="#fff">
                    <use xlink:href="#fX"/>
                </mask>
                <path fill="#FFF" d="M14.666 159.877a5.092 5.092 0 0 1-5.093 5.098c-2.796 0-5.075-2.28-5.075-5.098 0-2.799 2.279-5.079 5.075-5.079a5.089 5.089 0 0 1 5.093 5.08" mask="url(#fY)"/>
            </g>
            <g transform="matrix(0 -1 -1 0 364.5 154.5)">
                <mask id="ga" fill="#fff">
                    <use xlink:href="#fZ"/>
                </mask>
                <path fill="#FFF" d="M14.666 131.914a5.077 5.077 0 0 1-5.093 5.08 5.074 5.074 0 0 1-5.075-5.08c0-2.799 2.279-5.08 5.075-5.08a5.089 5.089 0 0 1 5.093 5.08" mask="url(#ga)"/>
            </g>
            <g transform="matrix(0 -1 -1 0 364.5 154.5)">
                <mask id="gc" fill="#fff">
                    <use xlink:href="#gb"/>
                </mask>
                <path fill="#FFF" d="M14.666 103.951a5.078 5.078 0 0 1-5.093 5.08 5.074 5.074 0 0 1-5.075-5.08 5.074 5.074 0 0 1 5.075-5.08 5.078 5.078 0 0 1 5.093 5.08" mask="url(#gc)"/>
            </g>
            <g transform="matrix(0 -1 -1 0 364.5 154.5)">
                <mask id="ge" fill="#fff">
                    <use xlink:href="#gd"/>
                </mask>
                <path fill="#FFF" d="M14.666 75.988a5.078 5.078 0 0 1-5.093 5.08 5.074 5.074 0 0 1-5.075-5.08 5.074 5.074 0 0 1 5.075-5.08 5.078 5.078 0 0 1 5.093 5.08" mask="url(#ge)"/>
            </g>
            <g transform="matrix(0 -1 -1 0 364.5 154.5)">
                <mask id="gg" fill="#fff">
                    <use xlink:href="#gf"/>
                </mask>
                <path fill="#FFF" d="M14.666 48.025a5.078 5.078 0 0 1-5.093 5.08 5.074 5.074 0 0 1-5.075-5.08 5.075 5.075 0 0 1 5.075-5.08 5.078 5.078 0 0 1 5.093 5.08" mask="url(#gg)"/>
            </g>
            <g transform="matrix(0 -1 -1 0 364.5 154.5)">
                <mask id="gi" fill="#fff">
                    <use xlink:href="#gh"/>
                </mask>
                <path fill="#FFF" d="M14.666 20.061a5.078 5.078 0 0 1-5.093 5.08 5.075 5.075 0 0 1-5.075-5.08 5.074 5.074 0 0 1 5.075-5.08 5.078 5.078 0 0 1 5.093 5.08" mask="url(#gi)"/>
            </g>
            <g transform="matrix(0 -1 -1 0 364.5 154.5)">
                <mask id="gk" fill="#fff">
                    <use xlink:href="#gj"/>
                </mask>
                <path fill="#FFF" d="M2.354 368.765c0 2.8-2.26 5.095-5.075 5.095-2.797 0-5.075-2.295-5.075-5.095s2.278-5.08 5.075-5.08a5.073 5.073 0 0 1 5.075 5.08" mask="url(#gk)"/>
            </g>
            <g transform="matrix(0 -1 -1 0 364.5 154.5)">
                <mask id="gm" fill="#fff">
                    <use xlink:href="#gl"/>
                </mask>
                <path fill="#FFF" d="M2.354 340.801c0 2.8-2.26 5.096-5.075 5.096-2.797 0-5.075-2.296-5.075-5.096 0-2.8 2.278-5.08 5.075-5.08a5.073 5.073 0 0 1 5.075 5.08" mask="url(#gm)"/>
            </g>
            <g transform="matrix(0 -1 -1 0 364.5 154.5)">
                <mask id="go" fill="#fff">
                    <use xlink:href="#gn"/>
                </mask>
                <path fill="#FFF" d="M2.354 312.838c0 2.8-2.26 5.096-5.075 5.096-2.797 0-5.075-2.297-5.075-5.096 0-2.8 2.278-5.08 5.075-5.08a5.073 5.073 0 0 1 5.075 5.08" mask="url(#go)"/>
            </g>
            <g transform="matrix(0 -1 -1 0 364.5 154.5)">
                <mask id="gq" fill="#fff">
                    <use xlink:href="#gp"/>
                </mask>
                <path fill="#FFF" d="M2.354 284.874c0 2.8-2.26 5.08-5.075 5.08a5.085 5.085 0 0 1-5.075-5.08c0-2.799 2.278-5.08 5.075-5.08a5.074 5.074 0 0 1 5.075 5.08" mask="url(#gq)"/>
            </g>
            <g transform="matrix(0 -1 -1 0 364.5 154.5)">
                <mask id="gs" fill="#fff">
                    <use xlink:href="#gr"/>
                </mask>
                <path fill="#FFF" d="M2.354 256.911c0 2.8-2.26 5.08-5.075 5.08a5.085 5.085 0 0 1-5.075-5.08 5.074 5.074 0 0 1 5.075-5.08 5.063 5.063 0 0 1 5.075 5.08" mask="url(#gs)"/>
            </g>
            <g transform="matrix(0 -1 -1 0 364.5 154.5)">
                <mask id="gu" fill="#fff">
                    <use xlink:href="#gt"/>
                </mask>
                <path fill="#FFF" d="M2.354 228.948c0 2.8-2.26 5.08-5.075 5.08a5.085 5.085 0 0 1-5.075-5.08 5.074 5.074 0 0 1 5.075-5.08 5.063 5.063 0 0 1 5.075 5.08" mask="url(#gu)"/>
            </g>
            <g transform="matrix(0 -1 -1 0 364.5 154.5)">
                <mask id="gw" fill="#fff">
                    <use xlink:href="#gv"/>
                </mask>
                <path fill="#FFF" d="M2.354 200.985c0 2.8-2.26 5.08-5.075 5.08a5.085 5.085 0 0 1-5.075-5.08 5.075 5.075 0 0 1 5.075-5.08 5.064 5.064 0 0 1 5.075 5.08" mask="url(#gw)"/>
            </g>
            <g transform="matrix(0 -1 -1 0 364.5 154.5)">
                <mask id="gy" fill="#fff">
                    <use xlink:href="#gx"/>
                </mask>
                <path fill="#FFF" d="M2.354 173.021c0 2.817-2.26 5.08-5.075 5.08a5.074 5.074 0 0 1-5.075-5.08 5.075 5.075 0 0 1 5.075-5.08 5.064 5.064 0 0 1 5.075 5.08" mask="url(#gy)"/>
            </g>
            <g transform="matrix(0 -1 -1 0 364.5 154.5)">
                <mask id="gA" fill="#fff">
                    <use xlink:href="#gz"/>
                </mask>
                <path fill="#FFF" d="M2.354 145.058c0 2.8-2.26 5.08-5.075 5.08a5.085 5.085 0 0 1-5.075-5.08 5.074 5.074 0 0 1 5.075-5.08 5.063 5.063 0 0 1 5.075 5.08" mask="url(#gA)"/>
            </g>
            <g transform="matrix(0 -1 -1 0 364.5 154.5)">
                <mask id="gC" fill="#fff">
                    <use xlink:href="#gB"/>
                </mask>
                <path fill="#FFF" d="M2.354 117.095c0 2.799-2.26 5.08-5.075 5.08a5.085 5.085 0 0 1-5.075-5.08c0-2.817 2.278-5.097 5.075-5.097 2.814 0 5.075 2.28 5.075 5.097" mask="url(#gC)"/>
            </g>
            <g transform="matrix(0 -1 -1 0 364.5 154.5)">
                <mask id="gE" fill="#fff">
                    <use xlink:href="#gD"/>
                </mask>
                <path fill="#FFF" d="M2.354 89.132c0 2.799-2.26 5.08-5.075 5.08a5.085 5.085 0 0 1-5.075-5.08c0-2.817 2.278-5.097 5.075-5.097 2.814 0 5.075 2.28 5.075 5.097" mask="url(#gE)"/>
            </g>
            <g transform="matrix(0 -1 -1 0 364.5 154.5)">
                <mask id="gG" fill="#fff">
                    <use xlink:href="#gF"/>
                </mask>
                <path fill="#FFF" d="M2.354 61.168c0 2.8-2.26 5.08-5.075 5.08a5.085 5.085 0 0 1-5.075-5.08c0-2.816 2.278-5.096 5.075-5.096 2.814 0 5.075 2.28 5.075 5.096" mask="url(#gG)"/>
            </g>
            <g transform="matrix(0 -1 -1 0 364.5 154.5)">
                <mask id="gI" fill="#fff">
                    <use xlink:href="#gH"/>
                </mask>
                <path fill="#FFF" d="M2.354 33.205c0 2.8-2.26 5.079-5.075 5.079a5.085 5.085 0 0 1-5.075-5.08c0-2.816 2.278-5.095 5.075-5.095 2.814 0 5.075 2.28 5.075 5.096" mask="url(#gI)"/>
            </g>
            <g transform="matrix(0 -1 -1 0 364.5 154.5)">
                <mask id="gK" fill="#fff">
                    <use xlink:href="#gJ"/>
                </mask>
                <path fill="#FFF" d="M2.354 5.241c0 2.8-2.26 5.08-5.075 5.08a5.085 5.085 0 0 1-5.075-5.08c0-2.816 2.278-5.096 5.075-5.096 2.814 0 5.075 2.28 5.075 5.096" mask="url(#gK)"/>
            </g>
        </g>
        <circle cx="489.5" cy="327.5" r="11.5" fill="#FFF" fill-rule="nonzero" mask="url(#b)"/>
        <path stroke="#FFF" stroke-width="14" d="M653.054 26c0 22.673 18.38 41.054 41.054 41.054-22.673 0-41.054 18.38-41.054 41.054 0-22.674-18.38-41.054-41.054-41.054 22.674 0 41.054-18.38 41.054-41.054M81.054 298c0 22.673 18.38 41.054 41.054 41.054-22.673 0-41.054 18.38-41.054 41.054 0-22.674-18.38-41.054-41.054-41.054 22.674 0 41.054-18.38 41.054-41.054" mask="url(#b)"/>
    </g>
</svg>
