<svg xmlns="http://www.w3.org/2000/svg" xmlns:xlink="http://www.w3.org/1999/xlink" width="1440" height="390" viewBox="0 0 1440 390">
    <defs>
        <path id="a" d="M0 0h1440v390H0z"/>
        <path id="c" d="M46.423 40.124L.063 325.868l173.835 57.073V.569"/>
        <path id="d" d="M46.423 40.124L.063 325.868l173.835 57.073V.569"/>
        <path id="e" d="M46.423 40.124L.063 325.868l173.835 57.073V.569"/>
        <path id="f" d="M46.423 40.124L.063 325.868l173.835 57.073V.569"/>
        <path id="g" d="M46.423 40.124L.063 325.868l173.835 57.073V.569"/>
        <path id="h" d="M46.423 40.124L.063 325.868l173.835 57.073V.569"/>
        <path id="i" d="M46.423 40.124L.063 325.868l173.835 57.073V.569"/>
        <path id="j" d="M46.423 40.124L.063 325.868l173.835 57.073V.569"/>
        <path id="k" d="M46.423 40.124L.063 325.868l173.835 57.073V.569"/>
        <path id="l" d="M46.423 40.124L.063 325.868l173.835 57.073V.569"/>
        <path id="m" d="M46.423 40.124L.063 325.868l173.835 57.073V.569"/>
        <path id="n" d="M46.423 40.124L.063 325.868l173.835 57.073V.569"/>
        <path id="o" d="M46.423 40.124L.063 325.868l173.835 57.073V.569"/>
        <path id="p" d="M46.423 40.124L.063 325.868l173.835 57.073V.569"/>
        <path id="q" d="M46.423 40.124L.063 325.868l173.835 57.073V.569"/>
        <path id="s" d="M46.423 40.124L.063 325.868l173.835 57.073V.569"/>
        <path id="u" d="M46.423 40.124L.063 325.868l173.835 57.073V.569"/>
        <path id="w" d="M46.423 40.124L.063 325.868l173.835 57.073V.569"/>
        <path id="y" d="M46.423 40.124L.063 325.868l173.835 57.073V.569"/>
        <path id="A" d="M46.423 40.124L.063 325.868l173.835 57.073V.569"/>
        <path id="C" d="M46.423 40.124L.063 325.868l173.835 57.073V.569"/>
        <path id="E" d="M46.423 40.124L.063 325.868l173.835 57.073V.569"/>
        <path id="G" d="M46.423 40.124L.063 325.868l173.835 57.073V.569"/>
        <path id="I" d="M46.423 40.124L.063 325.868l173.835 57.073V.569"/>
        <path id="K" d="M46.423 40.124L.063 325.868l173.835 57.073V.569"/>
        <path id="M" d="M46.423 40.124L.063 325.868l173.835 57.073V.569"/>
        <path id="O" d="M46.423 40.124L.063 325.868l173.835 57.073V.569"/>
        <path id="Q" d="M46.423 40.124L.063 325.868l173.835 57.073V.569"/>
        <path id="S" d="M46.423 40.124L.063 325.868l173.835 57.073V.569"/>
        <path id="U" d="M46.423 40.124L.063 325.868l173.835 57.073V.569"/>
        <path id="W" d="M46.423 40.124L.063 325.868l173.835 57.073V.569"/>
        <path id="Y" d="M46.423 40.124L.063 325.868l173.835 57.073V.569"/>
        <path id="aa" d="M46.423 40.124L.063 325.868l173.835 57.073V.569"/>
        <path id="ac" d="M46.423 40.124L.063 325.868l173.835 57.073V.569"/>
        <path id="ae" d="M46.423 40.124L.063 325.868l173.835 57.073V.569"/>
        <path id="ag" d="M46.423 40.124L.063 325.868l173.835 57.073V.569"/>
        <path id="ai" d="M46.423 40.124L.063 325.868l173.835 57.073V.569"/>
        <path id="ak" d="M46.423 40.124L.063 325.868l173.835 57.073V.569"/>
        <path id="am" d="M46.423 40.124L.063 325.868l173.835 57.073V.569"/>
        <path id="ao" d="M46.423 40.124L.063 325.868l173.835 57.073V.569"/>
        <path id="aq" d="M46.423 40.124L.063 325.868l173.835 57.073V.569"/>
        <path id="as" d="M46.423 40.124L.063 325.868l173.835 57.073V.569"/>
        <path id="au" d="M46.423 40.124L.063 325.868l173.835 57.073V.569"/>
        <path id="aw" d="M46.423 40.124L.063 325.868l173.835 57.073V.569"/>
        <path id="ay" d="M46.423 40.124L.063 325.868l173.835 57.073V.569"/>
        <path id="aA" d="M46.423 40.124L.063 325.868l173.835 57.073V.569"/>
        <path id="aC" d="M46.423 40.124L.063 325.868l173.835 57.073V.569"/>
        <path id="aE" d="M46.423 40.124L.063 325.868l173.835 57.073V.569"/>
        <path id="aG" d="M46.423 40.124L.063 325.868l173.835 57.073V.569"/>
        <path id="aI" d="M46.423 40.124L.063 325.868l173.835 57.073V.569"/>
        <path id="aK" d="M46.423 40.124L.063 325.868l173.835 57.073V.569"/>
        <path id="aM" d="M46.423 40.124L.063 325.868l173.835 57.073V.569"/>
        <path id="aO" d="M46.423 40.124L.063 325.868l173.835 57.073V.569"/>
        <path id="aQ" d="M46.423 40.124L.063 325.868l173.835 57.073V.569"/>
        <path id="aS" d="M46.423 40.124L.063 325.868l173.835 57.073V.569"/>
        <path id="aU" d="M46.423 40.124L.063 325.868l173.835 57.073V.569"/>
        <path id="aW" d="M46.423 40.124L.063 325.868l173.835 57.073V.569"/>
        <path id="aY" d="M46.423 40.124L.063 325.868l173.835 57.073V.569"/>
        <path id="ba" d="M46.423 40.124L.063 325.868l173.835 57.073V.569"/>
        <path id="bc" d="M46.423 40.124L.063 325.868l173.835 57.073V.569"/>
        <path id="be" d="M46.423 40.124L.063 325.868l173.835 57.073V.569"/>
        <path id="bg" d="M46.423 40.124L.063 325.868l173.835 57.073V.569"/>
        <path id="bi" d="M46.423 40.124L.063 325.868l173.835 57.073V.569"/>
        <path id="bk" d="M46.423 40.124L.063 325.868l173.835 57.073V.569"/>
        <path id="bm" d="M46.423 40.124L.063 325.868l173.835 57.073V.569"/>
        <path id="bo" d="M46.423 40.124L.063 325.868l173.835 57.073V.569"/>
        <path id="bq" d="M46.423 40.124L.063 325.868l173.835 57.073V.569"/>
        <path id="bs" d="M46.423 40.124L.063 325.868l173.835 57.073V.569"/>
        <path id="bu" d="M46.423 40.124L.063 325.868l173.835 57.073V.569"/>
        <path id="bw" d="M46.423 40.124L.063 325.868l173.835 57.073V.569"/>
        <path id="by" d="M46.423 40.124L.063 325.868l173.835 57.073V.569"/>
        <path id="bA" d="M46.423 40.124L.063 325.868l173.835 57.073V.569"/>
        <path id="bC" d="M46.423 40.124L.063 325.868l173.835 57.073V.569"/>
        <path id="bE" d="M46.423 40.124L.063 325.868l173.835 57.073V.569"/>
        <path id="bG" d="M46.423 40.124L.063 325.868l173.835 57.073V.569"/>
        <path id="bI" d="M46.423 40.124L.063 325.868l173.835 57.073V.569"/>
        <path id="bK" d="M46.423 40.124L.063 325.868l173.835 57.073V.569"/>
        <path id="bM" d="M46.423 40.124L.063 325.868l173.835 57.073V.569"/>
        <path id="bO" d="M46.423 40.124L.063 325.868l173.835 57.073V.569"/>
        <path id="bQ" d="M46.423 40.124L.063 325.868l173.835 57.073V.569"/>
        <path id="bS" d="M46.423 40.124L.063 325.868l173.835 57.073V.569"/>
        <path id="bU" d="M46.423 40.124L.063 325.868l173.835 57.073V.569"/>
        <path id="bW" d="M46.423 40.124L.063 325.868l173.835 57.073V.569"/>
        <path id="bY" d="M46.423 40.124L.063 325.868l173.835 57.073V.569"/>
        <path id="ca" d="M46.423 40.124L.063 325.868l173.835 57.073V.569"/>
        <path id="cc" d="M46.423 40.124L.063 325.868l173.835 57.073V.569"/>
        <path id="ce" d="M46.423 40.124L.063 325.868l173.835 57.073V.569"/>
        <path id="cg" d="M46.423 40.124L.063 325.868l173.835 57.073V.569"/>
        <path id="ci" d="M46.423 40.124L.063 325.868l173.835 57.073V.569"/>
        <path id="ck" d="M46.423 40.124L.063 325.868l173.835 57.073V.569"/>
        <path id="cm" d="M46.423 40.124L.063 325.868l173.835 57.073V.569"/>
        <path id="co" d="M46.423 40.124L.063 325.868l173.835 57.073V.569"/>
        <path id="cq" d="M46.423 40.124L.063 325.868l173.835 57.073V.569"/>
        <path id="cs" d="M46.423 40.124L.063 325.868l173.835 57.073V.569"/>
        <path id="cu" d="M46.423 40.124L.063 325.868l173.835 57.073V.569"/>
        <path id="cw" d="M46.423 40.124L.063 325.868l173.835 57.073V.569"/>
        <path id="cy" d="M46.423 40.124L.063 325.868l173.835 57.073V.569"/>
        <path id="cA" d="M46.423 40.124L.063 325.868l173.835 57.073V.569"/>
        <path id="cC" d="M46.423 40.124L.063 325.868l173.835 57.073V.569"/>
        <path id="cE" d="M46.423 40.124L.063 325.868l173.835 57.073V.569"/>
        <path id="cG" d="M46.423 40.124L.063 325.868l173.835 57.073V.569"/>
        <path id="cI" d="M46.423 40.124L.063 325.868l173.835 57.073V.569"/>
        <path id="cK" d="M46.423 40.124L.063 325.868l173.835 57.073V.569"/>
        <path id="cM" d="M46.423 40.124L.063 325.868l173.835 57.073V.569"/>
        <path id="cO" d="M46.423 40.124L.063 325.868l173.835 57.073V.569"/>
        <path id="cQ" d="M46.423 40.124L.063 325.868l173.835 57.073V.569"/>
        <path id="cS" d="M46.423 40.124L.063 325.868l173.835 57.073V.569"/>
        <path id="cU" d="M46.423 40.124L.063 325.868l173.835 57.073V.569"/>
        <path id="cW" d="M46.423 40.124L.063 325.868l173.835 57.073V.569"/>
        <path id="cY" d="M46.423 40.124L.063 325.868l173.835 57.073V.569"/>
        <path id="da" d="M46.423 40.124L.063 325.868l173.835 57.073V.569"/>
        <path id="dc" d="M46.423 40.124L.063 325.868l173.835 57.073V.569"/>
        <path id="de" d="M46.423 40.124L.063 325.868l173.835 57.073V.569"/>
        <path id="dg" d="M46.423 40.124L.063 325.868l173.835 57.073V.569"/>
        <path id="di" d="M46.423 40.124L.063 325.868l173.835 57.073V.569"/>
        <path id="dk" d="M46.423 40.124L.063 325.868l173.835 57.073V.569"/>
        <path id="dm" d="M46.423 40.124L.063 325.868l173.835 57.073V.569"/>
        <path id="do" d="M46.423 40.124L.063 325.868l173.835 57.073V.569"/>
        <path id="dq" d="M46.423 40.124L.063 325.868l173.835 57.073V.569"/>
        <path id="ds" d="M46.423 40.124L.063 325.868l173.835 57.073V.569"/>
        <path id="du" d="M46.423 40.124L.063 325.868l173.835 57.073V.569"/>
        <path id="dw" d="M46.423 40.124L.063 325.868l173.835 57.073V.569"/>
        <path id="dy" d="M46.423 40.124L.063 325.868l173.835 57.073V.569"/>
        <path id="dA" d="M46.423 40.124L.063 325.868l173.835 57.073V.569"/>
        <path id="dC" d="M46.423 40.124L.063 325.868l173.835 57.073V.569"/>
        <path id="dE" d="M46.423 40.124L.063 325.868l173.835 57.073V.569"/>
        <path id="dG" d="M46.423 40.124L.063 325.868l173.835 57.073V.569"/>
        <path id="dI" d="M46.423 40.124L.063 325.868l173.835 57.073V.569"/>
        <path id="dK" d="M46.423 40.124L.063 325.868l173.835 57.073V.569"/>
        <path id="dM" d="M46.423 40.124L.063 325.868l173.835 57.073V.569"/>
        <path id="dO" d="M46.423 40.124L.063 325.868l173.835 57.073V.569"/>
        <path id="dQ" d="M46.423 40.124L.063 325.868l173.835 57.073V.569"/>
        <path id="dS" d="M46.423 40.124L.063 325.868l173.835 57.073V.569"/>
        <path id="dU" d="M46.423 40.124L.063 325.868l173.835 57.073V.569"/>
        <path id="dW" d="M46.423 40.124L.063 325.868l173.835 57.073V.569"/>
        <path id="dY" d="M46.423 40.124L.063 325.868l173.835 57.073V.569"/>
        <path id="ea" d="M46.423 40.124L.063 325.868l173.835 57.073V.569"/>
        <path id="ec" d="M46.423 40.124L.063 325.868l173.835 57.073V.569"/>
        <path id="ee" d="M46.423 40.124L.063 325.868l173.835 57.073V.569"/>
        <path id="eg" d="M46.423 40.124L.063 325.868l173.835 57.073V.569"/>
        <path id="ei" d="M46.423 40.124L.063 325.868l173.835 57.073V.569"/>
        <path id="ek" d="M46.423 40.124L.063 325.868l173.835 57.073V.569"/>
        <path id="em" d="M46.423 40.124L.063 325.868l173.835 57.073V.569"/>
        <path id="eo" d="M46.423 40.124L.063 325.868l173.835 57.073V.569"/>
        <path id="eq" d="M46.423 40.124L.063 325.868l173.835 57.073V.569"/>
        <path id="es" d="M46.423 40.124L.063 325.868l173.835 57.073V.569"/>
        <path id="eu" d="M46.423 40.124L.063 325.868l173.835 57.073V.569"/>
        <path id="ew" d="M46.423 40.124L.063 325.868l173.835 57.073V.569"/>
        <path id="ey" d="M46.423 40.124L.063 325.868l173.835 57.073V.569"/>
        <path id="eA" d="M46.423 40.124L.063 325.868l173.835 57.073V.569"/>
        <path id="eC" d="M46.423 40.124L.063 325.868l173.835 57.073V.569"/>
        <path id="eE" d="M46.423 40.124L.063 325.868l173.835 57.073V.569"/>
        <path id="eG" d="M46.423 40.124L.063 325.868l173.835 57.073V.569"/>
        <path id="eI" d="M46.423 40.124L.063 325.868l173.835 57.073V.569"/>
        <path id="eK" d="M46.423 40.124L.063 325.868l173.835 57.073V.569"/>
        <path id="eM" d="M46.423 40.124L.063 325.868l173.835 57.073V.569"/>
        <path id="eO" d="M46.423 40.124L.063 325.868l173.835 57.073V.569"/>
        <path id="eQ" d="M46.423 40.124L.063 325.868l173.835 57.073V.569"/>
        <path id="eS" d="M46.423 40.124L.063 325.868l173.835 57.073V.569"/>
        <path id="eU" d="M46.423 40.124L.063 325.868l173.835 57.073V.569"/>
        <path id="eW" d="M46.423 40.124L.063 325.868l173.835 57.073V.569"/>
        <path id="eY" d="M46.423 40.124L.063 325.868l173.835 57.073V.569"/>
        <path id="fa" d="M46.423 40.124L.063 325.868l173.835 57.073V.569"/>
        <path id="fc" d="M46.423 40.124L.063 325.868l173.835 57.073V.569"/>
        <path id="fe" d="M46.423 40.124L.063 325.868l173.835 57.073V.569"/>
        <path id="fg" d="M46.423 40.124L.063 325.868l173.835 57.073V.569"/>
        <path id="fi" d="M46.423 40.124L.063 325.868l173.835 57.073V.569"/>
        <path id="fk" d="M46.423 40.124L.063 325.868l173.835 57.073V.569"/>
        <path id="fm" d="M46.423 40.124L.063 325.868l173.835 57.073V.569"/>
        <path id="fo" d="M46.423 40.124L.063 325.868l173.835 57.073V.569"/>
        <path id="fq" d="M46.423 40.124L.063 325.868l173.835 57.073V.569"/>
        <path id="fs" d="M46.423 40.124L.063 325.868l173.835 57.073V.569"/>
        <path id="fu" d="M46.423 40.124L.063 325.868l173.835 57.073V.569"/>
        <path id="fw" d="M46.423 40.124L.063 325.868l173.835 57.073V.569"/>
        <path id="fy" d="M46.423 40.124L.063 325.868l173.835 57.073V.569"/>
        <path id="fA" d="M46.423 40.124L.063 325.868l173.835 57.073V.569"/>
        <path id="fC" d="M46.423 40.124L.063 325.868l173.835 57.073V.569"/>
        <path id="fE" d="M46.423 40.124L.063 325.868l173.835 57.073V.569"/>
        <path id="fG" d="M46.423 40.124L.063 325.868l173.835 57.073V.569"/>
        <path id="fI" d="M46.423 40.124L.063 325.868l173.835 57.073V.569"/>
        <path id="fK" d="M46.423 40.124L.063 325.868l173.835 57.073V.569"/>
        <path id="fM" d="M46.423 40.124L.063 325.868l173.835 57.073V.569"/>
        <path id="fO" d="M46.423 40.124L.063 325.868l173.835 57.073V.569"/>
        <path id="fQ" d="M46.423 40.124L.063 325.868l173.835 57.073V.569"/>
        <path id="fS" d="M46.423 40.124L.063 325.868l173.835 57.073V.569"/>
        <path id="fU" d="M46.423 40.124L.063 325.868l173.835 57.073V.569"/>
        <path id="fW" d="M46.423 40.124L.063 325.868l173.835 57.073V.569"/>
        <path id="fY" d="M46.423 40.124L.063 325.868l173.835 57.073V.569"/>
        <path id="ga" d="M46.423 40.124L.063 325.868l173.835 57.073V.569"/>
        <path id="gc" d="M46.423 40.124L.063 325.868l173.835 57.073V.569"/>
        <path id="ge" d="M46.423 40.124L.063 325.868l173.835 57.073V.569"/>
        <path id="gg" d="M46.423 40.124L.063 325.868l173.835 57.073V.569"/>
        <path id="gi" d="M46.423 40.124L.063 325.868l173.835 57.073V.569"/>
        <path id="gk" d="M46.423 40.124L.063 325.868l173.835 57.073V.569"/>
        <path id="gm" d="M46.423 40.124L.063 325.868l173.835 57.073V.569"/>
        <path id="go" d="M46.423 40.124L.063 325.868l173.835 57.073V.569"/>
        <path id="gq" d="M46.423 40.124L.063 325.868l173.835 57.073V.569"/>
        <path id="gs" d="M46.423 40.124L.063 325.868l173.835 57.073V.569"/>
        <path id="gu" d="M46.423 40.124L.063 325.868l173.835 57.073V.569"/>
        <path id="gw" d="M46.423 40.124L.063 325.868l173.835 57.073V.569"/>
        <path id="gy" d="M46.423 40.124L.063 325.868l173.835 57.073V.569"/>
        <path id="gA" d="M46.423 40.124L.063 325.868l173.835 57.073V.569"/>
        <path id="gC" d="M46.423 40.124L.063 325.868l173.835 57.073V.569"/>
        <path id="gE" d="M46.423 40.124L.063 325.868l173.835 57.073V.569"/>
        <path id="gG" d="M46.423 40.124L.063 325.868l173.835 57.073V.569"/>
        <path id="gI" d="M46.423 40.124L.063 325.868l173.835 57.073V.569"/>
        <path id="gK" d="M46.423 40.124L.063 325.868l173.835 57.073V.569"/>
        <path id="gM" d="M46.423 40.124L.063 325.868l173.835 57.073V.569"/>
        <path id="gO" d="M46.423 40.124L.063 325.868l173.835 57.073V.569"/>
        <path id="gQ" d="M46.423 40.124L.063 325.868l173.835 57.073V.569"/>
    </defs>
    <g fill="none" fill-rule="evenodd">
        <mask id="b" fill="#fff">
            <use xlink:href="#a"/>
        </mask>
        <use fill="#E1FA61" fill-rule="nonzero" xlink:href="#a"/>
        <circle cx="1115" cy="410" r="107" fill-rule="nonzero" stroke="#FFF" stroke-width="22" mask="url(#b)"/>
        <g mask="url(#b)">
            <g transform="matrix(0 -1 -1 0 550.5 154.5)">
                <mask id="r" fill="#fff">
                    <use xlink:href="#q"/>
                </mask>
                <path fill="#FFF" d="M162.275 383.601c0 2.8-2.277 5.08-5.083 5.08a5.084 5.084 0 0 1-5.075-5.08c0-2.816 2.278-5.097 5.075-5.097a5.09 5.09 0 0 1 5.083 5.097" mask="url(#r)"/>
            </g>
            <g transform="matrix(0 -1 -1 0 550.5 154.5)">
                <mask id="t" fill="#fff">
                    <use xlink:href="#s"/>
                </mask>
                <path fill="#FFF" d="M162.275 355.638c0 2.8-2.277 5.08-5.083 5.08a5.084 5.084 0 0 1-5.075-5.08c0-2.816 2.278-5.097 5.075-5.097a5.09 5.09 0 0 1 5.083 5.097" mask="url(#t)"/>
            </g>
            <g transform="matrix(0 -1 -1 0 550.5 154.5)">
                <mask id="v" fill="#fff">
                    <use xlink:href="#u"/>
                </mask>
                <path fill="#FFF" d="M162.275 327.675c0 2.799-2.277 5.08-5.083 5.08a5.085 5.085 0 0 1-5.075-5.08c0-2.817 2.278-5.097 5.075-5.097a5.09 5.09 0 0 1 5.083 5.097" mask="url(#v)"/>
            </g>
            <g transform="matrix(0 -1 -1 0 550.5 154.5)">
                <mask id="x" fill="#fff">
                    <use xlink:href="#w"/>
                </mask>
                <path fill="#FFF" d="M162.275 299.712c0 2.799-2.277 5.08-5.083 5.08a5.085 5.085 0 0 1-5.075-5.08c0-2.818 2.278-5.097 5.075-5.097a5.09 5.09 0 0 1 5.083 5.097" mask="url(#x)"/>
            </g>
            <g transform="matrix(0 -1 -1 0 550.5 154.5)">
                <mask id="z" fill="#fff">
                    <use xlink:href="#y"/>
                </mask>
                <path fill="#FFF" d="M162.275 271.731a5.09 5.09 0 0 1-5.083 5.096c-2.797 0-5.075-2.28-5.075-5.096 0-2.8 2.278-5.08 5.075-5.08a5.086 5.086 0 0 1 5.083 5.08" mask="url(#z)"/>
            </g>
            <g transform="matrix(0 -1 -1 0 550.5 154.5)">
                <mask id="B" fill="#fff">
                    <use xlink:href="#A"/>
                </mask>
                <path fill="#FFF" d="M162.275 243.768a5.09 5.09 0 0 1-5.083 5.096c-2.797 0-5.075-2.28-5.075-5.096 0-2.8 2.278-5.08 5.075-5.08a5.086 5.086 0 0 1 5.083 5.08" mask="url(#B)"/>
            </g>
            <g transform="matrix(0 -1 -1 0 550.5 154.5)">
                <mask id="D" fill="#fff">
                    <use xlink:href="#C"/>
                </mask>
                <path fill="#FFF" d="M162.275 215.805a5.09 5.09 0 0 1-5.083 5.096c-2.797 0-5.075-2.28-5.075-5.096 0-2.8 2.278-5.08 5.075-5.08a5.086 5.086 0 0 1 5.083 5.08" mask="url(#D)"/>
            </g>
            <g transform="matrix(0 -1 -1 0 550.5 154.5)">
                <mask id="F" fill="#fff">
                    <use xlink:href="#E"/>
                </mask>
                <path fill="#FFF" d="M162.275 187.842a5.09 5.09 0 0 1-5.083 5.095c-2.797 0-5.075-2.28-5.075-5.095 0-2.8 2.278-5.08 5.075-5.08a5.086 5.086 0 0 1 5.083 5.08" mask="url(#F)"/>
            </g>
            <g transform="matrix(0 -1 -1 0 550.5 154.5)">
                <mask id="H" fill="#fff">
                    <use xlink:href="#G"/>
                </mask>
                <path fill="#FFF" d="M162.275 159.877a5.09 5.09 0 0 1-5.083 5.098c-2.797 0-5.075-2.28-5.075-5.098 0-2.799 2.278-5.079 5.075-5.079a5.087 5.087 0 0 1 5.083 5.08" mask="url(#H)"/>
            </g>
            <g transform="matrix(0 -1 -1 0 550.5 154.5)">
                <mask id="J" fill="#fff">
                    <use xlink:href="#I"/>
                </mask>
                <path fill="#FFF" d="M162.275 131.914a5.075 5.075 0 0 1-5.083 5.08 5.073 5.073 0 0 1-5.075-5.08c0-2.799 2.278-5.08 5.075-5.08a5.087 5.087 0 0 1 5.083 5.08" mask="url(#J)"/>
            </g>
            <g transform="matrix(0 -1 -1 0 550.5 154.5)">
                <mask id="L" fill="#fff">
                    <use xlink:href="#K"/>
                </mask>
                <path fill="#FFF" d="M162.275 103.951a5.076 5.076 0 0 1-5.083 5.08 5.074 5.074 0 0 1-5.075-5.08 5.074 5.074 0 0 1 5.075-5.08 5.076 5.076 0 0 1 5.083 5.08" mask="url(#L)"/>
            </g>
            <g transform="matrix(0 -1 -1 0 550.5 154.5)">
                <mask id="N" fill="#fff">
                    <use xlink:href="#M"/>
                </mask>
                <path fill="#FFF" d="M162.275 75.988a5.076 5.076 0 0 1-5.083 5.08 5.074 5.074 0 0 1-5.075-5.08 5.074 5.074 0 0 1 5.075-5.08 5.076 5.076 0 0 1 5.083 5.08" mask="url(#N)"/>
            </g>
            <g transform="matrix(0 -1 -1 0 550.5 154.5)">
                <mask id="P" fill="#fff">
                    <use xlink:href="#O"/>
                </mask>
                <path fill="#FFF" d="M162.275 48.025a5.076 5.076 0 0 1-5.083 5.08 5.074 5.074 0 0 1-5.075-5.08 5.074 5.074 0 0 1 5.075-5.08 5.076 5.076 0 0 1 5.083 5.08" mask="url(#P)"/>
            </g>
            <g transform="matrix(0 -1 -1 0 550.5 154.5)">
                <mask id="R" fill="#fff">
                    <use xlink:href="#Q"/>
                </mask>
                <path fill="#FFF" d="M162.275 20.061a5.076 5.076 0 0 1-5.083 5.08 5.074 5.074 0 0 1-5.075-5.08 5.074 5.074 0 0 1 5.075-5.08 5.076 5.076 0 0 1 5.083 5.08" mask="url(#R)"/>
            </g>
            <g transform="matrix(0 -1 -1 0 550.5 154.5)">
                <mask id="T" fill="#fff">
                    <use xlink:href="#S"/>
                </mask>
                <path fill="#FFF" d="M149.973 368.765c0 2.8-2.279 5.095-5.076 5.095-2.806 0-5.084-2.295-5.084-5.095s2.278-5.08 5.084-5.08a5.085 5.085 0 0 1 5.076 5.08" mask="url(#T)"/>
            </g>
            <g transform="matrix(0 -1 -1 0 550.5 154.5)">
                <mask id="V" fill="#fff">
                    <use xlink:href="#U"/>
                </mask>
                <path fill="#FFF" d="M149.973 340.801c0 2.8-2.279 5.096-5.076 5.096-2.806 0-5.084-2.296-5.084-5.096 0-2.8 2.278-5.08 5.084-5.08a5.085 5.085 0 0 1 5.076 5.08" mask="url(#V)"/>
            </g>
            <g transform="matrix(0 -1 -1 0 550.5 154.5)">
                <mask id="X" fill="#fff">
                    <use xlink:href="#W"/>
                </mask>
                <path fill="#FFF" d="M149.973 312.838c0 2.8-2.279 5.096-5.076 5.096-2.806 0-5.084-2.297-5.084-5.096 0-2.8 2.278-5.08 5.084-5.08a5.085 5.085 0 0 1 5.076 5.08" mask="url(#X)"/>
            </g>
            <g transform="matrix(0 -1 -1 0 550.5 154.5)">
                <mask id="Z" fill="#fff">
                    <use xlink:href="#Y"/>
                </mask>
                <path fill="#FFF" d="M149.973 284.874c0 2.8-2.279 5.08-5.076 5.08a5.086 5.086 0 0 1-5.084-5.08c0-2.799 2.278-5.08 5.084-5.08a5.085 5.085 0 0 1 5.076 5.08" mask="url(#Z)"/>
            </g>
            <g transform="matrix(0 -1 -1 0 550.5 154.5)">
                <mask id="ab" fill="#fff">
                    <use xlink:href="#aa"/>
                </mask>
                <path fill="#FFF" d="M149.973 256.911c0 2.8-2.279 5.08-5.076 5.08a5.086 5.086 0 0 1-5.084-5.08 5.076 5.076 0 0 1 5.084-5.08 5.074 5.074 0 0 1 5.076 5.08" mask="url(#ab)"/>
            </g>
            <g transform="matrix(0 -1 -1 0 550.5 154.5)">
                <mask id="ad" fill="#fff">
                    <use xlink:href="#ac"/>
                </mask>
                <path fill="#FFF" d="M149.973 228.948c0 2.8-2.279 5.08-5.076 5.08a5.086 5.086 0 0 1-5.084-5.08 5.076 5.076 0 0 1 5.084-5.08 5.074 5.074 0 0 1 5.076 5.08" mask="url(#ad)"/>
            </g>
            <g transform="matrix(0 -1 -1 0 550.5 154.5)">
                <mask id="af" fill="#fff">
                    <use xlink:href="#ae"/>
                </mask>
                <path fill="#FFF" d="M149.973 200.985c0 2.8-2.279 5.08-5.076 5.08a5.086 5.086 0 0 1-5.084-5.08 5.076 5.076 0 0 1 5.084-5.08 5.075 5.075 0 0 1 5.076 5.08" mask="url(#af)"/>
            </g>
            <g transform="matrix(0 -1 -1 0 550.5 154.5)">
                <mask id="ah" fill="#fff">
                    <use xlink:href="#ag"/>
                </mask>
                <path fill="#FFF" d="M149.973 173.021a5.074 5.074 0 0 1-5.076 5.08 5.076 5.076 0 0 1-5.084-5.08 5.076 5.076 0 0 1 5.084-5.08 5.075 5.075 0 0 1 5.076 5.08" mask="url(#ah)"/>
            </g>
            <g transform="matrix(0 -1 -1 0 550.5 154.5)">
                <mask id="aj" fill="#fff">
                    <use xlink:href="#ai"/>
                </mask>
                <path fill="#FFF" d="M149.973 145.058c0 2.8-2.279 5.08-5.076 5.08a5.086 5.086 0 0 1-5.084-5.08 5.076 5.076 0 0 1 5.084-5.08 5.074 5.074 0 0 1 5.076 5.08" mask="url(#aj)"/>
            </g>
            <g transform="matrix(0 -1 -1 0 550.5 154.5)">
                <mask id="al" fill="#fff">
                    <use xlink:href="#ak"/>
                </mask>
                <path fill="#FFF" d="M149.973 117.095c0 2.799-2.279 5.08-5.076 5.08a5.087 5.087 0 0 1-5.084-5.08 5.09 5.09 0 0 1 5.084-5.097c2.797 0 5.076 2.28 5.076 5.097" mask="url(#al)"/>
            </g>
            <g transform="matrix(0 -1 -1 0 550.5 154.5)">
                <mask id="an" fill="#fff">
                    <use xlink:href="#am"/>
                </mask>
                <path fill="#FFF" d="M149.973 89.132c0 2.799-2.279 5.08-5.076 5.08a5.087 5.087 0 0 1-5.084-5.08 5.09 5.09 0 0 1 5.084-5.097c2.797 0 5.076 2.28 5.076 5.097" mask="url(#an)"/>
            </g>
            <g transform="matrix(0 -1 -1 0 550.5 154.5)">
                <mask id="ap" fill="#fff">
                    <use xlink:href="#ao"/>
                </mask>
                <path fill="#FFF" d="M149.973 61.168c0 2.8-2.279 5.08-5.076 5.08a5.086 5.086 0 0 1-5.084-5.08 5.09 5.09 0 0 1 5.084-5.096c2.797 0 5.076 2.28 5.076 5.096" mask="url(#ap)"/>
            </g>
            <g transform="matrix(0 -1 -1 0 550.5 154.5)">
                <mask id="ar" fill="#fff">
                    <use xlink:href="#aq"/>
                </mask>
                <path fill="#FFF" d="M149.973 33.205c0 2.8-2.279 5.079-5.076 5.079a5.086 5.086 0 0 1-5.084-5.08 5.09 5.09 0 0 1 5.084-5.095c2.797 0 5.076 2.28 5.076 5.096" mask="url(#ar)"/>
            </g>
            <g transform="matrix(0 -1 -1 0 550.5 154.5)">
                <mask id="at" fill="#fff">
                    <use xlink:href="#as"/>
                </mask>
                <path fill="#FFF" d="M149.973 5.241c0 2.8-2.279 5.08-5.076 5.08a5.086 5.086 0 0 1-5.084-5.08 5.09 5.09 0 0 1 5.084-5.096c2.797 0 5.076 2.28 5.076 5.096" mask="url(#at)"/>
            </g>
            <g transform="matrix(0 -1 -1 0 550.5 154.5)">
                <mask id="av" fill="#fff">
                    <use xlink:href="#au"/>
                </mask>
                <path fill="#FFF" d="M137.67 383.601a5.08 5.08 0 0 1-10.16 0 5.086 5.086 0 0 1 5.084-5.097c2.805 0 5.075 2.281 5.075 5.097" mask="url(#av)"/>
            </g>
            <g transform="matrix(0 -1 -1 0 550.5 154.5)">
                <mask id="ax" fill="#fff">
                    <use xlink:href="#aw"/>
                </mask>
                <path fill="#FFF" d="M137.67 355.638a5.08 5.08 0 0 1-10.16 0 5.086 5.086 0 0 1 5.084-5.097c2.805 0 5.075 2.28 5.075 5.097" mask="url(#ax)"/>
            </g>
            <g transform="matrix(0 -1 -1 0 550.5 154.5)">
                <mask id="az" fill="#fff">
                    <use xlink:href="#ay"/>
                </mask>
                <path fill="#FFF" d="M137.67 327.675a5.08 5.08 0 0 1-10.16 0 5.085 5.085 0 0 1 5.084-5.097c2.805 0 5.075 2.28 5.075 5.097" mask="url(#az)"/>
            </g>
            <g transform="matrix(0 -1 -1 0 550.5 154.5)">
                <mask id="aB" fill="#fff">
                    <use xlink:href="#aA"/>
                </mask>
                <path fill="#FFF" d="M137.67 299.712a5.08 5.08 0 0 1-10.16 0 5.085 5.085 0 0 1 5.084-5.097c2.805 0 5.075 2.28 5.075 5.097" mask="url(#aB)"/>
            </g>
            <g transform="matrix(0 -1 -1 0 550.5 154.5)">
                <mask id="aD" fill="#fff">
                    <use xlink:href="#aC"/>
                </mask>
                <path fill="#FFF" d="M137.67 271.731c0 2.816-2.27 5.096-5.076 5.096a5.085 5.085 0 0 1-5.084-5.096 5.08 5.08 0 1 1 10.16 0" mask="url(#aD)"/>
            </g>
            <g transform="matrix(0 -1 -1 0 550.5 154.5)">
                <mask id="aF" fill="#fff">
                    <use xlink:href="#aE"/>
                </mask>
                <path fill="#FFF" d="M137.67 243.768c0 2.816-2.27 5.096-5.076 5.096a5.085 5.085 0 0 1-5.084-5.096 5.08 5.08 0 1 1 10.16 0" mask="url(#aF)"/>
            </g>
            <g transform="matrix(0 -1 -1 0 550.5 154.5)">
                <mask id="aH" fill="#fff">
                    <use xlink:href="#aG"/>
                </mask>
                <path fill="#FFF" d="M137.67 215.805c0 2.816-2.27 5.096-5.076 5.096a5.085 5.085 0 0 1-5.084-5.096 5.08 5.08 0 1 1 10.16 0" mask="url(#aH)"/>
            </g>
            <g transform="matrix(0 -1 -1 0 550.5 154.5)">
                <mask id="aJ" fill="#fff">
                    <use xlink:href="#aI"/>
                </mask>
                <path fill="#FFF" d="M137.67 187.842c0 2.816-2.27 5.095-5.076 5.095a5.085 5.085 0 0 1-5.084-5.095 5.08 5.08 0 1 1 10.16 0" mask="url(#aJ)"/>
            </g>
            <g transform="matrix(0 -1 -1 0 550.5 154.5)">
                <mask id="aL" fill="#fff">
                    <use xlink:href="#aK"/>
                </mask>
                <path fill="#FFF" d="M137.67 159.877c0 2.817-2.27 5.098-5.076 5.098a5.085 5.085 0 0 1-5.084-5.098 5.08 5.08 0 0 1 10.16 0" mask="url(#aL)"/>
            </g>
            <g transform="matrix(0 -1 -1 0 550.5 154.5)">
                <mask id="aN" fill="#fff">
                    <use xlink:href="#aM"/>
                </mask>
                <path fill="#FFF" d="M137.67 131.914c0 2.817-2.27 5.08-5.076 5.08a5.07 5.07 0 0 1-5.084-5.08 5.08 5.08 0 0 1 10.16 0" mask="url(#aN)"/>
            </g>
            <g transform="matrix(0 -1 -1 0 550.5 154.5)">
                <mask id="aP" fill="#fff">
                    <use xlink:href="#aO"/>
                </mask>
                <path fill="#FFF" d="M137.67 103.951c0 2.816-2.27 5.08-5.076 5.08a5.07 5.07 0 0 1-5.084-5.08 5.07 5.07 0 0 1 5.084-5.08 5.069 5.069 0 0 1 5.075 5.08" mask="url(#aP)"/>
            </g>
            <g transform="matrix(0 -1 -1 0 550.5 154.5)">
                <mask id="aR" fill="#fff">
                    <use xlink:href="#aQ"/>
                </mask>
                <path fill="#FFF" d="M137.67 75.988c0 2.816-2.27 5.08-5.076 5.08a5.07 5.07 0 0 1-5.084-5.08 5.07 5.07 0 0 1 5.084-5.08 5.069 5.069 0 0 1 5.075 5.08" mask="url(#aR)"/>
            </g>
            <g transform="matrix(0 -1 -1 0 550.5 154.5)">
                <mask id="aT" fill="#fff">
                    <use xlink:href="#aS"/>
                </mask>
                <path fill="#FFF" d="M137.67 48.025c0 2.816-2.27 5.08-5.076 5.08a5.07 5.07 0 0 1-5.084-5.08c0-2.816 2.27-5.08 5.084-5.08a5.07 5.07 0 0 1 5.075 5.08" mask="url(#aT)"/>
            </g>
            <g transform="matrix(0 -1 -1 0 550.5 154.5)">
                <mask id="aV" fill="#fff">
                    <use xlink:href="#aU"/>
                </mask>
                <path fill="#FFF" d="M137.67 20.061a5.07 5.07 0 0 1-5.076 5.08 5.071 5.071 0 0 1-5.084-5.08 5.07 5.07 0 0 1 5.084-5.08 5.069 5.069 0 0 1 5.075 5.08" mask="url(#aV)"/>
            </g>
            <g transform="matrix(0 -1 -1 0 550.5 154.5)">
                <mask id="aX" fill="#fff">
                    <use xlink:href="#aW"/>
                </mask>
                <path fill="#FFF" d="M125.365 368.765c0 2.8-2.268 5.095-5.075 5.095-2.81 0-5.087-2.295-5.087-5.095s2.278-5.08 5.087-5.08a5.079 5.079 0 0 1 5.075 5.08" mask="url(#aX)"/>
            </g>
            <g transform="matrix(0 -1 -1 0 550.5 154.5)">
                <mask id="aZ" fill="#fff">
                    <use xlink:href="#aY"/>
                </mask>
                <path fill="#FFF" d="M125.365 340.801c0 2.8-2.268 5.096-5.075 5.096-2.81 0-5.087-2.296-5.087-5.096 0-2.8 2.278-5.08 5.087-5.08a5.079 5.079 0 0 1 5.075 5.08" mask="url(#aZ)"/>
            </g>
            <g transform="matrix(0 -1 -1 0 550.5 154.5)">
                <mask id="bb" fill="#fff">
                    <use xlink:href="#ba"/>
                </mask>
                <path fill="#FFF" d="M125.365 312.838c0 2.8-2.268 5.096-5.075 5.096-2.81 0-5.087-2.297-5.087-5.096 0-2.8 2.278-5.08 5.087-5.08a5.079 5.079 0 0 1 5.075 5.08" mask="url(#bb)"/>
            </g>
            <g transform="matrix(0 -1 -1 0 550.5 154.5)">
                <mask id="bd" fill="#fff">
                    <use xlink:href="#bc"/>
                </mask>
                <path fill="#FFF" d="M125.365 284.874c0 2.8-2.268 5.08-5.075 5.08a5.087 5.087 0 0 1-5.087-5.08c0-2.799 2.278-5.08 5.087-5.08a5.079 5.079 0 0 1 5.075 5.08" mask="url(#bd)"/>
            </g>
            <g transform="matrix(0 -1 -1 0 550.5 154.5)">
                <mask id="bf" fill="#fff">
                    <use xlink:href="#be"/>
                </mask>
                <path fill="#FFF" d="M125.365 256.911c0 2.8-2.268 5.08-5.075 5.08a5.087 5.087 0 0 1-5.087-5.08 5.077 5.077 0 0 1 5.087-5.08 5.068 5.068 0 0 1 5.075 5.08" mask="url(#bf)"/>
            </g>
            <g transform="matrix(0 -1 -1 0 550.5 154.5)">
                <mask id="bh" fill="#fff">
                    <use xlink:href="#bg"/>
                </mask>
                <path fill="#FFF" d="M125.365 228.948c0 2.8-2.268 5.08-5.075 5.08a5.087 5.087 0 0 1-5.087-5.08 5.077 5.077 0 0 1 5.087-5.08 5.068 5.068 0 0 1 5.075 5.08" mask="url(#bh)"/>
            </g>
            <g transform="matrix(0 -1 -1 0 550.5 154.5)">
                <mask id="bj" fill="#fff">
                    <use xlink:href="#bi"/>
                </mask>
                <path fill="#FFF" d="M125.365 200.985c0 2.8-2.268 5.08-5.075 5.08a5.087 5.087 0 0 1-5.087-5.08 5.077 5.077 0 0 1 5.087-5.08 5.069 5.069 0 0 1 5.075 5.08" mask="url(#bj)"/>
            </g>
            <g transform="matrix(0 -1 -1 0 550.5 154.5)">
                <mask id="bl" fill="#fff">
                    <use xlink:href="#bk"/>
                </mask>
                <path fill="#FFF" d="M125.365 173.021a5.068 5.068 0 0 1-5.075 5.08 5.077 5.077 0 0 1-5.087-5.08 5.077 5.077 0 0 1 5.087-5.08 5.069 5.069 0 0 1 5.075 5.08" mask="url(#bl)"/>
            </g>
            <g transform="matrix(0 -1 -1 0 550.5 154.5)">
                <mask id="bn" fill="#fff">
                    <use xlink:href="#bm"/>
                </mask>
                <path fill="#FFF" d="M125.365 145.058c0 2.8-2.268 5.08-5.075 5.08a5.087 5.087 0 0 1-5.087-5.08 5.077 5.077 0 0 1 5.087-5.08 5.068 5.068 0 0 1 5.075 5.08" mask="url(#bn)"/>
            </g>
            <g transform="matrix(0 -1 -1 0 550.5 154.5)">
                <mask id="bp" fill="#fff">
                    <use xlink:href="#bo"/>
                </mask>
                <path fill="#FFF" d="M125.365 117.095c0 2.799-2.268 5.08-5.075 5.08a5.087 5.087 0 0 1 0-10.177c2.807 0 5.075 2.28 5.075 5.097" mask="url(#bp)"/>
            </g>
            <g transform="matrix(0 -1 -1 0 550.5 154.5)">
                <mask id="br" fill="#fff">
                    <use xlink:href="#bq"/>
                </mask>
                <path fill="#FFF" d="M125.365 89.132c0 2.799-2.268 5.08-5.075 5.08a5.087 5.087 0 0 1 0-10.177c2.807 0 5.075 2.28 5.075 5.097" mask="url(#br)"/>
            </g>
            <g transform="matrix(0 -1 -1 0 550.5 154.5)">
                <mask id="bt" fill="#fff">
                    <use xlink:href="#bs"/>
                </mask>
                <path fill="#FFF" d="M125.365 61.168c0 2.8-2.268 5.08-5.075 5.08a5.087 5.087 0 1 1 0-10.176c2.807 0 5.075 2.28 5.075 5.096" mask="url(#bt)"/>
            </g>
            <g transform="matrix(0 -1 -1 0 550.5 154.5)">
                <mask id="bv" fill="#fff">
                    <use xlink:href="#bu"/>
                </mask>
                <path fill="#FFF" d="M125.365 33.205c0 2.8-2.268 5.079-5.075 5.079a5.087 5.087 0 1 1 0-10.175c2.807 0 5.075 2.28 5.075 5.096" mask="url(#bv)"/>
            </g>
            <g transform="matrix(0 -1 -1 0 550.5 154.5)">
                <mask id="bx" fill="#fff">
                    <use xlink:href="#bw"/>
                </mask>
                <path fill="#FFF" d="M125.365 5.241c0 2.8-2.268 5.08-5.075 5.08a5.087 5.087 0 1 1 0-10.176c2.807 0 5.075 2.28 5.075 5.096" mask="url(#bx)"/>
            </g>
            <g transform="matrix(0 -1 -1 0 550.5 154.5)">
                <mask id="bz" fill="#fff">
                    <use xlink:href="#by"/>
                </mask>
                <path fill="#FFF" d="M113.059 383.601c0 2.8-2.262 5.08-5.076 5.08a5.085 5.085 0 0 1-5.075-5.08c0-2.816 2.278-5.097 5.075-5.097 2.814 0 5.076 2.281 5.076 5.097" mask="url(#bz)"/>
            </g>
            <g transform="matrix(0 -1 -1 0 550.5 154.5)">
                <mask id="bB" fill="#fff">
                    <use xlink:href="#bA"/>
                </mask>
                <path fill="#FFF" d="M113.059 355.638c0 2.8-2.262 5.08-5.076 5.08a5.085 5.085 0 0 1-5.075-5.08c0-2.816 2.278-5.097 5.075-5.097 2.814 0 5.076 2.28 5.076 5.097" mask="url(#bB)"/>
            </g>
            <g transform="matrix(0 -1 -1 0 550.5 154.5)">
                <mask id="bD" fill="#fff">
                    <use xlink:href="#bC"/>
                </mask>
                <path fill="#FFF" d="M113.059 327.675c0 2.799-2.262 5.08-5.076 5.08a5.085 5.085 0 0 1-5.075-5.08c0-2.817 2.278-5.097 5.075-5.097 2.814 0 5.076 2.28 5.076 5.097" mask="url(#bD)"/>
            </g>
            <g transform="matrix(0 -1 -1 0 550.5 154.5)">
                <mask id="bF" fill="#fff">
                    <use xlink:href="#bE"/>
                </mask>
                <path fill="#FFF" d="M113.059 299.712c0 2.799-2.262 5.08-5.076 5.08a5.085 5.085 0 0 1-5.075-5.08c0-2.818 2.278-5.097 5.075-5.097 2.814 0 5.076 2.28 5.076 5.097" mask="url(#bF)"/>
            </g>
            <g transform="matrix(0 -1 -1 0 550.5 154.5)">
                <mask id="bH" fill="#fff">
                    <use xlink:href="#bG"/>
                </mask>
                <path fill="#FFF" d="M113.059 271.731c0 2.816-2.262 5.096-5.076 5.096-2.797 0-5.075-2.28-5.075-5.096 0-2.8 2.278-5.08 5.075-5.08a5.074 5.074 0 0 1 5.076 5.08" mask="url(#bH)"/>
            </g>
            <g transform="matrix(0 -1 -1 0 550.5 154.5)">
                <mask id="bJ" fill="#fff">
                    <use xlink:href="#bI"/>
                </mask>
                <path fill="#FFF" d="M113.059 243.768c0 2.816-2.262 5.096-5.076 5.096-2.797 0-5.075-2.28-5.075-5.096 0-2.8 2.278-5.08 5.075-5.08a5.074 5.074 0 0 1 5.076 5.08" mask="url(#bJ)"/>
            </g>
            <g transform="matrix(0 -1 -1 0 550.5 154.5)">
                <mask id="bL" fill="#fff">
                    <use xlink:href="#bK"/>
                </mask>
                <path fill="#FFF" d="M113.059 215.805c0 2.816-2.262 5.096-5.076 5.096-2.797 0-5.075-2.28-5.075-5.096 0-2.8 2.278-5.08 5.075-5.08a5.074 5.074 0 0 1 5.076 5.08" mask="url(#bL)"/>
            </g>
            <g transform="matrix(0 -1 -1 0 550.5 154.5)">
                <mask id="bN" fill="#fff">
                    <use xlink:href="#bM"/>
                </mask>
                <path fill="#FFF" d="M113.059 187.842c0 2.816-2.262 5.095-5.076 5.095-2.797 0-5.075-2.28-5.075-5.095 0-2.8 2.278-5.08 5.075-5.08a5.074 5.074 0 0 1 5.076 5.08" mask="url(#bN)"/>
            </g>
            <g transform="matrix(0 -1 -1 0 550.5 154.5)">
                <mask id="bP" fill="#fff">
                    <use xlink:href="#bO"/>
                </mask>
                <path fill="#FFF" d="M113.059 159.877c0 2.817-2.262 5.098-5.076 5.098-2.797 0-5.075-2.28-5.075-5.098 0-2.799 2.278-5.079 5.075-5.079a5.074 5.074 0 0 1 5.076 5.08" mask="url(#bP)"/>
            </g>
            <g transform="matrix(0 -1 -1 0 550.5 154.5)">
                <mask id="bR" fill="#fff">
                    <use xlink:href="#bQ"/>
                </mask>
                <path fill="#FFF" d="M113.059 131.914a5.063 5.063 0 0 1-5.076 5.08 5.074 5.074 0 0 1-5.075-5.08c0-2.799 2.278-5.08 5.075-5.08a5.074 5.074 0 0 1 5.076 5.08" mask="url(#bR)"/>
            </g>
            <g transform="matrix(0 -1 -1 0 550.5 154.5)">
                <mask id="bT" fill="#fff">
                    <use xlink:href="#bS"/>
                </mask>
                <path fill="#FFF" d="M113.059 103.951a5.063 5.063 0 0 1-5.076 5.08 5.074 5.074 0 0 1-5.075-5.08 5.074 5.074 0 0 1 5.075-5.08 5.063 5.063 0 0 1 5.076 5.08" mask="url(#bT)"/>
            </g>
            <g transform="matrix(0 -1 -1 0 550.5 154.5)">
                <mask id="bV" fill="#fff">
                    <use xlink:href="#bU"/>
                </mask>
                <path fill="#FFF" d="M113.059 75.988a5.063 5.063 0 0 1-5.076 5.08 5.074 5.074 0 0 1-5.075-5.08 5.074 5.074 0 0 1 5.075-5.08 5.063 5.063 0 0 1 5.076 5.08" mask="url(#bV)"/>
            </g>
            <g transform="matrix(0 -1 -1 0 550.5 154.5)">
                <mask id="bX" fill="#fff">
                    <use xlink:href="#bW"/>
                </mask>
                <path fill="#FFF" d="M113.059 48.025a5.063 5.063 0 0 1-5.076 5.08 5.074 5.074 0 0 1-5.075-5.08 5.075 5.075 0 0 1 5.075-5.08 5.064 5.064 0 0 1 5.076 5.08" mask="url(#bX)"/>
            </g>
            <g transform="matrix(0 -1 -1 0 550.5 154.5)">
                <mask id="bZ" fill="#fff">
                    <use xlink:href="#bY"/>
                </mask>
                <path fill="#FFF" d="M113.059 20.061a5.064 5.064 0 0 1-5.076 5.08 5.075 5.075 0 0 1-5.075-5.08 5.074 5.074 0 0 1 5.075-5.08 5.063 5.063 0 0 1 5.076 5.08" mask="url(#bZ)"/>
            </g>
            <g transform="matrix(0 -1 -1 0 550.5 154.5)">
                <mask id="cb" fill="#fff">
                    <use xlink:href="#ca"/>
                </mask>
                <path fill="#FFF" d="M100.764 368.765c0 2.8-2.279 5.095-5.076 5.095-2.797 0-5.075-2.295-5.075-5.095s2.278-5.08 5.075-5.08a5.085 5.085 0 0 1 5.076 5.08" mask="url(#cb)"/>
            </g>
            <g transform="matrix(0 -1 -1 0 550.5 154.5)">
                <mask id="cd" fill="#fff">
                    <use xlink:href="#cc"/>
                </mask>
                <path fill="#FFF" d="M100.764 340.801c0 2.8-2.279 5.096-5.076 5.096-2.797 0-5.075-2.296-5.075-5.096 0-2.8 2.278-5.08 5.075-5.08a5.085 5.085 0 0 1 5.076 5.08" mask="url(#cd)"/>
            </g>
            <g transform="matrix(0 -1 -1 0 550.5 154.5)">
                <mask id="cf" fill="#fff">
                    <use xlink:href="#ce"/>
                </mask>
                <path fill="#FFF" d="M100.764 312.838c0 2.8-2.279 5.096-5.076 5.096-2.797 0-5.075-2.297-5.075-5.096 0-2.8 2.278-5.08 5.075-5.08a5.085 5.085 0 0 1 5.076 5.08" mask="url(#cf)"/>
            </g>
            <g transform="matrix(0 -1 -1 0 550.5 154.5)">
                <mask id="ch" fill="#fff">
                    <use xlink:href="#cg"/>
                </mask>
                <path fill="#FFF" d="M100.764 284.874c0 2.8-2.279 5.08-5.076 5.08a5.085 5.085 0 0 1-5.075-5.08c0-2.799 2.278-5.08 5.075-5.08a5.085 5.085 0 0 1 5.076 5.08" mask="url(#ch)"/>
            </g>
            <g transform="matrix(0 -1 -1 0 550.5 154.5)">
                <mask id="cj" fill="#fff">
                    <use xlink:href="#ci"/>
                </mask>
                <path fill="#FFF" d="M100.764 256.911c0 2.8-2.279 5.08-5.076 5.08a5.085 5.085 0 0 1-5.075-5.08 5.074 5.074 0 0 1 5.075-5.08 5.074 5.074 0 0 1 5.076 5.08" mask="url(#cj)"/>
            </g>
            <g transform="matrix(0 -1 -1 0 550.5 154.5)">
                <mask id="cl" fill="#fff">
                    <use xlink:href="#ck"/>
                </mask>
                <path fill="#FFF" d="M100.764 228.948c0 2.8-2.279 5.08-5.076 5.08a5.085 5.085 0 0 1-5.075-5.08 5.074 5.074 0 0 1 5.075-5.08 5.074 5.074 0 0 1 5.076 5.08" mask="url(#cl)"/>
            </g>
            <g transform="matrix(0 -1 -1 0 550.5 154.5)">
                <mask id="cn" fill="#fff">
                    <use xlink:href="#cm"/>
                </mask>
                <path fill="#FFF" d="M100.764 200.985c0 2.8-2.279 5.08-5.076 5.08a5.085 5.085 0 0 1-5.075-5.08 5.075 5.075 0 1 1 10.15 0" mask="url(#cn)"/>
            </g>
            <g transform="matrix(0 -1 -1 0 550.5 154.5)">
                <mask id="cp" fill="#fff">
                    <use xlink:href="#co"/>
                </mask>
                <path fill="#FFF" d="M100.764 173.021a5.074 5.074 0 0 1-5.076 5.08 5.074 5.074 0 0 1-5.075-5.08 5.075 5.075 0 1 1 10.15 0" mask="url(#cp)"/>
            </g>
            <g transform="matrix(0 -1 -1 0 550.5 154.5)">
                <mask id="cr" fill="#fff">
                    <use xlink:href="#cq"/>
                </mask>
                <path fill="#FFF" d="M100.764 145.058c0 2.8-2.279 5.08-5.076 5.08a5.085 5.085 0 0 1-5.075-5.08 5.074 5.074 0 0 1 5.075-5.08 5.074 5.074 0 0 1 5.076 5.08" mask="url(#cr)"/>
            </g>
            <g transform="matrix(0 -1 -1 0 550.5 154.5)">
                <mask id="ct" fill="#fff">
                    <use xlink:href="#cs"/>
                </mask>
                <path fill="#FFF" d="M100.764 117.095c0 2.799-2.279 5.08-5.076 5.08a5.085 5.085 0 0 1-5.075-5.08c0-2.817 2.278-5.097 5.075-5.097s5.076 2.28 5.076 5.097" mask="url(#ct)"/>
            </g>
            <g transform="matrix(0 -1 -1 0 550.5 154.5)">
                <mask id="cv" fill="#fff">
                    <use xlink:href="#cu"/>
                </mask>
                <path fill="#FFF" d="M100.764 89.132c0 2.799-2.279 5.08-5.076 5.08a5.085 5.085 0 0 1-5.075-5.08c0-2.817 2.278-5.097 5.075-5.097s5.076 2.28 5.076 5.097" mask="url(#cv)"/>
            </g>
            <g transform="matrix(0 -1 -1 0 550.5 154.5)">
                <mask id="cx" fill="#fff">
                    <use xlink:href="#cw"/>
                </mask>
                <path fill="#FFF" d="M100.764 61.168c0 2.8-2.279 5.08-5.076 5.08a5.085 5.085 0 0 1-5.075-5.08c0-2.816 2.278-5.096 5.075-5.096s5.076 2.28 5.076 5.096" mask="url(#cx)"/>
            </g>
            <g transform="matrix(0 -1 -1 0 550.5 154.5)">
                <mask id="cz" fill="#fff">
                    <use xlink:href="#cy"/>
                </mask>
                <path fill="#FFF" d="M100.764 33.205c0 2.8-2.279 5.079-5.076 5.079a5.085 5.085 0 0 1-5.075-5.08c0-2.816 2.278-5.095 5.075-5.095s5.076 2.28 5.076 5.096" mask="url(#cz)"/>
            </g>
            <g transform="matrix(0 -1 -1 0 550.5 154.5)">
                <mask id="cB" fill="#fff">
                    <use xlink:href="#cA"/>
                </mask>
                <path fill="#FFF" d="M100.764 5.241c0 2.8-2.279 5.08-5.076 5.08a5.085 5.085 0 0 1-5.075-5.08c0-2.816 2.278-5.096 5.075-5.096s5.076 2.28 5.076 5.096" mask="url(#cB)"/>
            </g>
            <g transform="matrix(0 -1 -1 0 550.5 154.5)">
                <mask id="cD" fill="#fff">
                    <use xlink:href="#cC"/>
                </mask>
                <path fill="#FFF" d="M88.469 383.601c0 2.8-2.279 5.08-5.076 5.08a5.074 5.074 0 0 1-5.075-5.08c0-2.816 2.26-5.097 5.075-5.097 2.797 0 5.076 2.281 5.076 5.097" mask="url(#cD)"/>
            </g>
            <g transform="matrix(0 -1 -1 0 550.5 154.5)">
                <mask id="cF" fill="#fff">
                    <use xlink:href="#cE"/>
                </mask>
                <path fill="#FFF" d="M88.469 355.638c0 2.8-2.279 5.08-5.076 5.08a5.074 5.074 0 0 1-5.075-5.08c0-2.816 2.26-5.097 5.075-5.097 2.797 0 5.076 2.28 5.076 5.097" mask="url(#cF)"/>
            </g>
            <g transform="matrix(0 -1 -1 0 550.5 154.5)">
                <mask id="cH" fill="#fff">
                    <use xlink:href="#cG"/>
                </mask>
                <path fill="#FFF" d="M88.469 327.675c0 2.799-2.279 5.08-5.076 5.08a5.074 5.074 0 0 1-5.075-5.08c0-2.817 2.26-5.097 5.075-5.097 2.797 0 5.076 2.28 5.076 5.097" mask="url(#cH)"/>
            </g>
            <g transform="matrix(0 -1 -1 0 550.5 154.5)">
                <mask id="cJ" fill="#fff">
                    <use xlink:href="#cI"/>
                </mask>
                <path fill="#FFF" d="M88.469 299.712c0 2.799-2.279 5.08-5.076 5.08a5.074 5.074 0 0 1-5.075-5.08c0-2.818 2.26-5.097 5.075-5.097 2.797 0 5.076 2.28 5.076 5.097" mask="url(#cJ)"/>
            </g>
            <g transform="matrix(0 -1 -1 0 550.5 154.5)">
                <mask id="cL" fill="#fff">
                    <use xlink:href="#cK"/>
                </mask>
                <path fill="#FFF" d="M88.469 271.731c0 2.816-2.279 5.096-5.076 5.096a5.077 5.077 0 0 1-5.075-5.096c0-2.8 2.26-5.08 5.075-5.08a5.085 5.085 0 0 1 5.076 5.08" mask="url(#cL)"/>
            </g>
            <g transform="matrix(0 -1 -1 0 550.5 154.5)">
                <mask id="cN" fill="#fff">
                    <use xlink:href="#cM"/>
                </mask>
                <path fill="#FFF" d="M88.469 243.768c0 2.816-2.279 5.096-5.076 5.096a5.077 5.077 0 0 1-5.075-5.096c0-2.8 2.26-5.08 5.075-5.08a5.085 5.085 0 0 1 5.076 5.08" mask="url(#cN)"/>
            </g>
            <g transform="matrix(0 -1 -1 0 550.5 154.5)">
                <mask id="cP" fill="#fff">
                    <use xlink:href="#cO"/>
                </mask>
                <path fill="#FFF" d="M88.469 215.805c0 2.816-2.279 5.096-5.076 5.096a5.077 5.077 0 0 1-5.075-5.096c0-2.8 2.26-5.08 5.075-5.08a5.085 5.085 0 0 1 5.076 5.08" mask="url(#cP)"/>
            </g>
            <g transform="matrix(0 -1 -1 0 550.5 154.5)">
                <mask id="cR" fill="#fff">
                    <use xlink:href="#cQ"/>
                </mask>
                <path fill="#FFF" d="M88.469 187.842c0 2.816-2.279 5.095-5.076 5.095a5.077 5.077 0 0 1-5.075-5.095c0-2.8 2.26-5.08 5.075-5.08a5.085 5.085 0 0 1 5.076 5.08" mask="url(#cR)"/>
            </g>
            <g transform="matrix(0 -1 -1 0 550.5 154.5)">
                <mask id="cT" fill="#fff">
                    <use xlink:href="#cS"/>
                </mask>
                <path fill="#FFF" d="M88.469 159.877c0 2.817-2.279 5.098-5.076 5.098-2.815 0-5.075-2.28-5.075-5.098 0-2.799 2.26-5.079 5.075-5.079a5.085 5.085 0 0 1 5.076 5.08" mask="url(#cT)"/>
            </g>
            <g transform="matrix(0 -1 -1 0 550.5 154.5)">
                <mask id="cV" fill="#fff">
                    <use xlink:href="#cU"/>
                </mask>
                <path fill="#FFF" d="M88.469 131.914a5.074 5.074 0 0 1-5.076 5.08 5.063 5.063 0 0 1-5.075-5.08c0-2.799 2.26-5.08 5.075-5.08a5.085 5.085 0 0 1 5.076 5.08" mask="url(#cV)"/>
            </g>
            <g transform="matrix(0 -1 -1 0 550.5 154.5)">
                <mask id="cX" fill="#fff">
                    <use xlink:href="#cW"/>
                </mask>
                <path fill="#FFF" d="M88.469 103.951a5.074 5.074 0 0 1-5.076 5.08 5.063 5.063 0 0 1-5.075-5.08c0-2.816 2.26-5.08 5.075-5.08a5.074 5.074 0 0 1 5.076 5.08" mask="url(#cX)"/>
            </g>
            <g transform="matrix(0 -1 -1 0 550.5 154.5)">
                <mask id="cZ" fill="#fff">
                    <use xlink:href="#cY"/>
                </mask>
                <path fill="#FFF" d="M88.469 75.988a5.074 5.074 0 0 1-5.076 5.08 5.063 5.063 0 0 1-5.075-5.08c0-2.816 2.26-5.08 5.075-5.08a5.074 5.074 0 0 1 5.076 5.08" mask="url(#cZ)"/>
            </g>
            <g transform="matrix(0 -1 -1 0 550.5 154.5)">
                <mask id="db" fill="#fff">
                    <use xlink:href="#da"/>
                </mask>
                <path fill="#FFF" d="M88.469 48.025a5.074 5.074 0 0 1-5.076 5.08 5.063 5.063 0 0 1-5.075-5.08c0-2.816 2.26-5.08 5.075-5.08a5.075 5.075 0 0 1 5.076 5.08" mask="url(#db)"/>
            </g>
            <g transform="matrix(0 -1 -1 0 550.5 154.5)">
                <mask id="dd" fill="#fff">
                    <use xlink:href="#dc"/>
                </mask>
                <path fill="#FFF" d="M88.469 20.061a5.075 5.075 0 0 1-5.076 5.08 5.064 5.064 0 0 1-5.075-5.08c0-2.816 2.26-5.08 5.075-5.08a5.074 5.074 0 0 1 5.076 5.08" mask="url(#dd)"/>
            </g>
            <g transform="matrix(0 -1 -1 0 550.5 154.5)">
                <mask id="df" fill="#fff">
                    <use xlink:href="#de"/>
                </mask>
                <path fill="#FFF" d="M76.174 368.765c0 2.8-2.279 5.095-5.093 5.095-2.798 0-5.075-2.295-5.075-5.095a5.084 5.084 0 0 1 10.168 0" mask="url(#df)"/>
            </g>
            <g transform="matrix(0 -1 -1 0 550.5 154.5)">
                <mask id="dh" fill="#fff">
                    <use xlink:href="#dg"/>
                </mask>
                <path fill="#FFF" d="M76.174 340.801c0 2.8-2.279 5.096-5.093 5.096-2.798 0-5.075-2.296-5.075-5.096a5.084 5.084 0 0 1 10.168 0" mask="url(#dh)"/>
            </g>
            <g transform="matrix(0 -1 -1 0 550.5 154.5)">
                <mask id="dj" fill="#fff">
                    <use xlink:href="#di"/>
                </mask>
                <path fill="#FFF" d="M76.174 312.838c0 2.8-2.279 5.096-5.093 5.096-2.798 0-5.075-2.297-5.075-5.096a5.084 5.084 0 0 1 10.168 0" mask="url(#dj)"/>
            </g>
            <g transform="matrix(0 -1 -1 0 550.5 154.5)">
                <mask id="dl" fill="#fff">
                    <use xlink:href="#dk"/>
                </mask>
                <path fill="#FFF" d="M76.174 284.874a5.084 5.084 0 1 1-10.168 0c0-2.799 2.277-5.08 5.075-5.08 2.814 0 5.093 2.281 5.093 5.08" mask="url(#dl)"/>
            </g>
            <g transform="matrix(0 -1 -1 0 550.5 154.5)">
                <mask id="dn" fill="#fff">
                    <use xlink:href="#dm"/>
                </mask>
                <path fill="#FFF" d="M76.174 256.911a5.084 5.084 0 1 1-10.168 0 5.074 5.074 0 0 1 5.075-5.08 5.079 5.079 0 0 1 5.093 5.08" mask="url(#dn)"/>
            </g>
            <g transform="matrix(0 -1 -1 0 550.5 154.5)">
                <mask id="dp" fill="#fff">
                    <use xlink:href="#do"/>
                </mask>
                <path fill="#FFF" d="M76.174 228.948a5.084 5.084 0 1 1-10.168 0 5.074 5.074 0 0 1 5.075-5.08 5.079 5.079 0 0 1 5.093 5.08" mask="url(#dp)"/>
            </g>
            <g transform="matrix(0 -1 -1 0 550.5 154.5)">
                <mask id="dr" fill="#fff">
                    <use xlink:href="#dq"/>
                </mask>
                <path fill="#FFF" d="M76.174 200.985a5.084 5.084 0 1 1-10.168 0 5.074 5.074 0 0 1 5.075-5.08 5.079 5.079 0 0 1 5.093 5.08" mask="url(#dr)"/>
            </g>
            <g transform="matrix(0 -1 -1 0 550.5 154.5)">
                <mask id="dt" fill="#fff">
                    <use xlink:href="#ds"/>
                </mask>
                <path fill="#FFF" d="M76.174 173.021a5.079 5.079 0 0 1-5.093 5.08 5.074 5.074 0 0 1-5.075-5.08 5.074 5.074 0 0 1 5.075-5.08 5.079 5.079 0 0 1 5.093 5.08" mask="url(#dt)"/>
            </g>
            <g transform="matrix(0 -1 -1 0 550.5 154.5)">
                <mask id="dv" fill="#fff">
                    <use xlink:href="#du"/>
                </mask>
                <path fill="#FFF" d="M76.174 145.058a5.084 5.084 0 0 1-10.168 0 5.074 5.074 0 0 1 5.075-5.08 5.079 5.079 0 0 1 5.093 5.08" mask="url(#dv)"/>
            </g>
            <g transform="matrix(0 -1 -1 0 550.5 154.5)">
                <mask id="dx" fill="#fff">
                    <use xlink:href="#dw"/>
                </mask>
                <path fill="#FFF" d="M76.174 117.095c0 2.799-2.279 5.08-5.093 5.08a5.084 5.084 0 0 1-5.075-5.08c0-2.817 2.277-5.097 5.075-5.097a5.093 5.093 0 0 1 5.093 5.097" mask="url(#dx)"/>
            </g>
            <g transform="matrix(0 -1 -1 0 550.5 154.5)">
                <mask id="dz" fill="#fff">
                    <use xlink:href="#dy"/>
                </mask>
                <path fill="#FFF" d="M76.174 89.132c0 2.799-2.279 5.08-5.093 5.08a5.084 5.084 0 0 1-5.075-5.08c0-2.817 2.277-5.097 5.075-5.097a5.093 5.093 0 0 1 5.093 5.097" mask="url(#dz)"/>
            </g>
            <g transform="matrix(0 -1 -1 0 550.5 154.5)">
                <mask id="dB" fill="#fff">
                    <use xlink:href="#dA"/>
                </mask>
                <path fill="#FFF" d="M76.174 61.168a5.084 5.084 0 1 1-10.168 0c0-2.816 2.277-5.096 5.075-5.096a5.093 5.093 0 0 1 5.093 5.096" mask="url(#dB)"/>
            </g>
            <g transform="matrix(0 -1 -1 0 550.5 154.5)">
                <mask id="dD" fill="#fff">
                    <use xlink:href="#dC"/>
                </mask>
                <path fill="#FFF" d="M76.174 33.205a5.084 5.084 0 1 1-10.168 0c0-2.817 2.277-5.096 5.075-5.096a5.093 5.093 0 0 1 5.093 5.096" mask="url(#dD)"/>
            </g>
            <g transform="matrix(0 -1 -1 0 550.5 154.5)">
                <mask id="dF" fill="#fff">
                    <use xlink:href="#dE"/>
                </mask>
                <path fill="#FFF" d="M76.174 5.241a5.084 5.084 0 1 1-10.168 0c0-2.816 2.277-5.096 5.075-5.096a5.093 5.093 0 0 1 5.093 5.096" mask="url(#dF)"/>
            </g>
            <g transform="matrix(0 -1 -1 0 550.5 154.5)">
                <mask id="dH" fill="#fff">
                    <use xlink:href="#dG"/>
                </mask>
                <path fill="#FFF" d="M63.862 383.601c0 2.8-2.26 5.08-5.076 5.08a5.085 5.085 0 0 1-5.075-5.08c0-2.816 2.28-5.097 5.075-5.097 2.815 0 5.076 2.281 5.076 5.097" mask="url(#dH)"/>
            </g>
            <g transform="matrix(0 -1 -1 0 550.5 154.5)">
                <mask id="dJ" fill="#fff">
                    <use xlink:href="#dI"/>
                </mask>
                <path fill="#FFF" d="M63.862 355.638c0 2.8-2.26 5.08-5.076 5.08a5.085 5.085 0 0 1-5.075-5.08c0-2.816 2.28-5.097 5.075-5.097 2.815 0 5.076 2.28 5.076 5.097" mask="url(#dJ)"/>
            </g>
            <g transform="matrix(0 -1 -1 0 550.5 154.5)">
                <mask id="dL" fill="#fff">
                    <use xlink:href="#dK"/>
                </mask>
                <path fill="#FFF" d="M63.862 327.675c0 2.799-2.26 5.08-5.076 5.08a5.086 5.086 0 0 1-5.075-5.08c0-2.817 2.28-5.097 5.075-5.097 2.815 0 5.076 2.28 5.076 5.097" mask="url(#dL)"/>
            </g>
            <g transform="matrix(0 -1 -1 0 550.5 154.5)">
                <mask id="dN" fill="#fff">
                    <use xlink:href="#dM"/>
                </mask>
                <path fill="#FFF" d="M63.862 299.712c0 2.799-2.26 5.08-5.076 5.08a5.086 5.086 0 0 1-5.075-5.08c0-2.818 2.28-5.097 5.075-5.097 2.815 0 5.076 2.28 5.076 5.097" mask="url(#dN)"/>
            </g>
            <g transform="matrix(0 -1 -1 0 550.5 154.5)">
                <mask id="dP" fill="#fff">
                    <use xlink:href="#dO"/>
                </mask>
                <path fill="#FFF" d="M63.862 271.731a5.077 5.077 0 0 1-5.076 5.096c-2.796 0-5.075-2.28-5.075-5.096 0-2.8 2.28-5.08 5.075-5.08a5.074 5.074 0 0 1 5.076 5.08" mask="url(#dP)"/>
            </g>
            <g transform="matrix(0 -1 -1 0 550.5 154.5)">
                <mask id="dR" fill="#fff">
                    <use xlink:href="#dQ"/>
                </mask>
                <path fill="#FFF" d="M63.862 243.768a5.077 5.077 0 0 1-5.076 5.096c-2.796 0-5.075-2.28-5.075-5.096 0-2.8 2.28-5.08 5.075-5.08a5.074 5.074 0 0 1 5.076 5.08" mask="url(#dR)"/>
            </g>
            <g transform="matrix(0 -1 -1 0 550.5 154.5)">
                <mask id="dT" fill="#fff">
                    <use xlink:href="#dS"/>
                </mask>
                <path fill="#FFF" d="M63.862 215.805a5.077 5.077 0 0 1-5.076 5.096c-2.796 0-5.075-2.28-5.075-5.096 0-2.8 2.28-5.08 5.075-5.08a5.074 5.074 0 0 1 5.076 5.08" mask="url(#dT)"/>
            </g>
            <g transform="matrix(0 -1 -1 0 550.5 154.5)">
                <mask id="dV" fill="#fff">
                    <use xlink:href="#dU"/>
                </mask>
                <path fill="#FFF" d="M63.862 187.842a5.077 5.077 0 0 1-5.076 5.095c-2.796 0-5.075-2.28-5.075-5.095 0-2.8 2.28-5.08 5.075-5.08a5.074 5.074 0 0 1 5.076 5.08" mask="url(#dV)"/>
            </g>
            <g transform="matrix(0 -1 -1 0 550.5 154.5)">
                <mask id="dX" fill="#fff">
                    <use xlink:href="#dW"/>
                </mask>
                <path fill="#FFF" d="M63.862 159.877c0 2.817-2.26 5.098-5.076 5.098-2.796 0-5.075-2.28-5.075-5.098 0-2.799 2.28-5.079 5.075-5.079a5.074 5.074 0 0 1 5.076 5.08" mask="url(#dX)"/>
            </g>
            <g transform="matrix(0 -1 -1 0 550.5 154.5)">
                <mask id="dZ" fill="#fff">
                    <use xlink:href="#dY"/>
                </mask>
                <path fill="#FFF" d="M63.862 131.914c0 2.817-2.26 5.08-5.076 5.08a5.074 5.074 0 0 1-5.075-5.08c0-2.799 2.28-5.08 5.075-5.08a5.074 5.074 0 0 1 5.076 5.08" mask="url(#dZ)"/>
            </g>
            <g transform="matrix(0 -1 -1 0 550.5 154.5)">
                <mask id="eb" fill="#fff">
                    <use xlink:href="#ea"/>
                </mask>
                <path fill="#FFF" d="M63.862 103.951c0 2.816-2.26 5.08-5.076 5.08a5.075 5.075 0 0 1-5.075-5.08 5.075 5.075 0 0 1 5.075-5.08 5.063 5.063 0 0 1 5.076 5.08" mask="url(#eb)"/>
            </g>
            <g transform="matrix(0 -1 -1 0 550.5 154.5)">
                <mask id="ed" fill="#fff">
                    <use xlink:href="#ec"/>
                </mask>
                <path fill="#FFF" d="M63.862 75.988c0 2.816-2.26 5.08-5.076 5.08a5.075 5.075 0 0 1-5.075-5.08 5.075 5.075 0 0 1 5.075-5.08 5.063 5.063 0 0 1 5.076 5.08" mask="url(#ed)"/>
            </g>
            <g transform="matrix(0 -1 -1 0 550.5 154.5)">
                <mask id="ef" fill="#fff">
                    <use xlink:href="#ee"/>
                </mask>
                <path fill="#FFF" d="M63.862 48.025c0 2.816-2.26 5.08-5.076 5.08a5.075 5.075 0 0 1-5.075-5.08 5.075 5.075 0 0 1 5.075-5.08 5.064 5.064 0 0 1 5.076 5.08" mask="url(#ef)"/>
            </g>
            <g transform="matrix(0 -1 -1 0 550.5 154.5)">
                <mask id="eh" fill="#fff">
                    <use xlink:href="#eg"/>
                </mask>
                <path fill="#FFF" d="M63.862 20.061c0 2.817-2.26 5.08-5.076 5.08a5.075 5.075 0 0 1-5.075-5.08 5.075 5.075 0 0 1 5.075-5.08 5.063 5.063 0 0 1 5.076 5.08" mask="url(#eh)"/>
            </g>
            <g transform="matrix(0 -1 -1 0 550.5 154.5)">
                <mask id="ej" fill="#fff">
                    <use xlink:href="#ei"/>
                </mask>
                <path fill="#FFF" d="M51.567 368.765c0 2.8-2.278 5.095-5.076 5.095-2.814 0-5.091-2.295-5.091-5.095s2.277-5.08 5.091-5.08a5.085 5.085 0 0 1 5.076 5.08" mask="url(#ej)"/>
            </g>
            <g transform="matrix(0 -1 -1 0 550.5 154.5)">
                <mask id="el" fill="#fff">
                    <use xlink:href="#ek"/>
                </mask>
                <path fill="#FFF" d="M51.567 340.801c0 2.8-2.278 5.096-5.076 5.096-2.814 0-5.091-2.296-5.091-5.096 0-2.8 2.277-5.08 5.091-5.08a5.085 5.085 0 0 1 5.076 5.08" mask="url(#el)"/>
            </g>
            <g transform="matrix(0 -1 -1 0 550.5 154.5)">
                <mask id="en" fill="#fff">
                    <use xlink:href="#em"/>
                </mask>
                <path fill="#FFF" d="M51.567 312.838c0 2.8-2.278 5.096-5.076 5.096-2.814 0-5.091-2.297-5.091-5.096 0-2.8 2.277-5.08 5.091-5.08a5.085 5.085 0 0 1 5.076 5.08" mask="url(#en)"/>
            </g>
            <g transform="matrix(0 -1 -1 0 550.5 154.5)">
                <mask id="ep" fill="#fff">
                    <use xlink:href="#eo"/>
                </mask>
                <path fill="#FFF" d="M51.567 284.874c0 2.8-2.278 5.08-5.076 5.08a5.088 5.088 0 0 1-5.091-5.08c0-2.799 2.277-5.08 5.091-5.08a5.085 5.085 0 0 1 5.076 5.08" mask="url(#ep)"/>
            </g>
            <g transform="matrix(0 -1 -1 0 550.5 154.5)">
                <mask id="er" fill="#fff">
                    <use xlink:href="#eq"/>
                </mask>
                <path fill="#FFF" d="M51.567 256.911c0 2.8-2.278 5.08-5.076 5.08a5.088 5.088 0 0 1-5.091-5.08 5.077 5.077 0 0 1 5.091-5.08 5.074 5.074 0 0 1 5.076 5.08" mask="url(#er)"/>
            </g>
            <g transform="matrix(0 -1 -1 0 550.5 154.5)">
                <mask id="et" fill="#fff">
                    <use xlink:href="#es"/>
                </mask>
                <path fill="#FFF" d="M51.567 228.948c0 2.8-2.278 5.08-5.076 5.08a5.088 5.088 0 0 1-5.091-5.08 5.077 5.077 0 0 1 5.091-5.08 5.074 5.074 0 0 1 5.076 5.08" mask="url(#et)"/>
            </g>
            <g transform="matrix(0 -1 -1 0 550.5 154.5)">
                <mask id="ev" fill="#fff">
                    <use xlink:href="#eu"/>
                </mask>
                <path fill="#FFF" d="M51.567 200.985c0 2.8-2.278 5.08-5.076 5.08a5.088 5.088 0 0 1-5.091-5.08 5.078 5.078 0 0 1 5.091-5.08 5.075 5.075 0 0 1 5.076 5.08" mask="url(#ev)"/>
            </g>
            <g transform="matrix(0 -1 -1 0 550.5 154.5)">
                <mask id="ex" fill="#fff">
                    <use xlink:href="#ew"/>
                </mask>
                <path fill="#FFF" d="M51.567 173.021a5.074 5.074 0 0 1-5.076 5.08 5.077 5.077 0 0 1-5.091-5.08 5.078 5.078 0 0 1 5.091-5.08 5.075 5.075 0 0 1 5.076 5.08" mask="url(#ex)"/>
            </g>
            <g transform="matrix(0 -1 -1 0 550.5 154.5)">
                <mask id="ez" fill="#fff">
                    <use xlink:href="#ey"/>
                </mask>
                <path fill="#FFF" d="M51.567 145.058c0 2.8-2.278 5.08-5.076 5.08a5.088 5.088 0 0 1-5.091-5.08 5.077 5.077 0 0 1 5.091-5.08 5.074 5.074 0 0 1 5.076 5.08" mask="url(#ez)"/>
            </g>
            <g transform="matrix(0 -1 -1 0 550.5 154.5)">
                <mask id="eB" fill="#fff">
                    <use xlink:href="#eA"/>
                </mask>
                <path fill="#FFF" d="M51.567 117.095c0 2.799-2.278 5.08-5.076 5.08a5.088 5.088 0 1 1 0-10.177c2.798 0 5.076 2.28 5.076 5.097" mask="url(#eB)"/>
            </g>
            <g transform="matrix(0 -1 -1 0 550.5 154.5)">
                <mask id="eD" fill="#fff">
                    <use xlink:href="#eC"/>
                </mask>
                <path fill="#FFF" d="M51.567 89.132c0 2.799-2.278 5.08-5.076 5.08a5.088 5.088 0 1 1 0-10.177c2.798 0 5.076 2.28 5.076 5.097" mask="url(#eD)"/>
            </g>
            <g transform="matrix(0 -1 -1 0 550.5 154.5)">
                <mask id="eF" fill="#fff">
                    <use xlink:href="#eE"/>
                </mask>
                <path fill="#FFF" d="M51.567 61.168c0 2.8-2.278 5.08-5.076 5.08a5.088 5.088 0 1 1 0-10.176c2.798 0 5.076 2.28 5.076 5.096" mask="url(#eF)"/>
            </g>
            <g transform="matrix(0 -1 -1 0 550.5 154.5)">
                <mask id="eH" fill="#fff">
                    <use xlink:href="#eG"/>
                </mask>
                <path fill="#FFF" d="M51.567 33.205c0 2.8-2.278 5.079-5.076 5.079a5.088 5.088 0 1 1 0-10.175c2.798 0 5.076 2.28 5.076 5.096" mask="url(#eH)"/>
            </g>
            <g transform="matrix(0 -1 -1 0 550.5 154.5)">
                <mask id="eJ" fill="#fff">
                    <use xlink:href="#eI"/>
                </mask>
                <path fill="#FFF" d="M51.567 5.241c0 2.8-2.278 5.08-5.076 5.08a5.088 5.088 0 1 1 0-10.176c2.798 0 5.076 2.28 5.076 5.096" mask="url(#eJ)"/>
            </g>
            <g transform="matrix(0 -1 -1 0 550.5 154.5)">
                <mask id="eL" fill="#fff">
                    <use xlink:href="#eK"/>
                </mask>
                <path fill="#FFF" d="M39.272 383.601c0 2.8-2.278 5.08-5.092 5.08a5.085 5.085 0 0 1-5.075-5.08c0-2.816 2.277-5.097 5.075-5.097a5.093 5.093 0 0 1 5.092 5.097" mask="url(#eL)"/>
            </g>
            <g transform="matrix(0 -1 -1 0 550.5 154.5)">
                <mask id="eN" fill="#fff">
                    <use xlink:href="#eM"/>
                </mask>
                <path fill="#FFF" d="M39.272 355.638c0 2.8-2.278 5.08-5.092 5.08a5.085 5.085 0 0 1-5.075-5.08c0-2.816 2.277-5.097 5.075-5.097a5.093 5.093 0 0 1 5.092 5.097" mask="url(#eN)"/>
            </g>
            <g transform="matrix(0 -1 -1 0 550.5 154.5)">
                <mask id="eP" fill="#fff">
                    <use xlink:href="#eO"/>
                </mask>
                <path fill="#FFF" d="M39.272 327.675c0 2.799-2.278 5.08-5.092 5.08a5.085 5.085 0 0 1-5.075-5.08c0-2.817 2.277-5.097 5.075-5.097a5.092 5.092 0 0 1 5.092 5.097" mask="url(#eP)"/>
            </g>
            <g transform="matrix(0 -1 -1 0 550.5 154.5)">
                <mask id="eR" fill="#fff">
                    <use xlink:href="#eQ"/>
                </mask>
                <path fill="#FFF" d="M39.272 299.712c0 2.799-2.278 5.08-5.092 5.08a5.085 5.085 0 0 1-5.075-5.08c0-2.818 2.277-5.097 5.075-5.097a5.092 5.092 0 0 1 5.092 5.097" mask="url(#eR)"/>
            </g>
            <g transform="matrix(0 -1 -1 0 550.5 154.5)">
                <mask id="eT" fill="#fff">
                    <use xlink:href="#eS"/>
                </mask>
                <path fill="#FFF" d="M39.272 271.731a5.091 5.091 0 0 1-5.092 5.096c-2.798 0-5.075-2.28-5.075-5.096 0-2.8 2.277-5.08 5.075-5.08a5.088 5.088 0 0 1 5.092 5.08" mask="url(#eT)"/>
            </g>
            <g transform="matrix(0 -1 -1 0 550.5 154.5)">
                <mask id="eV" fill="#fff">
                    <use xlink:href="#eU"/>
                </mask>
                <path fill="#FFF" d="M39.272 243.768a5.091 5.091 0 0 1-5.092 5.096c-2.798 0-5.075-2.28-5.075-5.096 0-2.8 2.277-5.08 5.075-5.08a5.088 5.088 0 0 1 5.092 5.08" mask="url(#eV)"/>
            </g>
            <g transform="matrix(0 -1 -1 0 550.5 154.5)">
                <mask id="eX" fill="#fff">
                    <use xlink:href="#eW"/>
                </mask>
                <path fill="#FFF" d="M39.272 215.805a5.091 5.091 0 0 1-5.092 5.096c-2.798 0-5.075-2.28-5.075-5.096 0-2.8 2.277-5.08 5.075-5.08a5.088 5.088 0 0 1 5.092 5.08" mask="url(#eX)"/>
            </g>
            <g transform="matrix(0 -1 -1 0 550.5 154.5)">
                <mask id="eZ" fill="#fff">
                    <use xlink:href="#eY"/>
                </mask>
                <path fill="#FFF" d="M39.272 187.842a5.091 5.091 0 0 1-5.092 5.095c-2.798 0-5.075-2.28-5.075-5.095 0-2.8 2.277-5.08 5.075-5.08a5.088 5.088 0 0 1 5.092 5.08" mask="url(#eZ)"/>
            </g>
            <g transform="matrix(0 -1 -1 0 550.5 154.5)">
                <mask id="fb" fill="#fff">
                    <use xlink:href="#fa"/>
                </mask>
                <path fill="#FFF" d="M39.272 159.877a5.092 5.092 0 0 1-5.092 5.098c-2.798 0-5.075-2.28-5.075-5.098 0-2.799 2.277-5.079 5.075-5.079a5.088 5.088 0 0 1 5.092 5.08" mask="url(#fb)"/>
            </g>
            <g transform="matrix(0 -1 -1 0 550.5 154.5)">
                <mask id="fd" fill="#fff">
                    <use xlink:href="#fc"/>
                </mask>
                <path fill="#FFF" d="M39.272 131.914a5.077 5.077 0 0 1-5.092 5.08 5.074 5.074 0 0 1-5.075-5.08c0-2.799 2.277-5.08 5.075-5.08a5.088 5.088 0 0 1 5.092 5.08" mask="url(#fd)"/>
            </g>
            <g transform="matrix(0 -1 -1 0 550.5 154.5)">
                <mask id="ff" fill="#fff">
                    <use xlink:href="#fe"/>
                </mask>
                <path fill="#FFF" d="M39.272 103.951a5.077 5.077 0 0 1-5.092 5.08 5.074 5.074 0 0 1-5.075-5.08 5.074 5.074 0 0 1 5.075-5.08 5.077 5.077 0 0 1 5.092 5.08" mask="url(#ff)"/>
            </g>
            <g transform="matrix(0 -1 -1 0 550.5 154.5)">
                <mask id="fh" fill="#fff">
                    <use xlink:href="#fg"/>
                </mask>
                <path fill="#FFF" d="M39.272 75.988a5.077 5.077 0 0 1-5.092 5.08 5.074 5.074 0 0 1-5.075-5.08 5.074 5.074 0 0 1 5.075-5.08 5.077 5.077 0 0 1 5.092 5.08" mask="url(#fh)"/>
            </g>
            <g transform="matrix(0 -1 -1 0 550.5 154.5)">
                <mask id="fj" fill="#fff">
                    <use xlink:href="#fi"/>
                </mask>
                <path fill="#FFF" d="M39.272 48.025a5.077 5.077 0 0 1-5.092 5.08 5.074 5.074 0 0 1-5.075-5.08 5.075 5.075 0 0 1 5.075-5.08 5.078 5.078 0 0 1 5.092 5.08" mask="url(#fj)"/>
            </g>
            <g transform="matrix(0 -1 -1 0 550.5 154.5)">
                <mask id="fl" fill="#fff">
                    <use xlink:href="#fk"/>
                </mask>
                <path fill="#FFF" d="M39.272 20.061a5.078 5.078 0 0 1-5.092 5.08 5.075 5.075 0 0 1-5.075-5.08 5.074 5.074 0 0 1 5.075-5.08 5.077 5.077 0 0 1 5.092 5.08" mask="url(#fl)"/>
            </g>
            <g transform="matrix(0 -1 -1 0 550.5 154.5)">
                <mask id="fn" fill="#fff">
                    <use xlink:href="#fm"/>
                </mask>
                <path fill="#FFF" d="M26.961 368.765c0 2.8-2.262 5.095-5.076 5.095-2.814 0-5.076-2.295-5.076-5.095s2.262-5.08 5.076-5.08a5.074 5.074 0 0 1 5.076 5.08" mask="url(#fn)"/>
            </g>
            <g transform="matrix(0 -1 -1 0 550.5 154.5)">
                <mask id="fp" fill="#fff">
                    <use xlink:href="#fo"/>
                </mask>
                <path fill="#FFF" d="M26.961 340.801c0 2.8-2.262 5.096-5.076 5.096-2.814 0-5.076-2.296-5.076-5.096 0-2.8 2.262-5.08 5.076-5.08a5.074 5.074 0 0 1 5.076 5.08" mask="url(#fp)"/>
            </g>
            <g transform="matrix(0 -1 -1 0 550.5 154.5)">
                <mask id="fr" fill="#fff">
                    <use xlink:href="#fq"/>
                </mask>
                <path fill="#FFF" d="M26.961 312.838c0 2.8-2.262 5.096-5.076 5.096-2.814 0-5.076-2.297-5.076-5.096 0-2.8 2.262-5.08 5.076-5.08a5.074 5.074 0 0 1 5.076 5.08" mask="url(#fr)"/>
            </g>
            <g transform="matrix(0 -1 -1 0 550.5 154.5)">
                <mask id="ft" fill="#fff">
                    <use xlink:href="#fs"/>
                </mask>
                <path fill="#FFF" d="M26.961 284.874c0 2.8-2.262 5.08-5.076 5.08a5.074 5.074 0 0 1-5.076-5.08 5.075 5.075 0 1 1 10.152 0" mask="url(#ft)"/>
            </g>
            <g transform="matrix(0 -1 -1 0 550.5 154.5)">
                <mask id="fv" fill="#fff">
                    <use xlink:href="#fu"/>
                </mask>
                <path fill="#FFF" d="M26.961 256.911c0 2.8-2.262 5.08-5.076 5.08a5.074 5.074 0 0 1-5.076-5.08 5.064 5.064 0 0 1 5.076-5.08 5.064 5.064 0 0 1 5.076 5.08" mask="url(#fv)"/>
            </g>
            <g transform="matrix(0 -1 -1 0 550.5 154.5)">
                <mask id="fx" fill="#fff">
                    <use xlink:href="#fw"/>
                </mask>
                <path fill="#FFF" d="M26.961 228.948c0 2.8-2.262 5.08-5.076 5.08a5.074 5.074 0 0 1-5.076-5.08 5.064 5.064 0 0 1 5.076-5.08 5.064 5.064 0 0 1 5.076 5.08" mask="url(#fx)"/>
            </g>
            <g transform="matrix(0 -1 -1 0 550.5 154.5)">
                <mask id="fz" fill="#fff">
                    <use xlink:href="#fy"/>
                </mask>
                <path fill="#FFF" d="M26.961 200.985c0 2.8-2.262 5.08-5.076 5.08a5.074 5.074 0 0 1-5.076-5.08 5.065 5.065 0 0 1 5.076-5.08 5.065 5.065 0 0 1 5.076 5.08" mask="url(#fz)"/>
            </g>
            <g transform="matrix(0 -1 -1 0 550.5 154.5)">
                <mask id="fB" fill="#fff">
                    <use xlink:href="#fA"/>
                </mask>
                <path fill="#FFF" d="M26.961 173.021a5.064 5.064 0 0 1-5.076 5.08 5.064 5.064 0 0 1-5.076-5.08 5.065 5.065 0 0 1 5.076-5.08 5.065 5.065 0 0 1 5.076 5.08" mask="url(#fB)"/>
            </g>
            <g transform="matrix(0 -1 -1 0 550.5 154.5)">
                <mask id="fD" fill="#fff">
                    <use xlink:href="#fC"/>
                </mask>
                <path fill="#FFF" d="M26.961 145.058c0 2.8-2.262 5.08-5.076 5.08a5.075 5.075 0 0 1-5.076-5.08 5.064 5.064 0 0 1 5.076-5.08 5.064 5.064 0 0 1 5.076 5.08" mask="url(#fD)"/>
            </g>
            <g transform="matrix(0 -1 -1 0 550.5 154.5)">
                <mask id="fF" fill="#fff">
                    <use xlink:href="#fE"/>
                </mask>
                <path fill="#FFF" d="M26.961 117.095a5.075 5.075 0 1 1-10.152 0c0-2.817 2.262-5.097 5.076-5.097 2.814 0 5.076 2.28 5.076 5.097" mask="url(#fF)"/>
            </g>
            <g transform="matrix(0 -1 -1 0 550.5 154.5)">
                <mask id="fH" fill="#fff">
                    <use xlink:href="#fG"/>
                </mask>
                <path fill="#FFF" d="M26.961 89.132a5.075 5.075 0 1 1-10.152 0c0-2.817 2.262-5.097 5.076-5.097 2.814 0 5.076 2.28 5.076 5.097" mask="url(#fH)"/>
            </g>
            <g transform="matrix(0 -1 -1 0 550.5 154.5)">
                <mask id="fJ" fill="#fff">
                    <use xlink:href="#fI"/>
                </mask>
                <path fill="#FFF" d="M26.961 61.168c0 2.8-2.262 5.08-5.076 5.08a5.074 5.074 0 0 1-5.076-5.08 5.078 5.078 0 0 1 5.076-5.096 5.078 5.078 0 0 1 5.076 5.096" mask="url(#fJ)"/>
            </g>
            <g transform="matrix(0 -1 -1 0 550.5 154.5)">
                <mask id="fL" fill="#fff">
                    <use xlink:href="#fK"/>
                </mask>
                <path fill="#FFF" d="M26.961 33.205c0 2.8-2.262 5.079-5.076 5.079a5.074 5.074 0 0 1-5.076-5.08 5.078 5.078 0 0 1 5.076-5.095 5.078 5.078 0 0 1 5.076 5.096" mask="url(#fL)"/>
            </g>
            <g transform="matrix(0 -1 -1 0 550.5 154.5)">
                <mask id="fN" fill="#fff">
                    <use xlink:href="#fM"/>
                </mask>
                <path fill="#FFF" d="M26.961 5.241c0 2.8-2.262 5.08-5.076 5.08a5.074 5.074 0 0 1-5.076-5.08A5.078 5.078 0 0 1 21.885.145a5.078 5.078 0 0 1 5.076 5.096" mask="url(#fN)"/>
            </g>
            <g transform="matrix(0 -1 -1 0 550.5 154.5)">
                <mask id="fP" fill="#fff">
                    <use xlink:href="#fO"/>
                </mask>
                <path fill="#FFF" d="M14.666 383.601c0 2.8-2.278 5.08-5.093 5.08a5.085 5.085 0 0 1-5.075-5.08c0-2.816 2.279-5.097 5.075-5.097a5.093 5.093 0 0 1 5.093 5.097" mask="url(#fP)"/>
            </g>
            <g transform="matrix(0 -1 -1 0 550.5 154.5)">
                <mask id="fR" fill="#fff">
                    <use xlink:href="#fQ"/>
                </mask>
                <path fill="#FFF" d="M14.666 355.638c0 2.8-2.278 5.08-5.093 5.08a5.085 5.085 0 0 1-5.075-5.08c0-2.816 2.279-5.097 5.075-5.097a5.093 5.093 0 0 1 5.093 5.097" mask="url(#fR)"/>
            </g>
            <g transform="matrix(0 -1 -1 0 550.5 154.5)">
                <mask id="fT" fill="#fff">
                    <use xlink:href="#fS"/>
                </mask>
                <path fill="#FFF" d="M14.666 327.675c0 2.799-2.278 5.08-5.093 5.08a5.085 5.085 0 0 1-5.075-5.08c0-2.817 2.279-5.097 5.075-5.097a5.092 5.092 0 0 1 5.093 5.097" mask="url(#fT)"/>
            </g>
            <g transform="matrix(0 -1 -1 0 550.5 154.5)">
                <mask id="fV" fill="#fff">
                    <use xlink:href="#fU"/>
                </mask>
                <path fill="#FFF" d="M14.666 299.712c0 2.799-2.278 5.08-5.093 5.08a5.085 5.085 0 0 1-5.075-5.08c0-2.818 2.279-5.097 5.075-5.097a5.092 5.092 0 0 1 5.093 5.097" mask="url(#fV)"/>
            </g>
            <g transform="matrix(0 -1 -1 0 550.5 154.5)">
                <mask id="fX" fill="#fff">
                    <use xlink:href="#fW"/>
                </mask>
                <path fill="#FFF" d="M14.666 271.731a5.092 5.092 0 0 1-5.093 5.096c-2.796 0-5.075-2.28-5.075-5.096 0-2.8 2.279-5.08 5.075-5.08a5.088 5.088 0 0 1 5.093 5.08" mask="url(#fX)"/>
            </g>
            <g transform="matrix(0 -1 -1 0 550.5 154.5)">
                <mask id="fZ" fill="#fff">
                    <use xlink:href="#fY"/>
                </mask>
                <path fill="#FFF" d="M14.666 243.768a5.092 5.092 0 0 1-5.093 5.096c-2.796 0-5.075-2.28-5.075-5.096 0-2.8 2.279-5.08 5.075-5.08a5.088 5.088 0 0 1 5.093 5.08" mask="url(#fZ)"/>
            </g>
            <g transform="matrix(0 -1 -1 0 550.5 154.5)">
                <mask id="gb" fill="#fff">
                    <use xlink:href="#ga"/>
                </mask>
                <path fill="#FFF" d="M14.666 215.805a5.092 5.092 0 0 1-5.093 5.096c-2.796 0-5.075-2.28-5.075-5.096 0-2.8 2.279-5.08 5.075-5.08a5.088 5.088 0 0 1 5.093 5.08" mask="url(#gb)"/>
            </g>
            <g transform="matrix(0 -1 -1 0 550.5 154.5)">
                <mask id="gd" fill="#fff">
                    <use xlink:href="#gc"/>
                </mask>
                <path fill="#FFF" d="M14.666 187.842a5.092 5.092 0 0 1-5.093 5.095c-2.796 0-5.075-2.28-5.075-5.095 0-2.8 2.279-5.08 5.075-5.08a5.088 5.088 0 0 1 5.093 5.08" mask="url(#gd)"/>
            </g>
            <g transform="matrix(0 -1 -1 0 550.5 154.5)">
                <mask id="gf" fill="#fff">
                    <use xlink:href="#ge"/>
                </mask>
                <path fill="#FFF" d="M14.666 159.877a5.092 5.092 0 0 1-5.093 5.098c-2.796 0-5.075-2.28-5.075-5.098 0-2.799 2.279-5.079 5.075-5.079a5.089 5.089 0 0 1 5.093 5.08" mask="url(#gf)"/>
            </g>
            <g transform="matrix(0 -1 -1 0 550.5 154.5)">
                <mask id="gh" fill="#fff">
                    <use xlink:href="#gg"/>
                </mask>
                <path fill="#FFF" d="M14.666 131.914a5.077 5.077 0 0 1-5.093 5.08 5.074 5.074 0 0 1-5.075-5.08c0-2.799 2.279-5.08 5.075-5.08a5.089 5.089 0 0 1 5.093 5.08" mask="url(#gh)"/>
            </g>
            <g transform="matrix(0 -1 -1 0 550.5 154.5)">
                <mask id="gj" fill="#fff">
                    <use xlink:href="#gi"/>
                </mask>
                <path fill="#FFF" d="M14.666 103.951a5.078 5.078 0 0 1-5.093 5.08 5.074 5.074 0 0 1-5.075-5.08 5.074 5.074 0 0 1 5.075-5.08 5.078 5.078 0 0 1 5.093 5.08" mask="url(#gj)"/>
            </g>
            <g transform="matrix(0 -1 -1 0 550.5 154.5)">
                <mask id="gl" fill="#fff">
                    <use xlink:href="#gk"/>
                </mask>
                <path fill="#FFF" d="M14.666 75.988a5.078 5.078 0 0 1-5.093 5.08 5.074 5.074 0 0 1-5.075-5.08 5.074 5.074 0 0 1 5.075-5.08 5.078 5.078 0 0 1 5.093 5.08" mask="url(#gl)"/>
            </g>
            <g transform="matrix(0 -1 -1 0 550.5 154.5)">
                <mask id="gn" fill="#fff">
                    <use xlink:href="#gm"/>
                </mask>
                <path fill="#FFF" d="M14.666 48.025a5.078 5.078 0 0 1-5.093 5.08 5.074 5.074 0 0 1-5.075-5.08 5.075 5.075 0 0 1 5.075-5.08 5.078 5.078 0 0 1 5.093 5.08" mask="url(#gn)"/>
            </g>
            <g transform="matrix(0 -1 -1 0 550.5 154.5)">
                <mask id="gp" fill="#fff">
                    <use xlink:href="#go"/>
                </mask>
                <path fill="#FFF" d="M14.666 20.061a5.078 5.078 0 0 1-5.093 5.08 5.075 5.075 0 0 1-5.075-5.08 5.074 5.074 0 0 1 5.075-5.08 5.078 5.078 0 0 1 5.093 5.08" mask="url(#gp)"/>
            </g>
            <g transform="matrix(0 -1 -1 0 550.5 154.5)">
                <mask id="gr" fill="#fff">
                    <use xlink:href="#gq"/>
                </mask>
                <path fill="#FFF" d="M2.354 368.765c0 2.8-2.26 5.095-5.075 5.095-2.797 0-5.075-2.295-5.075-5.095s2.278-5.08 5.075-5.08a5.073 5.073 0 0 1 5.075 5.08" mask="url(#gr)"/>
            </g>
            <g transform="matrix(0 -1 -1 0 550.5 154.5)">
                <mask id="gt" fill="#fff">
                    <use xlink:href="#gs"/>
                </mask>
                <path fill="#FFF" d="M2.354 340.801c0 2.8-2.26 5.096-5.075 5.096-2.797 0-5.075-2.296-5.075-5.096 0-2.8 2.278-5.08 5.075-5.08a5.073 5.073 0 0 1 5.075 5.08" mask="url(#gt)"/>
            </g>
            <g transform="matrix(0 -1 -1 0 550.5 154.5)">
                <mask id="gv" fill="#fff">
                    <use xlink:href="#gu"/>
                </mask>
                <path fill="#FFF" d="M2.354 312.838c0 2.8-2.26 5.096-5.075 5.096-2.797 0-5.075-2.297-5.075-5.096 0-2.8 2.278-5.08 5.075-5.08a5.073 5.073 0 0 1 5.075 5.08" mask="url(#gv)"/>
            </g>
            <g transform="matrix(0 -1 -1 0 550.5 154.5)">
                <mask id="gx" fill="#fff">
                    <use xlink:href="#gw"/>
                </mask>
                <path fill="#FFF" d="M2.354 284.874c0 2.8-2.26 5.08-5.075 5.08a5.085 5.085 0 0 1-5.075-5.08c0-2.799 2.278-5.08 5.075-5.08a5.074 5.074 0 0 1 5.075 5.08" mask="url(#gx)"/>
            </g>
            <g transform="matrix(0 -1 -1 0 550.5 154.5)">
                <mask id="gz" fill="#fff">
                    <use xlink:href="#gy"/>
                </mask>
                <path fill="#FFF" d="M2.354 256.911c0 2.8-2.26 5.08-5.075 5.08a5.085 5.085 0 0 1-5.075-5.08 5.074 5.074 0 0 1 5.075-5.08 5.063 5.063 0 0 1 5.075 5.08" mask="url(#gz)"/>
            </g>
            <g transform="matrix(0 -1 -1 0 550.5 154.5)">
                <mask id="gB" fill="#fff">
                    <use xlink:href="#gA"/>
                </mask>
                <path fill="#FFF" d="M2.354 228.948c0 2.8-2.26 5.08-5.075 5.08a5.085 5.085 0 0 1-5.075-5.08 5.074 5.074 0 0 1 5.075-5.08 5.063 5.063 0 0 1 5.075 5.08" mask="url(#gB)"/>
            </g>
            <g transform="matrix(0 -1 -1 0 550.5 154.5)">
                <mask id="gD" fill="#fff">
                    <use xlink:href="#gC"/>
                </mask>
                <path fill="#FFF" d="M2.354 200.985c0 2.8-2.26 5.08-5.075 5.08a5.085 5.085 0 0 1-5.075-5.08 5.075 5.075 0 0 1 5.075-5.08 5.064 5.064 0 0 1 5.075 5.08" mask="url(#gD)"/>
            </g>
            <g transform="matrix(0 -1 -1 0 550.5 154.5)">
                <mask id="gF" fill="#fff">
                    <use xlink:href="#gE"/>
                </mask>
                <path fill="#FFF" d="M2.354 173.021c0 2.817-2.26 5.08-5.075 5.08a5.074 5.074 0 0 1-5.075-5.08 5.075 5.075 0 0 1 5.075-5.08 5.064 5.064 0 0 1 5.075 5.08" mask="url(#gF)"/>
            </g>
            <g transform="matrix(0 -1 -1 0 550.5 154.5)">
                <mask id="gH" fill="#fff">
                    <use xlink:href="#gG"/>
                </mask>
                <path fill="#FFF" d="M2.354 145.058c0 2.8-2.26 5.08-5.075 5.08a5.085 5.085 0 0 1-5.075-5.08 5.074 5.074 0 0 1 5.075-5.08 5.063 5.063 0 0 1 5.075 5.08" mask="url(#gH)"/>
            </g>
            <g transform="matrix(0 -1 -1 0 550.5 154.5)">
                <mask id="gJ" fill="#fff">
                    <use xlink:href="#gI"/>
                </mask>
                <path fill="#FFF" d="M2.354 117.095c0 2.799-2.26 5.08-5.075 5.08a5.085 5.085 0 0 1-5.075-5.08c0-2.817 2.278-5.097 5.075-5.097 2.814 0 5.075 2.28 5.075 5.097" mask="url(#gJ)"/>
            </g>
            <g transform="matrix(0 -1 -1 0 550.5 154.5)">
                <mask id="gL" fill="#fff">
                    <use xlink:href="#gK"/>
                </mask>
                <path fill="#FFF" d="M2.354 89.132c0 2.799-2.26 5.08-5.075 5.08a5.085 5.085 0 0 1-5.075-5.08c0-2.817 2.278-5.097 5.075-5.097 2.814 0 5.075 2.28 5.075 5.097" mask="url(#gL)"/>
            </g>
            <g transform="matrix(0 -1 -1 0 550.5 154.5)">
                <mask id="gN" fill="#fff">
                    <use xlink:href="#gM"/>
                </mask>
                <path fill="#FFF" d="M2.354 61.168c0 2.8-2.26 5.08-5.075 5.08a5.085 5.085 0 0 1-5.075-5.08c0-2.816 2.278-5.096 5.075-5.096 2.814 0 5.075 2.28 5.075 5.096" mask="url(#gN)"/>
            </g>
            <g transform="matrix(0 -1 -1 0 550.5 154.5)">
                <mask id="gP" fill="#fff">
                    <use xlink:href="#gO"/>
                </mask>
                <path fill="#FFF" d="M2.354 33.205c0 2.8-2.26 5.079-5.075 5.079a5.085 5.085 0 0 1-5.075-5.08c0-2.816 2.278-5.095 5.075-5.095 2.814 0 5.075 2.28 5.075 5.096" mask="url(#gP)"/>
            </g>
            <g transform="matrix(0 -1 -1 0 550.5 154.5)">
                <mask id="gR" fill="#fff">
                    <use xlink:href="#gQ"/>
                </mask>
                <path fill="#FFF" d="M2.354 5.241c0 2.8-2.26 5.08-5.075 5.08a5.085 5.085 0 0 1-5.075-5.08c0-2.816 2.278-5.096 5.075-5.096 2.814 0 5.075 2.28 5.075 5.096" mask="url(#gR)"/>
            </g>
        </g>
        <circle cx="1211.5" cy="171.5" r="11.5" fill="#FFF" fill-rule="nonzero" mask="url(#b)"/>
        <path stroke="#FFF" stroke-width="14" d="M1275.054 84c0 22.673 18.38 41.054 41.054 41.054-22.673 0-41.054 18.38-41.054 41.054 0-22.674-18.38-41.054-41.054-41.054 22.674 0 41.054-18.38 41.054-41.054M184.054 218c0 22.673 18.38 41.054 41.054 41.054-22.673 0-41.054 18.38-41.054 41.054 0-22.674-18.38-41.054-41.054-41.054 22.674 0 41.054-18.38 41.054-41.054" mask="url(#b)"/>
    </g>
</svg>
