<svg xmlns="http://www.w3.org/2000/svg" width="50" height="45" viewBox="0 0 50 45">
    <g fill="none" fill-rule="nonzero">
        <rect width="42" height="38" x="8" fill="#BEEAFC" rx="5"/>
        <path fill="#000" d="M37.96 5H5.04C2.26 5 0 7.28 0 10.085v29.83C0 42.72 2.26 45 5.04 45h32.92c2.78 0 5.04-2.28 5.04-5.085v-29.83C43 7.28 40.74 5 37.96 5zM5.04 8.39h32.92c.927 0 1.68.76 1.68 1.695v5.084H3.36v-5.084A1.69 1.69 0 0 1 5.04 8.39zm32.92 33.22H5.04a1.69 1.69 0 0 1-1.68-1.695V18.56h36.28v21.356a1.69 1.69 0 0 1-1.68 1.695zM5.88 11.78c0-.937.752-1.695 1.68-1.695.927 0 1.68.758 1.68 1.695 0 .936-.753 1.695-1.68 1.695-.928 0-1.68-.76-1.68-1.695zm5.879 0c0-.937.752-1.695 1.68-1.695.927 0 1.68.758 1.68 1.695 0 .936-.753 1.695-1.68 1.695-.928 0-1.68-.76-1.68-1.695zm-5.04 26.44H19.82V21.95H6.72v16.27zm3.36-12.881h6.383v9.492h-6.383v-9.492zm13.102 3.05H36.28v3.39H23.18v-3.39zm0 6.442H36.28v3.39H23.18v-3.39zm0-12.882H36.28v3.39H23.18v-3.39z"/>
    </g>
</svg>
