<svg xmlns="http://www.w3.org/2000/svg" xmlns:xlink="http://www.w3.org/1999/xlink" width="40" height="40" viewBox="0 0 40 40">
    <defs>
        <path id="a" d="M0 0h17.903v14.55H0z"/>
    </defs>
    <g fill="none" fill-rule="evenodd">
        <circle cx="20" cy="20" r="20" fill="#4AA2D7" fill-rule="nonzero"/>
        <g transform="translate(11 13)">
            <mask id="b" fill="#fff">
                <use xlink:href="#a"/>
            </mask>
            <path fill="#FEFEFE" d="M17.903 1.722a7.34 7.34 0 0 1-2.11.579A3.685 3.685 0 0 0 17.408.268a7.35 7.35 0 0 1-2.332.892 3.673 3.673 0 0 0-6.259 3.35A10.427 10.427 0 0 1 1.247.672a3.671 3.671 0 0 0 1.137 4.904 3.655 3.655 0 0 1-1.665-.46v.047a3.675 3.675 0 0 0 2.946 3.601 3.677 3.677 0 0 1-1.658.063 3.677 3.677 0 0 0 3.43 2.55A7.367 7.367 0 0 1 0 12.9a10.394 10.394 0 0 0 5.63 1.65c6.756 0 10.45-5.597 10.45-10.45 0-.16-.003-.318-.01-.475a7.462 7.462 0 0 0 1.833-1.902" mask="url(#b)"/>
        </g>
    </g>
</svg>
