<svg xmlns="http://www.w3.org/2000/svg" width="60" height="46" viewBox="0 0 60 46">
    <path fill="#FFD2D8" fill-rule="evenodd" d="M0 12.016c0-3.63 1.219-6.54 3.656-8.73C6.094 1.096 9.125 0 12.75 0 17.375 0 21 1.47 23.625 4.412s3.938 6.853 3.938 11.735c0 5.007-.782 9.263-2.344 12.767-1.563 3.505-3.438 6.415-5.625 8.73-2.188 2.317-4.469 4.132-6.844 5.446S8.313 45.374 6.562 46l-6-10.139c2.5-1.001 4.625-2.597 6.375-4.788 1.75-2.19 2.75-4.537 3-7.04-2.5 0-4.78-1.096-6.843-3.286C1.03 18.557 0 15.647 0 12.017zm32.438 0c0-3.63 1.218-6.54 3.656-8.73C38.53 1.096 41.562 0 45.187 0c4.626 0 8.25 1.47 10.876 4.412C58.688 7.354 60 11.265 60 16.147c0 5.007-.781 9.263-2.344 12.767-1.562 3.505-3.437 6.415-5.625 8.73-2.187 2.317-4.468 4.132-6.843 5.446C42.812 44.404 40.75 45.374 39 46l-6-10.139c2.5-1.001 4.625-2.597 6.375-4.788 1.75-2.19 2.75-4.537 3-7.04-2.5 0-4.781-1.096-6.844-3.286-2.062-2.19-3.093-5.1-3.093-8.73z"/>
</svg>
