<svg xmlns="http://www.w3.org/2000/svg" width="40" height="40" viewBox="0 0 40 40">
    <g fill="none" fill-rule="evenodd">
        <circle cx="20" cy="20" r="20" fill="#4A76A8" fill-rule="nonzero"/>
        <path fill="#FFF" d="M21.767 23.614c-.146.265-.378.465-.695.602-.361.156-.716.286-1.064.299-.348.012-.977.065-1.885.065h-.277v-3.587h.734c.622 0 1.118.011 1.489.02.37.01.66.058.872.14.349.124.61.309.784.551.174.243.261.58.261 1.01 0 .335-.073.636-.219.9zm-3.92-7.944h.332c.622 0 1.09.014 1.404.023.315.01.587.068.817.167.243.106.421.28.537.516.115.236.172.467.172.691 0 .305-.053.573-.158.803-.106.23-.3.411-.579.542-.255.118-.502.21-.742.222-.24.012-.658.045-1.255.045h-.529V15.67zm6.94 4.856c-.517-.557-1.272-.926-2.081-1.106v-.075c.578-.249 1.083-.637 1.422-1.166a3.288 3.288 0 0 0 .518-1.81c0-.585-.118-1.102-.364-1.55-.246-.447-.615-.805-1.113-1.073a4.464 4.464 0 0 0-1.478-.497c-.526-.078-1.297-.124-2.317-.124h-4.999v14h5.652c.964 0 1.759-.132 2.384-.307a4.943 4.943 0 0 0 1.722-.9 3.759 3.759 0 0 0 1.054-1.308c.261-.523.383-1.135.383-1.825 0-.946-.268-1.703-.784-2.26z"/>
    </g>
</svg>
