<svg xmlns="http://www.w3.org/2000/svg" width="32" height="32" viewBox="0 0 32 32">
    <g fill="none" fill-rule="evenodd">
        <circle cx="16" cy="16" r="16" fill="#4A76A8" fill-rule="nonzero"/>
        <path fill="#FFF" d="M17.443 18.933a1.118 1.118 0 0 1-.56.484c-.29.125-.574.23-.854.24-.28.01-.786.052-1.516.052h-.222v-2.884h.59c.5 0 .899.01 1.196.017.298.007.532.046.702.111.28.1.49.25.63.444.14.195.21.466.21.811 0 .27-.059.512-.176.725zm-3.152-6.387h.267c.5 0 .877.01 1.13.018.252.008.47.055.656.135a.84.84 0 0 1 .431.414c.093.19.139.376.139.556 0 .245-.043.461-.128.646s-.24.33-.465.435c-.205.095-.404.169-.596.179-.193.01-.53.036-1.01.036h-.424v-2.419zm5.58 3.904c-.416-.448-1.022-.744-1.674-.89v-.06c.465-.2.871-.512 1.144-.937.273-.425.416-.91.416-1.455 0-.47-.095-.886-.292-1.246A2.147 2.147 0 0 0 18.57 11c-.37-.2-.765-.337-1.188-.4-.423-.062-1.043-.099-1.863-.099H11.5v11.255h4.544a7.13 7.13 0 0 0 1.917-.246c.502-.14.963-.394 1.384-.723.355-.276.637-.632.847-1.053.21-.42.308-.912.308-1.467 0-.76-.215-1.369-.63-1.816z"/>
    </g>
</svg>
