<svg xmlns="http://www.w3.org/2000/svg" width="20" height="25" viewBox="0 0 20 25">
    <path fill="#576C9A" fill-rule="evenodd" d="M12.68 17.992c-.251.454-.649.798-1.193 1.033-.619.267-1.227.49-1.825.511-.597.022-1.675.112-3.233.112h-.475v-6.152h1.26c1.066 0 1.917.02 2.552.035.635.016 1.134.1 1.497.238.598.213 1.046.53 1.344.947.3.416.449.994.449 1.73 0 .576-.126 1.093-.376 1.546zM5.954 4.366h.571c1.067 0 1.87.023 2.41.038a3.802 3.802 0 0 1 1.4.288c.416.181.722.478.92.884.197.405.296.802.296 1.186 0 .523-.09.983-.272 1.377-.182.395-.512.705-.992.93-.438.202-.862.36-1.273.38-.41.022-1.128.077-2.153.077h-.907v-5.16zm11.904 8.328c-.886-.954-2.18-1.587-3.569-1.896v-.129c.993-.426 1.859-1.093 2.44-2 .582-.907.889-1.942.889-3.106 0-1.003-.203-1.888-.624-2.657-.422-.768-1.056-1.382-1.91-1.84A7.657 7.657 0 0 0 12.55.213C11.648.079 10.324 0 8.574 0H0v24.014h9.694c1.654 0 3.018-.227 4.09-.526 1.072-.299 2.057-.839 2.953-1.543.758-.587 1.36-1.348 1.809-2.245.448-.896.656-1.946.656-3.13 0-1.622-.458-2.92-1.344-3.876z"/>
</svg>
