<svg xmlns="http://www.w3.org/2000/svg" width="40" height="40" viewBox="0 0 40 40">
    <g fill="none" fill-rule="evenodd">
        <circle cx="20" cy="20" r="20" fill="#CDCDCD" fill-rule="nonzero"/>
        <path fill="#FFF" d="M21.804 23.666c-.147.266-.38.467-.7.605-.362.156-.718.287-1.068.3-.35.012-.982.065-1.894.065h-.279v-3.604h.738c.625 0 1.124.011 1.496.02.372.01.664.059.877.14.35.125.612.31.787.555.175.243.263.582.263 1.013 0 .338-.074.64-.22.906zm-3.94-7.983h.334c.625 0 1.095.013 1.411.022.316.01.59.069.82.169.245.106.424.28.54.518.116.237.173.47.173.695 0 .306-.053.575-.159.807-.106.231-.3.413-.581.544-.257.119-.505.21-.746.223-.24.013-.661.045-1.261.045h-.532v-3.023zm6.974 4.88c-.52-.56-1.277-.93-2.091-1.112v-.075c.581-.25 1.089-.64 1.43-1.172.34-.532.52-1.138.52-1.82 0-.587-.12-1.106-.366-1.556-.247-.45-.618-.81-1.119-1.079a4.486 4.486 0 0 0-1.484-.5c-.529-.078-1.305-.124-2.33-.124h-5.023v14.07h5.68c.969 0 1.767-.134 2.396-.309a4.968 4.968 0 0 0 1.73-.904c.444-.344.797-.79 1.06-1.315.262-.525.384-1.14.384-1.834 0-.95-.269-1.711-.787-2.27z"/>
    </g>
</svg>
