<svg xmlns="http://www.w3.org/2000/svg" width="32" height="32" viewBox="0 0 32 32">
    <g fill="none" fill-rule="evenodd">
        <circle cx="16" cy="16" r="16" fill="#F00" fill-rule="nonzero"/>
        <path fill="#FFF" d="M14.741 17.528v-3.447l3.173 1.723-3.173 1.724zm7.051-4.634c-.147-.661-.669-1.149-1.297-1.222-1.488-.172-2.994-.173-4.493-.172-1.5 0-3.006 0-4.494.172-.628.073-1.15.56-1.297 1.222-.209.942-.211 1.97-.211 2.94 0 .969 0 1.997.209 2.939.146.66.668 1.149 1.297 1.221 1.488.173 2.994.173 4.493.173 1.5 0 3.006 0 4.494-.173.628-.072 1.15-.56 1.297-1.221.209-.942.21-1.97.21-2.94s.001-1.997-.208-2.94z"/>
    </g>
</svg>
